<?xml version="1.0" encoding="UTF-8"?><svg id="_0139_authentication_1" xmlns="http://www.w3.org/2000/svg" viewBox="0 0 500 500"><defs><style>.cls-1{fill:#fff;}.cls-2{fill:#f4a28c;}.cls-3{opacity:.46;}.cls-3,.cls-4,.cls-5,.cls-6,.cls-7,.cls-8,.cls-9{fill:none;}.cls-10{fill:#a5a5a5;}.cls-4{opacity:.58;}.cls-11{fill:#ce8172;}.cls-12{fill:#e6e6e6;}.cls-5{opacity:.03;}.cls-6{opacity:.73;}.cls-7{opacity:.08;}.cls-8{opacity:.31;}.cls-9{opacity:.2;}.cls-13{fill:#24285b;}.cls-14{fill:#000001;}.cls-15{fill:#ffd200;}.cls-16{fill:#68e1fd;}</style></defs><g id="sd" class="cls-5"><ellipse class="cls-14" cx="274.24" cy="423.7" rx="213.24" ry="25.84"/></g><g id="monitor"><rect class="cls-10" x="107.27" y="86.5" width="341.52" height="259.38"/><polygon class="cls-10" points="252.22 320.53 239.24 402.94 325.76 402.94 305.87 320.53 252.22 320.53"/><rect class="cls-12" x="107.27" y="295.19" width="341.52" height="50.69"/><circle class="cls-10" cx="279.93" cy="317.51" r="13.72"/><rect class="cls-12" x="219.5" y="388.5" width="121.68" height="26.48"/><g class="cls-7"><path class="cls-14" d="m107.32,176s13.71-8.18,17.47,6.62c3.75,14.8,6.56,31.23,19.6,35.09,13.04,3.86-32.69-12.26-32.69-12.26l-4.37-29.45Z"/></g><circle class="cls-13" cx="137.03" cy="113.65" r="7.34"/><circle class="cls-16" cx="158.86" cy="113.65" r="7.34"/><circle class="cls-15" cx="179.43" cy="113.65" r="7.34"/><g class="cls-7"><path class="cls-14" d="m167.74,222.74s16.11.07,21.16,33.31c5.05,33.24,11.1,88.39-44.52,88.97h0v-39.48l23.36-82.8Z"/></g><path class="cls-16" d="m301.78,185.44h-10.63v-24.86c0-8.46-6.88-15.33-15.34-15.33s-15.34,6.88-15.34,15.33v24.86h-10.63v-24.86c0-14.32,11.65-25.96,25.97-25.96s25.97,11.65,25.97,25.96v24.86Z"/><g class="cls-3"><path class="cls-1" d="m301.78,185.44h-10.63v-24.86c0-8.46-6.88-15.33-15.34-15.33s-15.34,6.88-15.34,15.33v24.86h-10.63v-24.86c0-14.32,11.65-25.96,25.97-25.96s25.97,11.65,25.97,25.96v24.86Z"/></g><rect class="cls-16" x="236.08" y="166.44" width="79.46" height="63.34"/><path class="cls-13" d="m283.03,189.45c0-4.63-3.76-8.39-8.39-8.39s-8.39,3.76-8.39,8.39c0,2.44,1.06,4.61,2.71,6.14v17.8h11.52v-17.94c1.57-1.52,2.55-3.65,2.55-6.01Z"/><rect class="cls-1" x="216.77" y="248.81" width="118.08" height="25.08"/><rect class="cls-15" x="298.41" y="248.81" width="36.45" height="25.08"/><circle class="cls-13" cx="231.9" cy="261.55" r="3.45"/><circle class="cls-13" cx="244.71" cy="261.55" r="3.45"/><circle class="cls-13" cx="257.21" cy="261.55" r="3.45"/><circle class="cls-13" cx="270.02" cy="261.55" r="3.45"/><circle class="cls-13" cx="283.11" cy="261.55" r="3.45"/><g class="cls-7"><rect class="cls-14" x="397.92" y="136.11" width="50.87" height="27.5"/></g></g><path class="cls-16" d="m81.96,222.74s-16.47,15.01-9.53,42.26c4.75,18.64,19.5,67.54-33.39,66.23l1.34,12.05s53.01,6.95,61.5-38.2c9.59-51.02-19.91-82.33-19.91-82.33Z"/><g class="cls-9"><path class="cls-1" d="m81.96,222.74s-16.47,15.01-9.53,42.26c4.75,18.64,19.5,67.54-33.39,66.23l1.34,12.05s53.01,6.95,61.5-38.2c9.59-51.02-19.91-82.33-19.91-82.33Z"/></g><path class="cls-16" d="m90,409.45s-3.02,4.3-7.43,3.49c-4.41-.81-6.69,3.09-3.11,5.25s14.93-.09,14.93-.09l1.42-6.29-5.81-2.35Z"/><path class="cls-16" d="m120.36,205.44s45.48,0,50.85,25.25-23.67,100.66-23.67,100.66l-51.35-2.21s2.14-28.08-5.6-50.8c-7.74-22.72-36.55-63.44,29.76-72.9Z"/><g class="cls-7"><path class="cls-14" d="m144.38,233.73s-14.43,14.54-7.15,37.57c7.28,23.03-42.85,22.41-42.85,22.41,0,0,1.37,8.12,1.68,14.54,0,0,21.76,16.47,55.46,12.24l2.02-5.77,8.64-21.22-17.8-59.77Z"/></g><path class="cls-2" d="m89.46,180.28s3.02,9.26,7.05,14.55c1.63,2.15,4.75,2.57,6.87.91,2.64-2.07,5.61-5.63,4.59-10.78l-.65-8.96s-.6-5.6-7.2-7.09c-6.6-1.48-12.78,5.83-10.66,11.37Z"/><polygon class="cls-2" points="109.26 180.99 120.36 205.44 105.91 216.16 103.03 193.16 109.26 180.99"/><path class="cls-13" d="m91.84,179.71c1.6-.58,4.47-1.82,7.99-4.15,0,0-1.14,5.09,3.49,8.2,4.63,3.11,8.38-.7,8.38-.7l-5.04-11.45c-1.36-3.38-4.46-5.77-8.09-6.17-1.48-.17-3.09-.27-4.64-.24-3.88.08-7.79,4.35-11.71,3.38-1.72-.43-3.27,1.16-2.82,2.87.97,3.72,3.94,8.96,9.49,8.86,1.02-.02,2.01-.26,2.96-.61Z"/><path class="cls-2" d="m102.24,183.9s-1.4-3.48,1.3-4.31c2.7-.84,4.76,4.18,1.43,6.14l-2.74-1.83Z"/><path class="cls-2" d="m91.66,186.02l-1.03,4.51c-.25,1.11.74,2.11,1.85,1.87l3.7-.81-4.53-5.57Z"/><g class="cls-8"><path class="cls-11" d="m103.38,195.75s3.31-4.54,3.32-7.46c0,0,4.45,8.48-2.3,15.84l-1.02-8.38Z"/></g><path class="cls-16" d="m148.56,225.95c6.23-7.24,17.98-5.26,21.71,3.53,6.14,14.45,13.18,40.11,2.66,67.93-16.09,42.6-79.54-4.42-79.54-4.42l9.54-10.41s33.41,15.78,46.66,7.57c11.09-6.86-17.51-45.06-1.03-64.2Z"/><g class="cls-9"><path class="cls-1" d="m148.56,225.95c6.23-7.24,17.98-5.26,21.71,3.53,6.14,14.45,13.18,40.11,2.66,67.93-16.09,42.6-79.54-4.42-79.54-4.42l9.54-10.41s33.41,15.78,46.66,7.57c11.09-6.86-17.51-45.06-1.03-64.2Z"/></g><path class="cls-2" d="m94.7,291.56s-11.11-2.18-11.95-11.01c-.84-8.84,12.2,4.21,14.51,0,2.31-4.21,6.7-4.35,5.66,2.03l-8.23,8.98Z"/><path class="cls-16" d="m135.14,391.18s3.9,3.52,2.56,7.79c-1.34,4.28,2.26,7.01,4.83,3.73,2.57-3.29,1.72-14.83,1.72-14.83l-6.07-2.17-3.03,5.48Z"/><path class="cls-13" d="m95.81,411.8l-8.68-2.35,24.56-68.73-9.82-11.33,45.66,1.96s0,12.64-11.01,21.34c-4.22,3.34-8.14,7.03-11.43,11.29-7.2,9.31-18.94,26.03-29.29,47.82Z"/><path class="cls-13" d="m96.19,329.14l-1.37,33.5c-.26,6.34,3.28,12.23,9.01,14.97l32.04,15.34,3.14-7.74-18.63-13.54c-4.94-3.59-6.99-9.96-5.06-15.76l8.52-25.58-27.65-1.19Z"/><path class="cls-2" d="m40.1,340.74s-16.01.46-15.21-9.39c.8-9.85,14.16-.12,14.16-.12l1.05,9.51Z"/><rect class="cls-15" x="21.33" y="307.87" width="17.75" height="30.63" transform="translate(-258.65 175.11) rotate(-57.52)"/><g id="plant"><g class="cls-4"><path class="cls-16" d="m445.89,399.56s-13.65-3.73-16.62-16.43c0,0,21.15-4.27,21.75,17.55l-5.13-1.12Z"/></g><g class="cls-6"><path class="cls-16" d="m447.56,398.21s-9.54-15.08-1.14-29.17c0,0,16.08,10.21,8.94,29.2l-7.79-.03Z"/></g><path class="cls-16" d="m450.02,398.22s5.04-15.92,20.27-18.94c0,0,2.86,10.34-9.86,18.98l-10.41-.04Z"/><polygon class="cls-13" points="440.12 397.86 442.88 416.79 460.31 416.86 462.88 397.95 440.12 397.86"/></g><g id="check"><rect class="cls-13" x="386.89" y="50.46" width="95.72" height="95.72"/><path class="cls-1" d="m427.13,120.93c-.09,0-.18,0-.27,0-1.66-.09-3.16-.99-4.02-2.42l-11.13-18.51c-1.42-2.37-.66-5.44,1.71-6.86,2.37-1.43,5.44-.66,6.86,1.71l7.33,12.18,22.21-29.32c1.67-2.2,4.8-2.63,7-.97,2.2,1.67,2.63,4.8.97,7l-26.67,35.22c-.95,1.25-2.43,1.98-3.99,1.98Z"/></g></svg>