<?xml version="1.0" encoding="utf-8"?>
<!-- Generator: Adobe Illustrator 26.3.1, SVG Export Plug-In . SVG Version: 6.00 Build 0)  -->
<svg version="1.1" id="Layer_1" xmlns="http://www.w3.org/2000/svg" xmlns:xlink="http://www.w3.org/1999/xlink" x="0px" y="0px"
	 viewBox="0 0 500 500" style="enable-background:new 0 0 500 500;" xml:space="preserve">
<style type="text/css">
	.st0{fill:#55823D;}
	.st1{fill:url(#SVGID_1_);}
	.st2{fill:url(#SVGID_00000139261585266277774940000001796171314307308965_);}
	.st3{fill:url(#SVGID_00000181790182947533623850000016693289719753495223_);}
	.st4{fill:url(#SVGID_00000077285392230064717490000010173683610890915713_);}
	.st5{fill:#68E1FD;}
	.st6{fill:#124577;}
	.st7{opacity:0.6;fill:#68E1FD;enable-background:new    ;}
	.st8{fill:#FFFFFF;}
	.st9{opacity:0.82;}
	.st10{fill:#FFB3A6;}
	.st11{opacity:0.82;fill:#124577;enable-background:new    ;}
	.st12{opacity:0.6;}
	.st13{opacity:0.72;}
	.st14{opacity:0.72;fill:#FFFFFF;enable-background:new    ;}
	.st15{opacity:0.15;fill:#42352F;enable-background:new    ;}
	.st16{opacity:0.7;fill:#42352F;enable-background:new    ;}
	.st17{fill:#8BC91F;}
	.st18{fill:#42352F;}
	.st19{fill:#FDBA45;}
	.st20{fill:#FF9A22;}
	.st21{opacity:0.2;fill:#42352F;enable-background:new    ;}
	.st22{fill:#006837;}
</style>
<g id="background">
	<path class="st0" d="M242.9,402.4L19.2,270.2c-7.1-4-13.2-10.6-6.3-14.9L237.4,126c3.4-2.1,8.5-3.4,11.9-1.5l234.8,136.3
		c7.1,4.1,8.4,15.7,1.3,19.8l-213,121.6C263.3,407.5,252.1,407.6,242.9,402.4z"/>
	
		<linearGradient id="SVGID_1_" gradientUnits="userSpaceOnUse" x1="217.0359" y1="108.4941" x2="252.2641" y2="132.8459" gradientTransform="matrix(1 0 0 -1 0 502)">
		<stop  offset="1.000000e-02" style="stop-color:#55823D"/>
		<stop  offset="1" style="stop-color:#006837"/>
	</linearGradient>
	<polygon class="st1" points="259.7,379.9 230.6,395.1 209.6,382.7 243.1,364 	"/>
	
		<linearGradient id="SVGID_00000023272491718254576210000015199444364407823756_" gradientUnits="userSpaceOnUse" x1="170.2693" y1="223.6209" x2="231.4893" y2="268.6809" gradientTransform="matrix(1 0 0 -1 0 502)">
		<stop  offset="1.000000e-02" style="stop-color:#55823D"/>
		<stop  offset="1" style="stop-color:#006837"/>
	</linearGradient>
	<polygon style="fill:url(#SVGID_00000023272491718254576210000015199444364407823756_);" points="304.7,222.2 175.8,294.4 
		126.7,267.7 235.9,203.8 	"/>
	
		<linearGradient id="SVGID_00000088128022107676741200000006808385964514411684_" gradientUnits="userSpaceOnUse" x1="70.9763" y1="210.2648" x2="87.7963" y2="223.4548" gradientTransform="matrix(1 0 0 -1 0 502)">
		<stop  offset="1.000000e-02" style="stop-color:#55823D"/>
		<stop  offset="1" style="stop-color:#006837"/>
	</linearGradient>
	<polygon style="fill:url(#SVGID_00000088128022107676741200000006808385964514411684_);" points="202.4,223.1 73.6,295.3 
		46.4,276.6 156.9,217.2 	"/>
	
		<linearGradient id="SVGID_00000095314157650591712780000017038707466551620257_" gradientUnits="userSpaceOnUse" x1="307.2097" y1="172.2802" x2="350.4297" y2="227.7102" gradientTransform="matrix(1 0 0 -1 0 502)">
		<stop  offset="1.000000e-02" style="stop-color:#55823D"/>
		<stop  offset="1" style="stop-color:#006837"/>
	</linearGradient>
	<polygon style="fill:url(#SVGID_00000095314157650591712780000017038707466551620257_);" points="412.6,305.1 318.2,353.4 
		242.6,301.9 337.8,248.7 	"/>
</g>
<g id="world">
	<path class="st5" d="M314.4,227.9L314.4,227.9z"/>
	<path class="st5" d="M307.6,236.4l-0.1,0.2c0.1,0,0.2-0.1,0.3-0.1C307.8,236.4,307.7,236.4,307.6,236.4z"/>
	<path class="st5" d="M307,238.3c-0.1-0.4-0.2-0.7,0.2-0.8c0.2,0,0.3-0.2,0.4-0.3s0-0.2,0-0.4l-0.4,0.2v-0.1l-0.7,1.2
		C306.7,238.1,306.9,238.2,307,238.3z"/>
	<path class="st5" d="M316.4,286.6c0.2-0.8,0.3-1.6,0.5-2.4c0.1-0.4,0.2-0.7,0.2-1.1c0-0.3-0.1-0.6-0.1-0.9c0-0.3,0-0.6-0.1-0.8
		c-0.1-0.2-0.5-0.3-0.6-0.4l-0.9-0.6c-0.3-0.2-0.5-0.5-0.6-0.8l-1.1-2.1l-0.9-1.8c-0.2-0.4,0.1-1,0.2-1.4c0-0.3,0.1-0.5,0.2-0.8
		l0.5-0.7c0.4-0.5,0.7-0.8,0.6-1.5c0-0.2-0.1-0.3,0-0.4s0-0.2,0-0.3s-0.4-0.4-0.4-0.6s0-0.2-0.2-0.4s-0.1-0.1-0.3,0
		c-0.1,0.1-0.2,0.2-0.3,0.3c-0.1,0,0.1,0.2,0.1,0.3c-0.3,0.1-0.3,0.2-0.4-0.2c-0.1,0.2-0.4-0.1-0.5-0.2s-0.1,0.1-0.2,0l-0.3-0.2
		c-0.3-0.1-0.5-0.3-0.7-0.5c-0.1-0.2,0-0.5-0.2-0.6c-0.4-0.4-0.6-0.8-1.1-0.9s-1.1-0.1-1.4-0.5l-0.8-0.8c-0.2-0.2-0.4,0-0.6,0.1
		c-0.5,0.1-1-0.2-1.5-0.4l-1.1-0.5c-0.2,0-0.3-0.1-0.4-0.2l-0.7-0.8c-0.2-0.2-0.1-0.4,0-0.7s-0.3-0.6-0.4-0.8
		c-0.1-0.2-0.2-0.3-0.4-0.5l-0.8-0.7c-0.1-0.1,0-0.2,0-0.3s-0.1-0.2-0.2-0.3l-0.2-0.2c0,0.5,0,1,0.1,1.5c0.1,0.1,0.2,0.2,0.2,0.4
		c0,0.1-0.1,0.2-0.2,0.2c0.9,11.2,6,21.6,14.2,29.2c0-0.5,0.1-1.1,0.2-1.6L316.4,286.6z"/>
	<path class="st5" d="M314,253c0.3,0.3,0.9-0.2,0.6-0.4l0.2-0.2c-0.2,0.1-0.5,0.3-0.7,0.3s-0.5,0-0.7,0.1
		C312.9,253.4,313.8,252.8,314,253z"/>
	<path class="st5" d="M312.8,253.4c-0.2,0-0.3,0-0.5,0.2c-0.1,0.1-0.2,0.2-0.4,0.1c0-0.1,0.1-0.2,0.2-0.2c-0.1-0.1-0.1,0-0.1-0.1
		c-0.1,0.2-0.2,0.3-0.3,0.5l0.3,0.1l-0.1,0.1c0.4,0,0.5-0.1,0.8-0.3c0.3-0.1,0.5-0.3,0.8-0.5c0-0.1,0-0.1-0.1-0.2
		C313.5,253.3,312.9,253.4,312.8,253.4z"/>
	<path class="st5" d="M306.1,248.1c0,0,0,0.1,0,0.1C306.1,248.2,306.1,248.2,306.1,248.1c0,0,0.1,0.3,0.1,0.4c0-0.1,0.1-0.1,0.2-0.1
		s0,0.2-0.1,0.3c0,0,0.1-0.1,0.1-0.1c-0.1,0.1-0.2,0.3-0.1,0.5c0.1,0.2,0.2,0,0.1-0.1h0.1c-0.1-0.2,0.1-0.3,0-0.4
		c-0.1-0.1-0.2-0.3-0.2-0.4c-0.1-0.2-0.5-1.1-0.3-1.2h0c0,0.1-0.1,0.1-0.1,0.1c0-0.1,0.1-0.2,0.2-0.2l-0.1-0.1
		c-0.1,0.2-0.1,0.3,0.1,0.4c-0.1-0.1-0.4-0.2-0.5,0c-0.1,0.4,0,0.3,0.2,0.4c-0.3,0.1,0.1,0.5,0.1,0.6L306.1,248.1
		C306,248.1,306,248.1,306.1,248.1z"/>
	<path class="st5" d="M389,264c0,0.1,0,0.4-0.2,0.3c-0.1,0-0.1-0.3-0.1-0.4s0.1-0.1,0.2-0.1c-0.2-0.2-0.6-0.3-0.8-0.1
		c-0.2,0.2-0.7,0.4-0.8,0.7c0,0.1-0.2,0.4-0.1,0.5l0.4,0.6c0.2,0.3,0.4,0.5,0.6,0.8c0.2,0.3,0.4,0.4,0.4,0.9c0,0.2,0.1,0.9,0,1
		c-0.5,0.5-1.1,1-1.6,1.4c-0.2-0.2,0.1-0.5-0.1-0.6l-0.5-0.6c-0.2-0.3-0.6-0.5-1-0.6c0-0.1,0-0.2,0-0.3c-0.4,0-0.4,0.1-0.4,0.5
		c0,0.3-0.1,0.6-0.3,0.8c0,0.1,0,0.2,0,0.4c0,0.2,0,0.2,0.2,0.2s0.2,0.7,0.3,0.8s0.5,0.4,0.6,0.5c0.2,0.1,0.3,0.3,0.5,0.5
		c0.1,0.2,0,0.6,0,0.9c0.1,0.3,0.2,0.5,0.3,0.7c-0.3-0.1-0.6-0.3-0.9-0.5c-0.2-0.2-0.4-0.4-0.4-0.7c-0.1-0.3-0.2-0.7-0.3-1l-0.8-0.8
		c-0.1-0.1,0-0.8,0.1-1c0-0.4,0-0.7-0.1-1.1c-0.1-0.7-0.2-1.4-0.5-2l-0.4,0.5c-0.2,0.2-0.2,0.2-0.4,0.1s-0.3,0-0.2-0.3
		c0.1-0.2,0.1-0.4,0.1-0.6c-0.1-0.4-0.3-0.8-0.6-1.1c-0.3-0.3-0.5-0.7-0.6-1c-0.1,0.1-0.4,0.4-0.6,0.4l-1,0.1c0,0-0.2,0-0.3,0
		s0,0.3,0,0.4l-0.5,0.5l-1.4,1.4c-0.2,0.1-0.4,0.3-0.6,0.3c-0.2,0.1-0.1,0.3-0.1,0.6c0,0.3,0,0.6,0,0.8c-0.1,0.3-0.2,0.5-0.2,0.8
		c0,0.3,0.2,0.6,0.4,0.8c0.2,0.2,0.3,0.5,0.4,0.8c0.2,0.5-0.7,1-0.7,0.3c0-0.3,0-0.6,0-0.9c0-0.3-0.1-0.3-0.3-0.6
		c0,0.2,0,0.4-0.2,0.5l-0.5,0.4c-0.5-1-0.9-2-1.4-3c-0.1-0.3-0.3-0.6-0.4-0.9c0-0.2,0-0.5,0-0.7l-0.1-1.9c-0.1,0.2-0.3,0.4-0.4,0.6
		s-0.1,0.2-0.4,0.1s-0.5-0.5-0.7-0.7c0.2,0,0.6,0,0.6-0.3c-0.1,0-0.2,0-0.3,0c-0.3-0.1-0.6-0.3-0.8-0.5c-0.2-0.1-0.3-0.5-0.4-0.7
		s-1.5,0.1-1.7,0.1c-0.5,0-1-0.1-1.5-0.2c-0.2,0-0.5,0-0.6-0.2c-0.2-0.4-0.1-0.5-0.5-0.4c-0.3,0.1-0.6,0.1-0.9,0
		c-0.2,0-0.4-0.3-0.5-0.4c-0.3-0.1-0.5-0.3-0.6-0.6c-0.1-0.2-0.2-0.6-0.4-0.6c-0.5-0.1-0.5,0-0.8,0.3c-0.1,0.1,0.3,0.6,0.4,0.7
		c0.3,0.5,0.5,1,0.8,1.5c0-0.2,0.1-0.5,0.1-0.7c0.1,0.3,0.2,0.7,0.2,1c0.4,0,0.8,0,1.2-0.1c0.3-0.3,0.6-0.6,0.8-0.9
		c0,0.3,0,0.7,0.2,0.9c0.1,0.1,0.3,0.2,0.4,0.3c0.1,0.1,0.3,0,0.4,0.1s0.1,0.4,0.3,0.4s0.1,0.2,0.1,0.4s-0.4,0.6-0.6,0.7
		c0-0.1-0.1-0.1-0.1-0.2c-0.1,0.2-0.2,0.4-0.2,0.6c0,0.2-0.1,0.2-0.3,0.3l-0.6,0.3c-0.1,0-0.1,0.4-0.2,0.5s-0.2-0.1-0.4,0l-0.5,0.2
		c-0.2,0.1-0.2,0.4-0.4,0.5l-1,0.4c-0.1,0-0.1,0.1-0.2,0.2s-0.2,0.1-0.3,0.1c-0.3,0.1-0.6,0.1-0.9,0.2s-0.3,0.3-0.5,0.3
		s-0.4,0.1-0.5-0.3s-0.1-0.8-0.2-1.2c-0.1-0.5-0.4-1.1-0.7-1.5c-0.2-0.3-0.2-0.4-0.5-0.5s-0.2-0.6-0.2-0.8c-0.1-0.3-0.2-0.6-0.4-0.8
		c-0.1-0.2-0.3-0.2-0.4-0.4c-0.2-0.4-0.4-0.7-0.6-1.1c-0.1-0.2-0.2-0.5-0.4-0.4c0-0.2,0.1-0.5,0.1-0.7l-0.3,0.8
		c-0.3-0.3-0.5-0.6-0.7-1c-0.2,0.3,0.2,0.7,0.3,1l0.8,1.5c0.1,0.3,0.1,0.7,0.3,0.9s0.3,0.3,0.4,0.4l0.1,0.8c0,0.1,0,0.4,0.1,0.5
		c0.2,0.1,0.3,0.3,0.5,0.5c0.2,0.4,0.3,0.8,0.4,1.2c0,0.1,0.4,0.1,0.5,0.2l0.4,0.5c0.2,0.3,0.7,0.6,0.3,0.9c0.2,0.1,0.5,0.6,0.7,0.5
		l2-0.5c0.1,0,0.5-0.2,0.6,0c0,0.3-0.1,0.6-0.2,0.9c-0.2,0.5-0.5,1-0.8,1.5c-0.2,0.4-0.4,0.8-0.7,1.2c-0.9,0.8-1.7,1.7-2.4,2.7
		c-0.1,0.2-1,1.4-0.9,1.6c0.2,0.2,0.3,0.6,0.2,0.9c-0.1,0.3,0,0.6,0.2,0.8c0.4,0.5,0.2,1.3,0.3,1.9c0,0.5-0.3,0.9-0.7,1.2
		c-0.3,0.1-0.5,0.2-0.8,0.4l-0.6,0.7c-0.2,0.2-0.4,0.3-0.3,0.6s0.4,0.6,0.3,0.8c0,0.3,0,0.7-0.1,1c-0.1,0.2-0.6,0.3-0.8,0.4
		s-0.2,0.3-0.3,0.6c0,0.3,0,0.6-0.1,0.9c-0.3,0.5-0.7,1-1,1.5c-0.2,0.2-0.4,0.4-0.7,0.6c-0.1,0.1-0.4,0.4-0.5,0.5l-1.8,0.4l-0.8,0.2
		c-0.1,0-0.4-0.3-0.5-0.4c-0.3-0.3-0.3-0.3-0.3-0.8c0-0.2-0.1-0.5-0.2-0.7l-0.4-1c-0.1-0.2-0.3-0.4-0.5-0.5s-0.1-0.6-0.1-0.7
		c-0.1-0.4-0.1-0.8-0.2-1.2c-0.1-0.5-0.3-1-0.6-1.4c-0.1-0.3-0.3-0.6-0.5-0.9c-0.1-0.1,0-0.4,0-0.5c0-0.7,0.2-1.3,0.5-1.9
		c0.3-0.6,0.1-1,0-1.6l-0.5-1.9c-0.1-0.2-0.2-0.4-0.4-0.6l-0.6-0.9c-0.1-0.1,0-0.4,0-0.5c0-0.4,0.1-0.8,0.1-1.2s0.1-0.4-0.1-0.6
		s-0.2-0.3-0.6-0.3c-0.2,0-0.6,0.1-0.8,0s-0.4-0.5-0.6-0.8c-0.5,0-1,0-1.5,0.2c-0.3,0.2-0.6,0.3-0.9,0.5s-0.3,0.1-0.6,0
		c-0.2-0.1-0.5-0.1-0.7-0.1l-1,0.4c-0.2,0.1-0.3-0.1-0.5-0.2l-1-0.7c-0.4-0.2-0.6-0.5-0.9-0.9l-1.2-2.1l-0.4-0.7
		c-0.1-0.1,0.1-0.5,0.2-0.6s0.3-0.5,0.2-0.7s-0.1-0.7-0.2-1c-0.1-0.3-0.2-0.6-0.2-0.9c0.1-0.2,0.2-0.3,0.3-0.5l1.2-2.1
		c0.3-0.4,0.6-0.7,1.1-0.9c0.2-0.1,0.4-0.2,0.4-0.5s0.1-0.7,0.2-1.1s0.9-0.5,1.1-0.9s0.2-0.7,0.5-0.8c0.1,0,0.3,0.4,0.5,0.3
		s0.4-0.1,0.5-0.1s0.3,0.2,0.3,0.2c0.2-0.2,0.5-0.3,0.7-0.4c0.5-0.2,1-0.4,1.5-0.5c0.1,0,0.3-0.1,0.5,0c0.1,0.1,0.2,0.1,0.4,0.1
		c0.1,0,0.2-0.1,0.4-0.2c0.1,0,0.2,0,0.3,0c0.3,0.1,0.6,0,0.8-0.1c0.2-0.1,0.4,0,0.7,0.1c-0.2,0.4-0.2,0.4,0,0.8
		c0.1,0.2-0.3,0.4-0.4,0.6c0.2,0.2,0.4,0.5,0.7,0.5l1.2,0.3c0.3,0.1,0.2,0.4,0.5,0.6s0.5,0.1,0.8,0.2s0.5,0.3,0.8-0.1
		c0.1-0.1-0.1-0.3-0.1-0.4s0.1-0.3,0.2-0.4c0.3-0.1,0.7-0.2,1-0.1c0.1,0,0,0.2,0.1,0.2l0.6,0.1c0.1,0,0.2,0.1,0.2,0.2
		s0.2-0.1,0.2-0.1l0.9,0.3c0.2,0.1,0.5,0.1,0.7-0.1c0.3-0.2,0.4-0.2,0.7,0c0.4,0.2,0.9,0.1,1.2-0.3c0,0,0,0,0-0.1
		c0.1-0.3,0.7-1.3,0.5-1.6s0.2-0.6,0.1-0.7s-0.2,0.1-0.3,0.1s-0.2-0.1-0.3-0.1s-0.2,0.3-0.3,0.3c-0.1,0-0.3,0-0.4,0
		c-0.3,0-0.4-0.3-0.6-0.3s-0.3-0.1-0.3,0s-0.1,0.2-0.3,0.2s-0.5-0.2-0.7-0.3s-0.8-1-0.5-1.4h-0.3c0-0.4,0.4-0.4,0.6-0.5
		c0.3,0,0.6,0,0.9-0.2l-0.3-0.2c0.1-0.2,0.4-0.1,0.6-0.1s0.3,0,0.6-0.2c0.2-0.1,0.4-0.2,0.6-0.2c0.2,0.1,0.5,0.1,0.7,0
		c-0.1,0.1,0,0.2,0.1,0.2s0.1-0.1,0.3,0.1c0.1,0.1,0.5,0.2,0.7,0.2s0.4-0.1,0.7,0c0.3,0,0.5-0.1,0.7-0.2c0.2-0.1,0.1-0.5,0-0.6
		s-0.4-0.2-0.6-0.4s-0.4-0.4-0.7-0.5c-0.1,0-0.2-0.1-0.3-0.2l-0.3-0.2l0.1-0.1l0.3,0.1c-0.1-0.3,0.1-0.4,0.4-0.4
		c-0.1-0.1-0.3-0.2-0.3-0.3h0.3c-0.1-0.2,0.2-0.1,0.3-0.2s-0.2-0.1-0.3-0.1c-0.3,0-0.5,0.1-0.7,0.3v-0.1c-0.2,0-0.5,0.2-0.6,0.3
		c0,0,0-0.1,0-0.1c-0.3,0-0.2,0.3,0,0.5s0.4,0.1,0.6,0.1c-0.2,0.3-0.4,0.1-0.6,0.2s-0.6,0.4-0.8,0.3c0.1-0.4,0-0.3-0.3-0.5
		c0.1-0.1,0.7-0.3,0.3-0.4c-0.1,0-0.3,0-0.4,0c-0.1,0-0.2-0.1-0.3-0.2c0.2,0,0.4,0.1,0.5-0.1c-0.2,0.1-0.6-0.1-0.7,0
		s-0.5,0.4-0.5,0.6c0,0.1,0,0.3-0.1,0.4c-0.1,0.1-0.3,0.1-0.3,0.2c-0.1,0.3,0,0.6-0.3,0.7s-0.2,0.5-0.1,0.7s0.5,0.3,0.5,0.4
		s-0.4-0.1-0.6,0.1l-0.6,0.6c0-0.2,0.1-0.2,0.2-0.3c-0.1-0.1-0.2-0.1-0.4-0.1c-0.2,0-0.3-0.1-0.5-0.1c-0.1,0-0.2,0.1-0.3,0.1
		s0,0.2,0,0.2s-0.3,0-0.4-0.1c-0.1,0.2,0,0.3,0.1,0.5s0.1,0.2,0,0.4c0.2,0.2,0.5,0.2,0.5,0.6c-0.1-0.1-0.3-0.3-0.4-0.1
		c0.2,0,0.2,0.2,0.1,0.3s-0.1,0.2,0,0.4c-0.2,0-0.3,0-0.4-0.2s-0.1-0.1-0.3,0c-0.1-0.4-0.2-0.5,0.1-0.8c-0.3,0-0.3,0-0.5-0.3
		s-0.2-0.4-0.3-0.6s-0.2-0.4-0.1-0.7s-0.1-0.3-0.3-0.5c-0.3-0.3-0.7-0.5-1-0.6c-0.1,0-0.3-0.3-0.4-0.4c0-0.2-0.2-0.4-0.4-0.6
		c-0.1,0.3-0.2,0.2-0.3-0.1s0-0.2-0.2-0.1s-0.4,0.1-0.2,0.4c0,0.1-0.1,0.3,0,0.5c0.2,0.1,0.3,0.2,0.5,0.4c0.1,0.1,0.1,0.4,0.2,0.5
		s0.3,0.3,0.5,0.3s0.4,0,0.2,0.2c0.2,0.2,1.2,0.6,1,0.9c-0.1-0.1-0.4-0.4-0.5-0.3c-0.1,0.1-0.2,0.2-0.2,0.3c0,0.1,0.1,0.1,0.2,0.2
		c0.3,0.2-0.2,0.3-0.2,0.4s-0.4,0.5-0.4,0.2c-0.2,0.1-0.3,0.4-0.1,0.5c0,0,0,0,0,0c0.1,0.2-0.3,0.3-0.4,0.1s-1.1-0.3-0.7-0.7
		c0.2,0.1,0.5,0.1,0.7,0.1c0.2,0,0.3,0,0.5-0.1c0.1-0.1,0-0.2,0.1-0.2s-0.1-0.6-0.2-0.7s-0.3,0-0.2-0.1c0-0.1,0-0.2-0.1-0.2
		c0,0-0.1,0-0.1,0c0-0.1-0.3-0.4-0.4-0.3s-0.3-0.2-0.5-0.3s-0.6-0.4-0.7-0.8s-0.1-0.4-0.4-0.5s-0.3-0.1-0.4,0
		c-0.3,0.3-0.6,0.5-0.9,0.6l-0.8-0.2c-0.1,0-0.3,0.2-0.4,0.3s0.1,0.4,0,0.6s-0.4,0.2-0.6,0.3c-0.4,0.2-0.5,0.6-0.8,1
		c-0.1,0.1,0.2,0.2,0.1,0.4s-0.3,0.3-0.3,0.5c-0.1,0-0.3,0-0.4,0.1s-0.1,0.3-0.2,0.3c-0.3,0-0.5,0-0.8,0c-0.2,0-0.4,0.3-0.5,0.3
		s-0.5-0.3-0.3-0.5c-0.2,0.1-0.3-0.2-0.6-0.1s-0.4-0.1-0.5,0.1c0-0.1,0.1-0.3,0.1-0.4c0-0.1,0-0.2,0-0.3s-0.1,0-0.1,0
		c-0.2-0.2,0-0.3,0-0.6s0.2-0.7,0.1-0.9c-0.1-0.2-0.1-0.5,0-0.7c-0.1,0.1-0.2-0.1-0.2-0.2s0.3-0.1,0.4-0.1l0-0.1
		c0.2-0.2,0.4,0.1,0.6,0c0.2-0.1,0.5-0.1,0.7,0c0.2,0.1,0.4,0,0.6,0c0.2,0.1,0.4,0.1,0.6,0.1c0.4-0.1,0.4-0.9,0.4-1.2s0-0.4-0.2-0.5
		s-0.2-0.4-0.1-0.4c-0.2,0-0.1-0.1-0.2-0.1c-0.1,0-0.2-0.1-0.3-0.1c-0.1-0.1-0.2-0.2-0.3-0.1c-0.1,0-0.2,0-0.2-0.1c0,0,0.1,0,0.1,0
		c-0.1,0-0.2-0.1-0.2-0.2c0.2,0,0.4,0,0.5-0.1c0.3-0.2,0.1,0.2,0.3,0.1s0.5-0.1,0.4-0.2c0-0.2-0.1-0.3-0.1-0.5c0.1,0,0.2,0,0.3,0.1
		s0,0.1,0.1,0.1c0.2,0,0.4,0,0.5-0.1c0,0-0.1,0-0.1,0c0.1-0.2,0.3-0.2,0.5-0.3s0-0.3,0.1-0.5s0.4-0.2,0.5-0.2
		c0.2-0.1,0.3-0.1,0.5-0.1c-0.1,0-0.3,0-0.3-0.1s0.2,0,0.2-0.1s0-0.1,0-0.2c0.1-0.1,0.2-0.3,0.2-0.5c0-0.1,0.2-0.1,0.3-0.2
		c0.2-0.3,0.4-0.1,0.7-0.2c0,0,0-0.1,0.1-0.1h0.2c0.1,0,0.2,0,0.3,0c0-0.2,0.1-0.1,0.3-0.2c-0.1,0-0.3-0.2-0.2-0.3s0-0.1,0-0.3
		s0.1-0.3-0.1-0.4s-0.1-0.2-0.1-0.4s0-0.6,0.4-0.6s0.4-0.3,0.7-0.4c-0.2,0.2-0.2,0.7,0.1,0.8c-0.2,0.3-0.6,0.4-0.5,0.9
		s0.3,0.6,0.6,0.4l-0.1,0.2c0.3,0.2,0.5-0.2,0.8-0.3c0.1,0,0.3,0.1,0.4,0.2c0,0.2,0.2,0.2,0.3,0.3c0-0.1,0-0.1,0-0.2h-0.2
		c0.2-0.1,0.8-0.1,0.9-0.3c0.2-0.3,0.7-0.4,1-0.2c0,0-0.1-0.1-0.2-0.1c0,0.3,0.4,0.3,0.5,0.1s0.1-0.2,0.1-0.2s0.1,0,0.1,0
		c0.1-0.1,0.2-0.1,0.3-0.2c0,0.1-0.1,0.2-0.2,0.2c0.5,0.2,0.2-0.6,0.2-0.8c0-0.2,0-0.3,0.1-0.4c0.1-0.1,0-0.3,0.2-0.4
		c0.4-0.3,0.5,0.4,0.8,0.4s0.3-0.2,0.2-0.4s0.1-0.5,0-0.5s-0.1,0.1-0.2,0.1c-0.1-0.1-0.1-0.1-0.2-0.2c0,0-0.1-0.4-0.1-0.4
		c0.3-0.2,0.6-0.3,0.9-0.3l0.7,0.1c0.3,0,0-0.1,0.2-0.2s0.3,0,0.4-0.1s0.3,0,0.4,0c-0.1-0.2-0.5-0.3-0.7-0.4c0-0.1,0-0.1,0.1-0.2
		l-2,0.4c-0.1,0-0.3,0.1-0.4,0c-0.1-0.2-0.2-0.3-0.4-0.3c-0.2-0.1-0.2-0.1-0.2-0.4c0-0.2,0-0.3,0-0.5c-0.1-0.2-0.1-0.4-0.1-0.6
		c0-0.1,0.3-0.3,0.4-0.4s0.5-0.4,0.7-0.6s0.3-0.4,0.4-0.5s0.3,0.1,0.2-0.2c-0.1-0.3-0.3-0.5-0.6-0.5c-0.4,0-0.5,0-0.8,0.3
		s-0.3,0.4-0.1,0.7s-1.1,0.9-1.2,1c-0.3,0.4-0.8,1-0.5,1.6c0.1,0.2,0.5,0.2,0.7,0.5s-0.2,0.4-0.4,0.5s-0.4,0.3-0.5,0.6
		c0,0.3-0.1,0.6-0.1,0.9c-0.1,0.4-0.4,0.4-0.7,0.4c-0.1,0-0.1,0.2-0.1,0.3s-0.1,0.1-0.3,0.1s-0.2,0.1-0.3-0.2s-0.1-0.3,0-0.4
		s-0.3-0.5-0.4-0.7s0-0.2-0.1-0.3c-0.1-0.1-0.1-0.3-0.2-0.4c0-0.1,0.1-0.3,0-0.4s-0.1-0.2-0.2-0.4c0,0.2-0.2,0.4-0.4,0.5
		c-0.2,0.1-0.3,0.3-0.5,0.4s-1,0.1-1-0.4s-0.2-1.1-0.2-1.6s0-0.5,0.4-0.8c0.2-0.1,0.4-0.3,0.6-0.4c0.3-0.1,0.5-0.2,0.7-0.4
		c0.2-0.2,0.4-0.4,0.6-0.6c0.4-0.4,0.7-0.9,0.9-1.4c0.3-0.5,0.7-0.9,1.1-1.3c0.3-0.4,0.7-0.8,1.2-1.1c0.5-0.2,1.1-0.4,1.7-0.6
		c0.2-0.1,0.3-0.4,0.5-0.5c0.2-0.1,0.5-0.1,0.7-0.1c-0.2,0.2-0.4,0.5-0.5,0.8c0.2,0,0.5-0.5,0.6-0.7c0,0.1,0,0.2,0.1,0.4
		c0.1-0.1,0.2-0.3,0.3-0.4s0.3,0,0.4,0l-0.2,0.4c0.3,0.2,0.1-0.3,0.4-0.2l0.8,0.3c0.2,0.1-0.2,0.3-0.3,0.3c-0.2,0-0.4,0-0.6-0.1
		c0.1,0.2,0.3,0.1,0.4,0.3s0.3,0,0.4,0s0.4,0.1,0.6-0.1s0.3,0.1,0.4,0.2c0,0.2-0.2,0.1-0.4,0c-0.1,0.4,0.7,0.3,0.9,0.3
		c0.4,0,0.7,0.1,1,0.3c0.3,0.2,0.7,0.4,1,0.5c0.3,0.1,0.6,0.3,0.7,0.6c0.1,0.3,0.1,0.3-0.1,0.6s-0.1,0.3-0.3,0.3
		c-0.3,0.1-0.6,0.1-0.9,0.1c-0.7-0.1-1.4-0.4-2-0.7c0.2,0.2,0.8,0.6,0.8,0.9s0,0.9,0.2,1.1s0.7,0.5,1,0.4s0.1-0.4-0.1-0.4
		s-0.2-0.2-0.4-0.3c0.3-0.3,0.3-0.2,0.7-0.1s0.6,0.2,0.9,0.3c-0.1-0.2-0.2-0.4-0.2-0.6l0.6-0.4c0.1-0.1,0.3-0.3,0.5-0.2l0.7,0.2
		c0-0.1,0.1-0.4,0.1-0.5s-0.2-0.4-0.2-0.4l0.1-0.6c0-0.1-0.2-0.3-0.3-0.4l0.8,0.1c0.2,0,0.3,0.3,0.5,0.5c-0.1,0-0.5,0-0.6,0.1
		s0.1,0.4,0.2,0.5s0.4,0.1,0.6,0s0.1-0.2,0.2-0.4s0.3-0.1,0.4-0.2l0.8-0.3l1.1-0.5c0.1,0.4,0.1,0.4,0.4,0.4s0.3-0.4,0.5-0.3
		c0.2,0,0.4,0,0.6-0.1c0.2-0.1,0.5-0.1,0.7-0.1l-0.1,0.2c0.4,0.1,0.3,0.1,0.6-0.2s0.1-0.3-0.1-0.6c0.6-0.2,1.2-0.2,1.7,0.1l1,0.4
		c0.3,0.1,0.5,0.3,0.7,0.5c0-0.1,0.1-0.6,0-0.6l-0.8-0.6c-0.2-0.1,0.1-0.5,0.2-0.6s-0.3-0.3-0.4-0.4l0.7-0.6
		c0.2-0.1,0.2-0.6,0.3-0.8s1.3,0,1.5,0c-0.1,0.3-0.2,0.6-0.3,0.9s0.2,0.5,0.3,0.6s-0.3,1.4-0.1,1.5s0.5,0.2,0.4,0.5
		s-0.2,0.6-0.3,0.7s-0.5,0.3-0.8,0.5c-0.1,0.1-0.5-0.1-0.6-0.1c0.3,0.3,0.7,0.5,1.2,0.4c0.4-0.2,0.7-0.5,1-0.9
		c0.3-0.3-0.5-0.8,0.2-1c0.1,0,0.5-0.2,0.6-0.1l0.5,0.6c0-0.2,0-0.5-0.2-0.6c-0.2-0.2-0.4-0.2-0.6-0.1c-0.1,0-0.7,0.1-0.7,0.1
		s-0.2-0.5-0.1-0.6s0.3-0.5,0.2-0.7s-0.4-0.5-0.3-0.7s0.4-0.3,0.6-0.4s0-0.5,0-0.6c0.1,0,0.4,0.3,0.3,0.5c-0.2,0.4-0.2,0.3,0,0.7
		s1.1,0.2,1.4,0.3c-0.4-0.1-0.7-0.3-1-0.4s0.3-0.5,0.5-0.5c0.4-0.1,0.8-0.1,1.1,0.1c0.1,0.1,0.3,0.2,0.4,0.3c0.1,0.1,0.3,0,0.5,0
		c0-0.2-0.1-0.4-0.2-0.5c-0.1-0.1-0.4-0.1-0.6-0.1s-0.2-0.7-0.2-0.9l1.6-0.2l0.9-0.1c0.2,0,0.1-0.2,0.1-0.4c0-0.4,0-0.4,0.3-0.6l0,0
		c-15.1-18.8-42.4-22.1-61.5-7.5c0.2,0,0.4,0,0.7,0c0.5,0.1,1,0.2,1.5,0.4c-0.4,0.2-0.9,0.6-1.3,0.7l-1.7,0.1l0.8,0.1l-1.3,0.4
		l2.2-0.4c0,0.4-1,0.6-1.3,0.8c-0.2,0.2-0.5,0.4-0.8,0.5l-0.9,0.2h0.5c-0.1,0.2-0.3,0.3-0.5,0.4c-0.2,0.1-0.4,0-0.6-0.1
		c0,0.1,0,0.2,0.1,0.3c-0.5,0.1-1,0.1-1.4,0.2l0,0c0.3,0,0.9,0,0.9,0.3h-0.8c0.2,0.1,0.8,0.1,0.8,0.4l-0.7,0.1l0.4,0.2
		c-0.1,0.2-0.3,0.3-0.5,0.4c-0.1,0.1-0.5-0.2-0.5-0.1s0.3,0.2,0,0.4c-0.1,0.1-0.5,0.4-0.4,0.5s0.1,0.1,0.2,0s0.2,0,0.3,0.1
		s0.1,0.2,0.1,0.3s-0.2,0.1-0.2,0.1s-0.2-0.1-0.2-0.1s-0.1,0.2-0.2,0.2l-0.7,0.2c0-0.2,0.1-0.3,0-0.4s-0.2,0.1-0.4,0
		c0,0.3-0.2,0.2-0.4,0.1l-0.6,0.7h0.1c0.2-0.1,0.4,0,0.6,0c0.5-0.1,1,0,1.4,0.4l-0.3,0.2c0.1,0,0.2,0.1,0.4,0.1
		c-0.2,0.1-0.3,0-0.4,0.3s-0.5,0.1-0.6,0.1c-0.2,0-0.3,0-0.4-0.1c-0.2-0.1,0-0.3-0.3-0.3c0,0.1,0,0.2,0,0.3c-0.2,0-0.6,0.2-0.6-0.1
		c-0.1,0.3-0.4,0.2-0.5,0c0,0.1,0,0.1,0,0.2h-0.2c-0.2,0.3-0.5,0.6-0.7,0.9c0.1-0.1,0.2-0.1,0.3-0.2c0.4-0.2,0.7-0.2,1.1-0.1
		l-0.1,0.4c0.4,0,0.7-0.1,1-0.3c0.1,0,0.3,0,0.4,0c0.2,0,0.1,0.2,0.2,0.4s0.2,0.1,0.2,0.3s0.1,0.3,0,0.5s0.1,0.2,0.2,0.1
		s0.2-0.2,0.5-0.1c0.1,0,0.3-0.2,0.3-0.3s0.4-0.1,0.5-0.1c0.3,0,0.6,0.1,0.8,0.3c0.1,0.1,0.5,0.7,0.7,0.7s0.7-0.1,0.8,0.2
		c-0.1,0.1-0.5,0.2-0.4,0.3c0.1,0.2,0.4,0,0.5-0.1s1,0.3,1.1,0.4c-0.1,0.2-0.4,0.2-0.6,0.3c0.1,0,0.3,0,0.3,0.2
		c0.1-0.1,0.4-0.1,0.4-0.3c0.1,0.1,0.4,0.2,0.4,0.4c-0.2,0-0.4,0-0.6,0.1c0.1,0.1,0.3,0.1,0.4,0.1c0.3,0,0.2-0.1,0.3,0.2l-0.5-0.1
		c0,0.1,0,0.2,0,0.3h-0.4c0.4,0.2,0.9,0.4,1.3,0.5c0.2,0.1,0.3,0.2,0.4,0.3c0.2,0.2,0.3,0.2,0.6,0.2l-0.2,0.3c0.2,0,0.5-0.1,0.7,0
		s0.2,0.3,0.1,0.6c-0.1,0-0.4-0.1-0.4,0l0.3,0.1c-0.3,0.2-0.4,0.3-0.7,0.1c0,0.2,0,0.5,0,0.7c-0.3-0.1-0.6-0.3-0.8-0.6
		c0.1-0.1,0.4-0.1,0.3-0.3c-0.1,0-0.3,0.2-0.4,0.1s-0.3-0.3-0.4-0.4s-0.2-0.1-0.3,0s0.1,0.2,0.1,0.4h-0.3c0,0.1,0.1,0.2,0.1,0.3
		c0.2-0.1,0.2-0.1,0.3,0.1s0.1,0.3,0.2,0.5c0-0.3,0.2-0.1,0.3-0.1s0.2,0.1,0.2,0.4s0.2,0.1,0.3,0.3c0,0.2,0.1,0.4,0.1,0.5l-0.2-0.3
		c-0.1,0.2,0.2,0.3,0.1,0.5c0,0-0.1,0-0.1,0l0.1,0.2c-0.1,0-0.3-0.3-0.4-0.4l-0.7-0.5c0,0.1,0,0.1,0.1,0.2l-0.4-0.2l0.2,0.4
		c0.1,0.1,0.3,0.1,0.4,0.1l0.4,0.3c0.1,0.1,0.1,0.2,0.1,0.4l-1.2-0.3c-0.1,0-0.1-0.2-0.2-0.2l-0.6-0.2l0.1-0.1
		c-0.2,0-0.4-0.1-0.5-0.2l0.3-0.2c-0.2-0.1-0.4-0.1-0.5-0.3s-0.2-0.5-0.5-0.3c0-0.1-0.1-0.2-0.2-0.2s0,0.1,0,0.2
		c-0.2-0.1-0.4-0.2-0.5,0s-0.4,0.1-0.6,0.1s-0.4-0.2-0.3-0.4s0.4-0.2,0.3-0.4c0.3,0.1,0.6,0.1,0.9,0.1c0.1,0,0.5-0.1,0.5-0.2
		s-0.3-0.3-0.3-0.4l0.7-0.8c0.1-0.1,0.2-0.1,0.1-0.2s-0.2-0.4-0.3-0.6s-0.5-0.2-0.6-0.5s-0.1-0.2-0.3-0.1l-0.5,0.2
		c0-0.4,0.1-0.3,0.4-0.4c-0.2-0.1-0.6-0.7-0.8-0.4l-0.1-0.3c0-0.1-0.2,0-0.2,0s-0.2-0.5-0.4-0.2c0.2,0.1,0.2,0.2,0.3,0.4
		c-0.4,0.1-0.9,0-1.3-0.1l0.4,0.3c-0.2,0.1-0.2-0.1-0.4-0.2s-0.1,0.1-0.1,0.1l-0.3-0.1c-0.3-0.1-0.7-0.1-1-0.1c-0.2,0-0.3,0-0.5-0.1
		c-0.2-0.2,0.1-0.2-0.3-0.2c-0.1,0-0.2,0.1-0.4,0c-0.2-0.1-0.5-0.3-0.6-0.6l0.9,0.1c-0.3-0.3-0.6-0.3-1-0.3
		c-0.1-0.2-0.1-0.4-0.1-0.5c0-0.2,0.1-0.4,0.2-0.6l0,0c-0.4,0.6-0.8,1.2-1.2,1.8c0.1,0.1,0.3,0.3,0.4,0.4l-0.5,0.4
		c0.2,0.1,0.3,0.2,0.5,0.1s0.3,0,0.5,0.1l-0.3,0.2c0.2,0.1,0.3,0.2,0.2,0.4s-0.1,0.3,0.1,0.4c0.1-0.1,0.2-0.3,0.2-0.5
		c0-0.1,0.1-0.4,0.2-0.3s0.4,0.2,0.5,0.3s0.2,0.4-0.1,0.5c0-0.1,0-0.1,0-0.1c-0.5,0.3,0.6,1.3,0.7,0.8c0-0.2,0-0.2,0.1-0.3
		s0.2-0.2,0.2-0.2c0-0.4,0-0.4,0.4-0.5c-0.1-0.2-0.3-0.3-0.2-0.6s0.2-0.2,0.4-0.1s0.6,0,0.7,0.1c0.1,0.2,0.3,0.3,0.5,0.3
		c-0.1,0.2,0.1,0.4-0.1,0.5s-0.4,0-0.5,0.1c0.1,0.2,0.2,0.4,0.3,0.6c0.2,0.2,0.3,0.3,0.1,0.6c-0.2,0.2-0.4,0.3-0.6,0.4
		c-0.2,0.1-0.3-0.1-0.4-0.2l0.2,0.5l-0.3-0.2c0,0,0,0.1,0,0.1l-0.3-0.1c-0.1,0,0-0.2-0.1-0.2s-0.4-0.1-0.5,0.1l0.3,0.2
		c-0.1,0.2-0.2,0.3-0.4,0.5c-0.2,0.1-0.3,0-0.6-0.1c-0.4-0.2-0.8-0.2-1.2-0.2l0.9,0.5c0.3,0.1,0.6,0.1,0.8,0.1
		c-0.1,0.2-0.3,0.6-0.4,0.7s-0.2,0.1-0.3,0.1s-0.2-0.1-0.4,0c-0.3,0.2-0.4,0.2-0.8,0.1l-0.7-0.2l0.5,0.2c0,0-0.1,0.1-0.1,0.1
		c0.2-0.1,0.4,0,0.5,0.1c0.1,0.1,0.3,0.2,0.1,0.4c-0.2,0.1-0.4,0.1-0.6,0.1c-0.1,0-0.2,0.3-0.2,0.3c-0.2,0.3-0.4,0.6-0.6,1
		c-0.1,0.4-0.2,0.8-0.3,1.3c0.2,0,0.5,0,0.7,0.2s0.2,0.6,0.3,0.8c0.1,0.3,0.2,0.2,0.5,0.1c0.2,0,0.4,0.1,0.5,0.1
		c0.5,0.1,0.9,0.4,1.3,0.6c0.1,0.1,0.4,0.4,0.6,0.4l0.7,0.1c0.1,0,0.5,0,0.5,0.1c0,0.3,0,0.7,0,1s0.5,0.8,0.7,1.2s0.8-0.3,0.8-0.6
		l-0.1-0.9c0-0.2-0.2-0.4-0.3-0.5c0.3-0.2,0.9-0.4,1.1-0.7c0.2-0.4,0.2-0.8,0-1.2c-0.2-0.2-0.3-0.3-0.5-0.5c-0.2-0.3-0.2-0.2,0-0.4
		s0.3-0.2,0.2-0.6c-0.1-0.2-0.1-0.4-0.1-0.6c0.1-0.2,0.1-0.5,0-0.7c-0.1-0.2,0.1-0.3,0.3-0.3c0.4-0.1,0.8,0.3,1.2,0.1s0.3,0,0.5,0.2
		s0.4,0.2,0.5,0.4s0.2,0.4,0.4,0.4c0.2,0,0.4,0.1,0.5,0.2c-0.1,0.2-0.2,0.2-0.1,0.4c0.1,0.2,0.1,0.4,0,0.6c0.1,0,0.1,0,0.2,0
		c-0.1,0.1-0.4,0.3-0.2,0.5c0.3-0.8,1.2,0.9,1.4-0.1c0,0.1,0.1,0.1,0.2,0.1c0.1-0.2,0.2-0.4,0.2-0.7c0-0.2,0.2-0.5,0.4-0.5l-0.1,0.3
		c0.4,0,0.7,0.8,0.9,1.2c0.1,0.2,0.4,0.6,0.5,0.8s-0.2,0.3-0.2,0.4s0.2,0.2,0.2,0.2s0.3,0.2,0.3,0.3s0,0.2,0.1,0.3
		c0.2,0,0.5,0.1,0.7,0.2c0.2,0.1,0.5,0.3,0.1,0.3c-0.2,0-0.4,0.1-0.6,0.2c0.1,0,0.3,0,0.4-0.1c-0.1,0.2-0.4,0.2-0.6,0.2
		s-0.1,0.4,0,0.3c0.1-0.1,0.2-0.1,0.2-0.2c0.1,0,0.1-0.1,0.1-0.1c0.1-0.1,0.3-0.1,0.5-0.1c-0.1,0-0.1,0-0.2-0.1c0.1,0,0.4,0,0.4,0.1
		s-0.1,0.2,0,0.3c0.1-0.2,0.3-0.1,0.5-0.1s0,0.4,0,0.5s0.1,0.2,0,0.5c-0.1,0.1-0.3,0.2-0.5,0.3c-0.2,0.1-0.3,0-0.5,0.1
		c-0.2,0.1-0.3,0.2-0.4,0.3c-0.2,0.3-0.6,0.4-1,0.3c-0.4,0-0.8,0-1.3,0c-0.4,0-0.8-0.1-0.9,0.4c0,0.1-0.4,0.2-0.5,0.2
		c-0.2,0.1-0.3,0.3-0.5,0.5c-0.2,0.3-0.4,0.6-0.7,0.8c0.5-0.2,0.8-0.8,1.3-1c0.4-0.2,1.3-0.7,1.5-0.1l-0.1-0.1
		c0.3,0.2-0.1,0.3-0.2,0.4s-0.3-0.1-0.5,0c0.1,0,0.3,0.2,0.3,0.2c0.1,0,0.2,0,0.4,0c0,0.1-0.1,0.3-0.2,0.4c0.1,0,0.1,0,0.2,0
		c-0.1,0.3,0.2,0.5,0.4,0.5l-0.1,0.1c0.3,0.1,0.6,0.3,0.8,0.1c0,0.1,0,0.1,0,0.1c0.1,0,0.1,0,0.2-0.1c-0.2-0.2,0.2-0.6,0.3-0.7
		c0.2,0.1,0.1,0.3,0,0.5c0.2-0.1,0.4,0.1,0.3,0.2c-0.2,0.1-0.4,0.2-0.6,0.2c0,0,0.1,0.1,0.1,0.1l-0.7,0.3c-0.1,0-0.2,0.1-0.3,0.1
		c-0.1,0.1-0.1-0.1-0.2,0s-0.3,0.4-0.5,0.6s-0.2,0-0.3-0.1c-0.2-0.4,0.4-0.7,0.6-0.8s0.1,0,0.1,0.1s0.2-0.1,0.3-0.2
		c-0.2,0-0.4-0.1-0.5,0c0-0.1,0.1-0.2,0.1-0.3c-0.2-0.1-0.4,0.2-0.6,0.3s-0.1-0.1-0.2,0.1s-0.2,0-0.3,0c0.1,0.4-0.5,0.2-0.6,0.4
		l-0.1-0.1c-0.1,0.2-0.2,0.2-0.4,0.3s-0.1,0.1-0.2,0.3s-0.5,0.9,0.1,0.8c0,0,0-0.1,0-0.1c0,0,0.1,0.1,0.1,0.1c-0.1,0.1-0.3,0-0.5,0
		s-0.1,0.2-0.2,0.2c-0.3,0-0.6,0.1-0.9,0.3c0.2,0,0.4-0.1,0.6-0.2l-0.1,0.1c0.1,0,0.1,0,0.2,0c-0.1,0.1-0.3,0.2-0.5,0.2
		c-0.1,0-0.4,0-0.5,0.1c0.4,0-0.1,0.7-0.3,0.8c0.1-0.1-0.2-0.2-0.2-0.4c0,0.2,0.3,0.5,0.2,0.7c-0.1,0.2-0.2,0.4-0.3,0.6l0,0
		c0-0.1,0.1-0.3,0.1-0.4c-0.1-0.1,0-0.2-0.2-0.2c0-0.1,0-0.3,0.1-0.4c0,0,0.1-0.3,0-0.2c-0.3,0.2-0.2,0.4-0.1,0.7
		c-0.1-0.1-0.2-0.1-0.3-0.1c0.1,0.1,0.3,0.1,0.3,0.2s-0.1,0.3,0,0.4s0.2,0.1,0.2,0.3s-0.2,0.2-0.3,0.2c0.1,0,0.4,0,0.4,0.2
		s-0.3,0.1-0.4,0.1s0.1,0.1,0.1,0.1c-0.1,0-0.1,0.1-0.2,0.1c0.1,0.2,0.2,0,0.3,0.1l-0.2,0.1c-0.1,0-0.2-0.1-0.2,0s-0.2,0.3-0.3,0.4
		s-0.2,0-0.3,0.2c-0.1,0.1-0.2,0.2-0.3,0.3c-0.3,0.2-0.6,0.4-0.7,0.8c-0.1,0.3-0.1,0.5,0.1,0.8c0.1,0.3,0.2,0.6,0.2,1
		c0.1,0.2,0.1,0.7,0,0.9s-0.2,0.3-0.3,0.1s-0.3-0.3-0.3-0.3c0-0.1-0.1-0.3-0.2-0.4c-0.1-0.2-0.1-0.2-0.1-0.4l-0.1,0.1
		c-0.1-0.2,0.1-0.6-0.1-0.8s-0.3-0.4-0.6-0.4s-0.3,0.1-0.4,0.1c-0.1-0.1-0.2-0.2-0.4-0.2c-0.2-0.1-0.6,0.2-0.6-0.1
		c0,0.3-0.8,0.1-1,0.3c0.1,0,0.7,0.1,0.3,0.3c0,0,0.3,0.1,0.3,0.1s-0.1,0.2-0.1,0.1s-0.2-0.2-0.3-0.3c0,0.1,0,0.1,0,0.2
		c-0.1-0.2-0.2,0-0.3-0.1s-0.2-0.2-0.5-0.2s-0.3-0.1-0.4-0.1s-0.5,0.2-0.7,0.2s-1.1,0.7-1.1,1.2c0,0.1,0.2,0.3,0.2,0.4
		c0,0.1,0,0.2-0.1,0.4c-0.1,0.2-0.2,0.5-0.2,0.8c0,0.6,0.1,1.2,0.5,1.7c0.2,0.3,0.3,0.5,0.6,0.6c0.1,0,0.2,0.2,0.2,0.2l0.4-0.2
		c0.1,0,0.3-0.1,0.4-0.1c0.1,0,0.2,0.1,0.2,0.1c0.1,0,0.1,0,0.2-0.1c0,0,0-0.1,0-0.2c0.1-0.1,0.2-0.2,0.2-0.3
		c0.1-0.3,0.1-0.6,0.4-0.7c0.2-0.1,0.4-0.1,0.7-0.1c0.2,0,0.6-0.1,0.5,0.3c-0.1,0.1-0.3,0.6-0.4,0.6c0,0,0,0.1,0.1,0.1
		c0,0-0.1,0.1-0.1,0.1l0,0l0.1,0c-0.1,0.2-0.1,0.3-0.1,0.5c-0.1-0.1-0.1-0.2-0.1-0.3c0,0.1-0.1,0.1-0.1,0.2c0.2,0,0,0.4,0,0.6
		s-0.2,0.4-0.3,0.5c0.3,0.1,0.7,0.1,1,0.1c0.1,0,0.2-0.1,0.4-0.1c0.2,0,0.3,0,0.5,0.1c0.3,0.1,0.5,0.4,0.4,0.7
		c0,0.2-0.1,0.4-0.1,0.7s-0.1,0.2-0.1,0.4c-0.1,0.6,0.6,1.6,1.2,1.4c0.3-0.1,0.5-0.3,0.9-0.2c0.3,0.1,0.6,0.3,0.7,0.6
		c0-0.4,0.5-1,0.7-1.3c0.1-0.1,0.5-0.2,0.6-0.2l0.9-0.3c0.3-0.1,0.7,0.1,1,0.2l2,0.5c0.4,0,0.7,0.1,1,0.4l1.6,1.5
		c0.3,0.3,1.1,0.3,1.5,0.4s0.7,0.8,1,1.1l0.8,1c0.1,0.1,0.2,0.4,0.3,0.4l1.6,0.6l1.6,0.6c0.5,0.3,0.9,0.6,1.3,1c0.1,0,0.6,0,0.6,0.1
		c0.1,0.2,0.1,0.5,0.2,0.7c0.1,0.5,0.1,0.5-0.2,0.9l-1.1,1.5c-0.2,0.2-0.4,0.4-0.4,0.7c0,0.8-0.1,1.5-0.2,2.3c0,0.5-0.5,1-0.8,1.4
		c-0.1,0.2-0.2,0.5-0.4,0.5s-0.6,0-0.8,0.1l-1.5,1c-0.1,0.1-0.1,0.8-0.1,0.9c0,0.2,0,0.4-0.1,0.6l-1.2,1.6l-1.1,1.5
		c-0.1,0.1-1.3-0.4-1.5-0.5c-0.1,0.4,0.6,0.5,0.6,0.8c0.1,0.2,0.1,0.4,0.1,0.7c0,0.1-0.2,0.4-0.3,0.5c-0.2,0.4-0.6,0.4-1,0.5
		c-0.3,0.1-0.7,0.1-1,0c0.1,0.2,0.1,0.4,0,0.6s0,0.4-0.1,0.5c-0.4,0.3-0.6,0.1-1,0c0,0.2,0,0.5,0,0.7c0,0.1,0.3,0.4,0.2,0.5
		l-0.4,0.8c-0.1,0.3-0.2,0.2-0.4,0.3h-0.1c19.4,14.9,47.2,11.3,62.2-8.1c2.5-3.3,4.6-6.9,6.1-10.7c-0.3-0.3-0.6-0.6-1-1
		c-0.2-0.2-0.3-0.4-0.5-0.6c-0.1-0.3-0.2-0.6-0.4-0.9c-0.1-0.1-0.2,0-0.2-0.2l-0.1-0.5c-0.1-0.3-0.5-0.2-0.5-0.6s-0.4-0.4-0.5-0.5
		s-0.5-0.6-0.4-0.7s0.6,0.1,0.7,0.1c0.4,0,0.3,0.2,0.5,0.4c0.2,0.2,0.4,0.4,0.6,0.5c0.2,0.2,0.5,0.3,0.6,0.5s0.2,0.1,0.3,0.1
		s0.1,0.1,0.2,0.2s0.2,0,0.2,0.2s0.2,0.1,0.3,0.3s-0.1,0.2-0.1,0.3s0.2,0.1,0.3,0.2s0.1,0.3,0.1,0.4s0.2,0.1,0,0.3
		c0.1-0.1,0.3-0.2,0.4-0.1c0,0,0-0.1,0-0.1c0,0,0-0.1,0,0s-0.1,0-0.2,0s0.1-0.3,0.2-0.1c0,0,0-0.1,0-0.1c0,0,0.1,0,0.1,0
		c1.2-3.4,1.9-6.9,2.2-10.4l-0.4,0.1C389,263.8,389,263.8,389,264z M357.8,257.2c0.1-0.1,0.4,0,0.5,0s0.3-0.1,0.5-0.2
		c-0.1,0.1-0.3,0.2-0.2,0.4C358.5,257.4,357.7,257.6,357.8,257.2L357.8,257.2z M354.4,256.9c0.2,0.1,0.4,0.2,0.6,0.2
		c0.1,0,0.4,0,0.4,0.2c-0.4,0-0.7,0-1.1-0.1C354.4,257.1,354.4,257,354.4,256.9L354.4,256.9z M348.4,253.6c0.1-0.1,0.2-0.1,0.3-0.2
		c0.1-0.1,0-0.2,0.1-0.2c0,0.3,0,0.5-0.1,0.8C348.5,254,348.3,253.7,348.4,253.6L348.4,253.6z M348.2,254.3h0.1
		c0.1-0.1,0.6-0.3,0.5,0.1c0,0.2,0,0.4-0.1,0.6s-0.2,0.1-0.2,0.2s-0.1,0.2-0.2,0.1s0-0.2,0-0.4c0,0-0.1-0.1-0.1-0.1s0.1-0.2,0.1-0.2
		S348.2,254.5,348.2,254.3L348.2,254.3z M346.4,254.9l-0.2,0.2l-0.2-0.2C346.2,254.8,346.3,254.7,346.4,254.9L346.4,254.9z
		 M349.2,246.4c-0.1,0-0.3-0.2-0.3-0.3s0.2-0.1,0.3,0c0.1,0,0.2,0.1,0.2,0.1S349.3,246.4,349.2,246.4L349.2,246.4z M354.3,244.2
		c-0.2,0.1-0.4,0.2-0.6,0.4c0.1-0.1,0-0.3-0.1-0.4C353.9,244.1,354.1,244.1,354.3,244.2L354.3,244.2z M353.1,243.1L353.1,243.1
		c-0.1,0-0.1,0.1-0.1,0.1C352.7,243,353,242.8,353.1,243.1L353.1,243.1z M352.6,244.5c-0.1,0.1-0.2,0.2-0.1,0.4
		c-0.1,0.1-0.2,0.1-0.3,0.3C352.2,244.9,352.2,244.5,352.6,244.5L352.6,244.5z M349.4,246c0.1,0,0.1-0.1,0.1-0.2h0.1
		c-0.1,0.1,0,0.2,0.1,0.2c-0.3-0.5,0.6,0,0.1,0.1c0,0,0.1,0.1,0.1,0.1c-0.2,0-0.2,0.2-0.2,0.4c0-0.2,0-0.3-0.2-0.3
		S349.4,246.1,349.4,246z M364.4,237c-0.3-0.3-0.2-0.4,0.1-0.6c0.2,0,0.4,0.1,0.5,0.3C364.9,236.8,364.5,237.1,364.4,237L364.4,237z
		 M369.1,236.3c-0.2,0.1-0.7-0.3-0.8-0.4l0.2-0.1C368.6,235.8,369.2,236.1,369.1,236.3L369.1,236.3z M373.1,233.2
		c0.2,0,0.4,0.1,0.5,0.3l-0.7,0.1C372.9,233.3,372.8,233.2,373.1,233.2L373.1,233.2z M370.6,226.3c0.1-0.1,0.1-0.2,0.1-0.3
		s0.3,0,0.4,0c0,0.3,0.1,0.4-0.2,0.4l-0.8,0.2c-0.1,0-0.1-0.1-0.2-0.2C370.1,226.1,370.3,226.4,370.6,226.3L370.6,226.3z
		 M369.8,226.6c-0.1,0.2-0.5,0.5-0.7,0.2s-0.2-0.1-0.3-0.1s-0.1-0.1-0.2-0.3c0.3-0.1,0.5-0.2,0.8-0.3
		C369.6,226.1,370,226.4,369.8,226.6L369.8,226.6z M368.4,227.1c-0.2,0-1,0.3-1,0s0.9-0.3,1-0.3l0.3,0.2l-0.4,0.1
		C368.3,227,368.3,227,368.4,227.1L368.4,227.1z M368.9,227.2l-0.2,0.1l-0.2-0.1C368.6,227.1,368.8,227,368.9,227.2L368.9,227.2z
		 M367.9,225.5c0.3-0.2,0.4-0.1,0.8-0.1l-0.6,0.2l0.3,0.3l-0.5,0.2l-0.6-0.1C367.4,225.8,367.6,225.6,367.9,225.5L367.9,225.5z
		 M367.4,226.1c0.3,0,0.5,0.1,0.8,0.2c-0.2,0.2-0.5,0.3-0.8,0.3l-0.8-0.2C366.8,226.1,366.9,226.1,367.4,226.1L367.4,226.1z
		 M366.7,226.9l-0.3,0.2l-0.5-0.1C366.2,226.7,366.2,226.7,366.7,226.9L366.7,226.9z M366,234.1c0.1-0.2-0.1-0.3,0.1-0.4
		c0.1,0,0.5-0.3,0.5-0.4s-0.1-0.3,0-0.5l0.5-0.6c0.3-0.3,0.5-0.5,0.8-0.8c0.3-0.2,0.7-0.3,1-0.4c0.4-0.1,0.7-0.2,1.1-0.2
		c0.5-0.1,0.9-0.2,1.3-0.5c0.2-0.1,1.1-0.4,1.1,0.1s-1,0.6-1.2,0.7c-0.5,0.2-1,0.3-1.4,0.4c-0.4,0.2-0.7,0.4-1,0.6
		c-0.2,0.1-0.4,0.2-0.6,0.4c-0.1,0.2-0.3,0.4-0.5,0.6s-0.7,0.7-0.7,1.2s0.4,0.9,0.8,1.1c-0.3,0.2-0.9,0-1.2,0
		c-0.3,0-0.7-0.2-0.9-0.5c-0.2-0.2-0.3-0.2-0.2-0.6S365.9,234.3,366,234.1z M364.4,226.4c0.2,0,0.5,0,0.7-0.1
		c0.2-0.1,0.4,0.1,0.6,0.2l-1.1,0.3l0.1,0.3c-0.3,0-0.6,0-0.9-0.1l0.6-0.4l-0.7,0.2l-0.5-0.1C363.4,226.4,363.9,226.3,364.4,226.4
		L364.4,226.4z M350.9,238c0,0,0.1-0.1,0.1-0.1c-0.1,0,0-0.1-0.1-0.1c0.1,0,0.2-0.1,0.2-0.3C351.2,237.7,351.1,237.8,350.9,238z
		 M351.2,237.6c0-0.1,0-0.1,0-0.2c0,0,0.1,0,0.1,0c0-0.1,0.1-0.2,0.3-0.2L351.2,237.6z M354.1,235.5c0.2,0,0.1,0,0.3-0.1
		c0,0.1-0.1,0.2-0.2,0.3s-0.4,0.1-0.4-0.2C353.8,235.5,354,235.5,354.1,235.5L354.1,235.5z M353.7,235.8c0.2,0,0.3,0,0.5,0
		c0.1-0.1,0.1-0.2,0.3-0.2c-0.2,0.3-0.5,0.5-0.9,0.5C353.7,235.9,353.8,235.8,353.7,235.8L353.7,235.8z M353.3,235.9
		c0,0.1,0,0.2-0.1,0.1c0,0,0-0.1,0-0.1C353.2,235.9,353.2,235.9,353.3,235.9L353.3,235.9z M353.1,236.1l-0.3,0.2l-0.2,0.1
		C352.7,236.2,353,236,353.1,236.1L353.1,236.1z M352.9,236.1c0,0.1-0.1,0.1-0.2,0.1l-0.1-0.1C352.6,235.9,352.7,236,352.9,236.1
		L352.9,236.1z M352.5,236.2c0.2,0.1,0.1,0.1,0,0.2h-0.3C352.3,236.2,352.4,236.2,352.5,236.2L352.5,236.2z M351.9,236.4
		c0.1,0,0.2-0.1,0.3,0.1c-0.1,0.1-0.5,0.5-0.5,0.2S351.8,236.5,351.9,236.4L351.9,236.4z M351.8,236.9l0.3-0.3l-0.5,0.5
		C351.6,236.9,351.7,236.9,351.8,236.9L351.8,236.9z M351.6,237.2c-0.1,0-0.2,0-0.3,0.1c-0.1,0.1-0.2,0.1-0.3,0.1
		c0.1-0.1,0.1-0.1,0.1-0.2h0.1c0-0.1,0-0.2,0.1-0.2c0,0.1,0,0.2,0,0.3c0.1-0.1,0.1-0.2,0.2-0.3S351.6,237,351.6,237.2L351.6,237.2z
		 M351.5,236.7c0,0,0,0.1,0,0.1l-0.2,0.2C351.1,236.7,351.3,236.7,351.5,236.7L351.5,236.7z M351,236.8c0.1,0.1,0.2,0.2,0,0.3h-0.2
		L351,236.8z M351,237.3c-0.1,0.1-0.2,0.1-0.3,0.2C350.7,237.2,350.9,237.2,351,237.3L351,237.3z M350.4,237.4
		c0.1-0.1,0.1-0.1,0.2,0c0,0.1-0.1,0.2-0.2,0.1c0,0,0,0,0,0C350.4,237.5,350.4,237.4,350.4,237.4L350.4,237.4z M343.8,243.9
		L343.8,243.9c0,0,0,0,0.1,0C343.8,243.9,343.8,243.9,343.8,243.9C343.6,243.8,343.7,243.9,343.8,243.9h-0.2
		C343.6,243.9,343.7,243.7,343.8,243.9L343.8,243.9z M342.7,244.9h0.1c0-0.1,0-0.1-0.1-0.2c0.1,0,0.2,0,0.3,0
		c-0.1,0-0.1-0.1-0.1-0.2c0,0,0-0.1,0-0.1h0.1c-0.1-0.1,0.1-0.3,0.1-0.1c0.1-0.1,0,0,0.1,0c0.2-0.1,0.4-0.1,0.6-0.1
		c0,0.3-0.4,0.3-0.4,0.5h-0.1c0.1,0,0.1,0,0.2,0.1c-0.1,0-0.1,0.1-0.1,0.2l0,0c0.1-0.2,0.8-0.2,0.9-0.1s-0.5,0.6-0.3,0.9
		c-0.1,0-0.2,0-0.3,0.1c0.4,0.1,0.6,0.1,0.8,0.6s0.5,0.4,0.6,0.9c-0.1-0.1-0.2-0.1-0.3-0.1c0.2,0,0.5,0.3,0.3,0.5
		c0.1,0.1,0.7-0.2,0.6,0.2s-0.2,0.4-0.5,0.6c0.1,0,0.6,0.1,0.3,0.3c-0.2,0.1-0.5,0.1-0.7,0.2c-0.1,0-0.2-0.1-0.3-0.1
		s-0.3,0.1-0.4,0.2c-0.3,0.2-0.4-0.2-0.5,0.2c-0.3-0.2-0.5,0.2-0.8,0.1c0.1-0.1,0.4-0.3,0.4-0.4s0.4-0.2,0.6-0.2
		c0-0.1,0.1-0.2,0.2-0.3l-0.4,0.1c0,0-0.2-0.1-0.3-0.1l0.1-0.1c-0.2-0.1-0.3,0.2-0.5,0c0,0,0-0.1,0-0.1c0.1,0,0.4-0.1,0.4-0.2
		s0-0.2,0-0.4l-0.3,0.1c0.1-0.1,0.2-0.2,0.1-0.3c0.1,0,0.2,0,0.2,0.1c0,0,0,0,0,0c0.1-0.1,0.2,0,0.4,0v-0.1c0.1,0,0.1,0,0.1,0.1l0,0
		c-0.1-0.2-0.1-0.4,0-0.5c-0.2,0.2-0.4-0.4-0.1-0.5c-0.2,0-0.4,0.2-0.5,0.1c0,0.2-0.1,0.1-0.2,0s0,0.1,0,0.1c-0.2-0.2,0-0.2,0-0.4
		s0-0.1,0-0.3s0-0.2,0.1-0.2c0,0,0-0.1,0-0.1c-0.1,0.3-0.3,0.1-0.1,0c-0.2,0.1-0.2,0.2-0.2,0.4s0,0.4-0.1,0.2s0-0.1,0-0.2
		s0-0.1,0-0.3s0.1-0.4,0.2-0.4c0,0,0,0,0-0.1c-0.1,0.1-0.2,0.2-0.3,0.1c0.2,0.1,0,0.2-0.1,0.1c0.2,0,0.2-0.1,0-0.1
		c0.1-0.1,0.2-0.1,0.2-0.2c0-0.1,0.1-0.2,0.1-0.3h-0.1h0.1C342.7,244.9,342.6,244.9,342.7,244.9L342.7,244.9z M342.9,246
		c0.1,0,0.1,0.1,0.1,0.2C342.9,246.1,342.8,246,342.9,246L342.9,246z M343.1,247c0-0.1,0.1-0.2,0.1-0.2
		C343.3,246.9,343.3,247,343.1,247C343.2,247,343.2,247,343.1,247L343.1,247z M342.6,246c-0.1-0.1,0-0.2,0.1-0.2
		C342.7,245.8,342.6,245.8,342.6,246L342.6,246z M342.4,246c0,0,0.1-0.1,0.1-0.1c0,0.1,0,0.2-0.1,0.2S342.5,245.9,342.4,246
		L342.4,246z M342.4,245.2L342.4,245.2C342.5,245.2,342.5,245.3,342.4,245.2L342.4,245.2z M342.7,245c-0.1,0.2-0.3,0-0.5-0.2
		c0,0,0-0.1,0-0.1l0.1,0.1c0,0,0-0.1,0-0.1s0.1,0,0.1,0.1S342.6,245,342.7,245L342.7,245z M342.5,244.3c0.1,0,0.1,0.2-0.1,0.2
		l0.1,0.1c-0.1,0-0.2,0.1-0.3,0.2v-0.1h0.1C342,244.4,342.4,244.2,342.5,244.3L342.5,244.3z M342.2,244.8c-0.1,0.1-0.1,0.2-0.1,0.3
		c-0.1-0.1,0-0.2-0.1-0.3s0,0,0-0.1C342.1,244.8,342.1,244.8,342.2,244.8L342.2,244.8z M340.8,248.1c0.1,0,0.2-0.1,0.3-0.2
		c0.1-0.1,0.3-0.1,0.4-0.1c-0.2,0-0.3,0-0.5,0.1c0.1-0.1,0.2-0.3,0.4-0.4c-0.2,0-0.3-0.1-0.5-0.1c0-0.1,0.2-0.1,0.2-0.2
		s-0.1-0.2,0-0.3s0.2,0,0.3,0s0.2-0.1,0.3-0.1c-0.1,0-0.2-0.1-0.3-0.1c0.1-0.2,0.4-0.5,0.7-0.4l-0.1,0.1c0.1,0,0.3-0.1,0.4,0
		s0.1,0.3,0.3,0.3c0,0.3-0.1,0.3-0.4,0.5c0.1,0.1,0.2,0.3,0.1,0.5l-0.1,0.4c0,0.1-0.1,0-0.2,0.1c-0.4,0.1-0.9,0.7-1.2,0.4
		c0,0,0.1-0.1,0.1-0.1l-0.3-0.1l0.2-0.1C341,248.1,340.9,248.1,340.8,248.1L340.8,248.1z M314,233.7c-0.1,0-0.6,0.2-0.7,0.1
		c-0.1,0-0.2-0.1-0.3-0.2c-0.1-0.1,0-0.2-0.1-0.3c-0.1-0.1-0.2-0.2-0.1-0.4c0-0.1,0.1-0.1,0.2-0.2l0.5,0.2c0.1,0.1,0.3,0,0.4,0
		c0.3,0.1,0.6,0.4,0.8,0.7C314.4,233.7,314.2,233.7,314,233.7z M315.2,237.6c0.1-0.1,0.3-0.1,0.4,0c0.1,0,0.1,0.1,0.1,0.2
		C315.7,237.8,315.1,237.8,315.2,237.6L315.2,237.6z M315,237.5c-0.1,0.2,0,0.4-0.1,0.6s-0.5,0-0.7-0.1
		C313.9,237.7,314.8,237,315,237.5L315,237.5z M311.6,241.8c0,0-0.1-0.1-0.1-0.2s0-0.1,0.1-0.2c0.1-0.1,0.3-0.2,0.5-0.2h0.2
		C312.3,241.5,312,241.8,311.6,241.8L311.6,241.8z M312.7,240.9c-0.2-0.1-0.9-0.1-0.8-0.5c-0.2,0.1-0.2,0.3-0.4,0.4
		s-0.3,0.3-0.4,0.4s-0.1-0.4-0.2-0.4c-0.2,0-0.4,0.1-0.6,0.1c0.1-0.1,0.4-0.3,0.4-0.4s-0.1-0.2,0-0.3s0-0.2,0.1-0.4
		c0.1-0.3,0.1-0.5,0.3-0.6s0.3,0.3,0,0.3c0,0.1,0,0.1,0.1,0.2c0.1-0.2,0.2-0.1,0.3,0s0.3,0.1,0.4,0.1s0.9,0.5,0.6,0.7
		c0.2-0.1,0.5,0,0.6,0.2L312.7,240.9z M313.1,242.2c-0.1-0.1-0.2-0.2-0.2-0.3s0.2-0.3,0.3-0.2C313.6,241.7,313.3,242.1,313.1,242.2
		L313.1,242.2z M319.8,251.5c-0.2-0.1-0.6-0.2-0.4-0.5l0.1,0.3l0.8,0.1C320.1,251.5,320.1,251.6,319.8,251.5L319.8,251.5z
		 M319.3,249.4c0.4,0,0.8,0.1,1.1,0.4C320.1,250.1,319.5,249.6,319.3,249.4L319.3,249.4z M314.2,265.4c-0.2-0.1-0.3-0.1-0.5-0.2
		c0.2-0.2,0.5,0,0.7,0c0,0,0.1,0.1,0.1,0.1C314.4,265.3,314.3,265.5,314.2,265.4L314.2,265.4z M314.9,264.4c-0.3,0-0.6,0-0.9,0
		c0,0,0.2-0.2,0.2-0.2s-0.2-0.1-0.3-0.1c-0.2-0.1-0.2-0.4-0.5-0.4s-0.5-0.2-0.7-0.2s-0.1-0.1-0.3-0.1c-0.1,0-0.2,0-0.3-0.1
		c0.1,0,0.1,0,0.2,0c-0.4-0.4-0.9,0.5-1.3,0.3c0.2-0.1,0.3-0.4,0.5-0.5c0.3-0.1,0.6-0.1,0.9-0.1c0.6,0.1,1.1,0.3,1.5,0.7v-0.1
		c0.2,0.2,0.4,0.3,0.6,0.3c0.1,0,0.1,0.2,0.2,0.2c0.1,0,0.3,0.1,0.4,0.2L314.9,264.4z M317.4,265.1c-0.2,0-0.4,0.1-0.6,0.1
		c0,0-0.1-0.1-0.2,0s-0.1,0.3-0.1,0.3s-0.1-0.2-0.2-0.3s-0.2,0-0.3,0c-0.3,0-0.4,0.1-0.7-0.1c-0.1-0.3,0.6,0,0.8-0.1
		c-0.2-0.3-0.1-0.4-0.5-0.5c0.3-0.1,0.4,0,0.7,0c0.1,0,0.2,0,0.3-0.1c0.1,0,0.3,0.1,0.4,0.1s0.1-0.1,0.2,0.1s0.1,0.2,0.3,0.2
		s0.3,0.1,0.2,0.2S317.6,265.1,317.4,265.1L317.4,265.1z M318.2,265.2c-0.1-0.3,0.3-0.2,0.5-0.2l0.1,0.1
		C318.7,265.4,318.3,265.5,318.2,265.2L318.2,265.2z M323.9,251c-0.1,0.2-0.1,0.2-0.3,0.1s-0.2-0.1-0.1-0.4c-0.4,0-0.4,0.3-0.8,0.3
		c0-0.1,0.1-0.3,0.2-0.3c-0.3-0.2-0.7-0.2-1.1-0.1c-0.1,0-0.4,0.1-0.5-0.1c0-0.2,0-0.3,0-0.5c0.3-0.3,0.6-0.7,0.7-1.1
		c0.1-0.3,0.5-0.7,0.8-0.6c0,0.1-0.1,0.2-0.2,0.4s-0.3,0.2-0.3,0.4c0,0.1,0.1,0.1,0.2,0.1s0.1,0.2,0.1,0.3s0.6-0.2,0.7-0.1
		s0.2,0.2,0.1,0.4c0,0.1,0.2,0.1,0.2,0.3S324.1,250.9,323.9,251L323.9,251z M333.1,237.3l-1,0.3c-0.2,0.1-0.3,0.2-0.4,0.4
		c-0.2,0.3-0.3,0.5-0.6,0.7c-0.2,0.1-0.5,0.2-0.7,0.2l-1,0.3c-0.3,0.1-0.2,0.1-0.4,0.4c-0.2,0.5-0.4,1-0.5,1.6s-0.4,1.3-0.6,2
		c0,0.1-0.5,0.1-0.6,0l-1-0.4c-0.2-0.1-0.5-0.1-0.6-0.3c-0.2-0.3-0.4-0.7-0.6-1c-0.4-0.5-0.7-1.1-1-1.7c-0.1-0.4-0.3-0.8-0.4-1.2
		c0-0.3,0-0.7,0.1-1c0,0,0-0.3,0-0.3l0.6-0.2c0.1,0,0.3-0.1,0.3-0.1s0-0.4,0.1-0.6l-0.8,0.2c-0.4,0.1-0.4,0.1-0.6-0.2
		s-0.1-0.4,0-0.8s-0.2-0.5-0.4-0.7s0-0.4,0.1-0.7s0.1-0.4-0.1-0.7c-0.2-0.6-0.5-1.1-0.8-1.6c-0.1-0.1-0.4-0.6-0.5-0.6l-0.8-0.1
		c-0.5-0.1-1.1-0.2-1.6-0.1l-0.9,0.1c-0.1,0-0.5-0.3-0.7-0.4l-0.8-0.5c-0.2-0.2-0.4-0.4-0.5-0.7c0-0.1-0.3-0.3-0.2-0.4
		s0-0.4,0.1-0.4l1.4-0.4c0.3-0.1,0.7-0.2,1-0.2c0.3,0,0.3,0,0.4-0.2l0.3-0.7c-0.4,0-0.8,0-1-0.3l2.4-1.2l1-0.5
		c0.3-0.1,0.6-0.1,0.9-0.1l1.7-0.2c0.3-0.1,0.6-0.1,0.9-0.1c0.8,0.2,1.6,0.4,2.4,0.7c-0.3-0.4-0.7-0.8-1.2-1l1.4-0.6
		c0.3-0.1,0.7,0,1.1,0.1l0.8,0.1c0.2,0,0.2-0.3,0.4-0.4c0.2,0,0.3,0,0.5,0l1-0.1c1,0,1.9,0,2.9,0.2c0.8,0.2,1.6,0.5,2.4,0.9
		l-1.2,0.4c0.3,0.2,0.5,0.1,0.9,0.2s-0.1,0.8-0.2,0.9c0.3-0.1,0.8-0.5,1-0.4l0.7,0.1c0.2,0,0.3-0.2,0.4-0.3s0.8-0.2,1.1-0.1
		c0.4,0.1,0.8,0.3,1.2,0.4l-1,0.6c-0.3,0.1-0.6,0.2-0.9,0.2l0.2,0.2c-0.2,0.3-0.5,0.5-0.8,0.7c-0.3,0.1-0.5,0.3-0.8,0.6
		c-0.1,0.3-0.5,0.6-0.4,1s0.4,0.5,0.7,0.7l-1,0.9l0.7,0.4c0.2,0.1,0.2,0.5,0.2,0.7s0.2,0.6,0.1,0.7l-0.7,0.7
		c-0.3,0.4-0.5,0.9-0.6,1.4c-0.1,0.2,0.1,0.6,0.2,0.8c0.1,0.4,0.1,0.4-0.2,0.7l-1.6,1C334,237.2,333.6,237.3,333.1,237.3
		L333.1,237.3z M337.8,240.7c-0.2,0.1-0.4,0.1-0.6,0c-0.1,0-0.2,0-0.3-0.1c0,0-0.1-0.2-0.2-0.2l-0.7,0.1c-0.1-0.2,0.3-0.2,0.4-0.4
		h-0.1c0,0,0-0.1,0-0.1s-0.2-0.1-0.1-0.2c-0.2,0-0.7,0.1-0.7-0.1c0.3,0,0.6-0.1,0.9-0.1c0,0,0-0.1,0-0.1c-0.1,0.1-0.2,0.1-0.3,0
		l0.3-0.2c-0.1,0-0.4-0.1-0.5-0.1s-0.3,0.1-0.6,0c0.1,0,0.1-0.1,0.2-0.1v-0.1c0.1,0.1,0.2,0.1,0.2,0s-0.2-0.1-0.1-0.3
		s0.5,0.3,0.5-0.1c-0.1,0-0.2,0-0.3-0.1c0.3,0,0.3,0,0.5,0.2c0,0,0.2,0.1,0.2,0.2c0,0.1,0,0.1-0.1,0.1c0,0,0,0-0.1,0
		c0.1,0.1,0.2,0.3,0.2,0.4c0-0.1,0.1-0.3,0.1-0.4s0.3,0,0.1-0.3c0.2,0,0.3,0.2,0.4,0.3c0-0.1,0-0.3,0.2-0.3s0.2,0.1,0.4,0.3
		c0-0.1,0-0.2,0-0.3c0.3,0.1,0.4,0,0.7,0c-0.2-0.5,0.9-0.1,0.7,0.3c0.2-0.1,0.3,0,0.4,0.1s0,0.2,0.1,0.4c-0.1,0.1-0.2,0.3-0.4,0.2
		c0,0.2-0.1,0.4-0.4,0.4s-0.4,0.2-0.6,0.3H338C337.9,240.7,337.9,240.8,337.8,240.7L337.8,240.7z M365,280.4l-0.2-0.2
		c0.1,0.5,0,0.9-0.2,1.4c-0.2,0.8-0.5,1.6-0.7,2.4c-0.1,0.2-0.1,0.4-0.2,0.6c0,0-0.5,0.2-0.6,0.2s-0.6-0.1-0.6-0.2
		c0-0.3-0.1-0.6-0.2-0.9c-0.1-0.3-0.1-0.6,0-0.8c0.1-0.3,0.4-0.5,0.4-0.8c0-0.3-0.1-0.6-0.2-0.9c0-0.1,0.1-0.7,0.2-0.7
		c0.3-0.1,0.6-0.2,0.8-0.3c0.2-0.1,0.3-0.3,0.5-0.6s0.4-0.3,0.4-0.7s0.4,0,0.5,0.2l0,0C365.1,279.5,365.1,280,365,280.4z
		 M389.3,264.6c-0.1,0-0.2,0.2-0.2,0.3s-0.2,0.1-0.3,0.2s0,0.1-0.1,0.1c-0.1,0-0.2,0-0.2-0.1c-0.2-0.1-0.2-0.2-0.2-0.4
		c0.2-0.2,0.4-0.5,0.8-0.3c0,0,0-0.1,0-0.1C389.2,264.4,389.3,264.5,389.3,264.6L389.3,264.6z"/>
	<path class="st5" d="M366.6,254c-0.1-0.1-0.1-0.3-0.1-0.3c-0.3-0.2-0.4,0.3-0.4,0.5c-0.2-0.2-0.2-0.5-0.1-0.8
		c-0.1-0.1-0.4-0.1-0.5-0.2s-0.1-0.4-0.1-0.6s-0.5-0.2-0.2-0.2s0.2,0.2,0.5,0c-0.1-0.1-0.3-0.1-0.1-0.3c0.1-0.1,0.2-0.1,0.3-0.1
		c0.3,0,0.5,0.1,0.8,0.1c-0.2,0.1-0.3,0.2-0.3,0.4c0.1-0.2,0.2-0.3,0.5-0.4c-0.1-0.4-0.2-0.1-0.5-0.2c0-0.2,0.2-0.4,0.1-0.5
		s-0.2-0.4-0.3-0.3s-0.3,0-0.5-0.1s-0.3,0.2-0.5,0.2c-0.3,0.1-0.3-0.1-0.4,0.3c0,0.1-0.4,0.2-0.5,0.2s-0.2,0.1-0.3,0.4
		s-0.2,0.3-0.3,0.3c0.2,0,0.4,0.2,0.4,0.4c0,0.3,0,0.6,0.2,0.8c0.1,0.2,0.3,0.2,0.4,0.4c0.1,0.2,0.3,0.4,0.5,0.5
		c-0.2,0.1-0.3,0.1-0.3,0.3c0,0.2-0.1,0.3-0.2,0.5c0,0.2,0,0.3,0,0.5c0,0.2,0.1,0.2,0.3,0.2s0.2,0.2,0.3,0.2l0.5,0.2
		c0.3,0,0.6,0,0.9-0.1c0-0.3,0-0.6,0-0.8c0.1-0.4-0.1-0.2-0.3-0.5h0.2c0-0.1,0-0.2-0.1-0.3s-0.2,0-0.2,0s0-0.3,0-0.4
		c0.3,0,0.5,0,0.8,0C366.9,254.2,366.7,254.1,366.6,254z"/>
	<path class="st6" d="M307.3,236.9l0.1-0.3C307.3,236.7,307.3,236.8,307.3,236.9z"/>
	<path class="st6" d="M309.3,233.8l0.4-0.5C309.5,233.4,309.4,233.6,309.3,233.8z"/>
	<path class="st6" d="M350.9,237.7c0,0,0,0.1,0.1,0.1c0,0.1,0,0.1-0.1,0.1c0.2-0.2,0.3-0.2,0.2-0.5
		C351.1,237.7,351,237.7,350.9,237.7z"/>
	<path class="st6" d="M342.6,245.9c0-0.1,0.1-0.1,0.1-0.2C342.6,245.7,342.5,245.7,342.6,245.9z"/>
	<path class="st6" d="M343.2,246.7c-0.1,0-0.1,0.1-0.1,0.2h0.1C343.2,246.9,343.3,246.8,343.2,246.7z"/>
	<path class="st6" d="M341.1,248.3c0,0-0.1,0.1-0.1,0.1c0.4,0.3,0.9-0.3,1.2-0.4c0.1,0,0.2,0.1,0.2-0.1l0.1-0.4c0-0.2,0-0.4-0.1-0.5
		c0.2-0.2,0.3-0.2,0.4-0.5c-0.1,0-0.2-0.2-0.3-0.3s-0.3,0-0.4,0l0.1-0.1c-0.3-0.2-0.6,0.1-0.7,0.4c0.1,0,0.2,0.1,0.3,0.1
		c-0.1,0.1-0.2,0.2-0.3,0.1s-0.2-0.1-0.3,0s-0.1,0.1,0,0.3s-0.1,0.2-0.2,0.2c0.1,0.1,0.3,0.1,0.5,0.1c-0.1,0.1-0.3,0.3-0.4,0.4
		c0.2-0.1,0.3-0.1,0.5-0.1c-0.1,0-0.3,0-0.4,0.1c-0.1,0.1-0.2,0.1-0.3,0.2c0.1,0,0.1,0,0.2,0.1l-0.2,0.1L341.1,248.3z"/>
	<path class="st6" d="M342.8,244.9L342.8,244.9L342.8,244.9c0,0.1-0.1,0.2-0.1,0.3c0,0.1-0.1,0.1-0.2,0.2c0.2,0,0.2,0.1,0,0.1
		c0.1,0.1,0.4,0,0.1-0.1c0.1,0.1,0.2,0,0.3-0.1c0,0,0,0,0,0.1c-0.2,0.1-0.2,0.3-0.2,0.4s0,0.1,0,0.3s-0.1,0.1,0,0.2s0.1-0.1,0.1-0.2
		s0-0.3,0.2-0.4c-0.2,0.2,0,0.3,0.1,0c0,0,0,0.1,0,0.1c-0.1,0-0.1,0-0.1,0.2s0.1,0.1,0,0.3s-0.2,0.2,0,0.4c0,0,0-0.1,0-0.1
		s0.2,0.2,0.2,0c0.1,0.1,0.3-0.1,0.5-0.1c-0.4,0.1-0.2,0.7,0.1,0.5c-0.1,0.2-0.1,0.4,0,0.5l0,0c-0.1-0.1,0,0-0.1-0.1v0.1
		c-0.1,0-0.2-0.1-0.4,0c0-0.1-0.1-0.1-0.2-0.1c0,0,0,0,0,0c0.1,0.1,0.1,0.2-0.1,0.3l0.3-0.1c0,0.2,0.1,0.2,0,0.4s-0.3,0.1-0.4,0.2
		c0,0,0,0.1,0,0.1c0.1,0.2,0.3-0.1,0.5,0l-0.1,0.1c0.1,0,0.3,0.1,0.3,0.1l0.4-0.1c-0.1,0.1-0.2,0.2-0.2,0.3c-0.2,0-0.5-0.1-0.6,0.2
		s-0.3,0.3-0.4,0.4c0.2,0.2,0.5-0.3,0.8-0.1c0.2-0.4,0.2-0.1,0.5-0.2c0.1,0,0.3-0.2,0.4-0.2s0.2,0.1,0.3,0.1c0.2,0,0.5-0.1,0.7-0.2
		c0.4-0.1-0.2-0.2-0.3-0.3c0.3-0.2,0.5-0.3,0.5-0.6s-0.6-0.1-0.6-0.2c0.2-0.2-0.1-0.5-0.3-0.5c0.1-0.1,0.2,0,0.3,0.1
		c-0.1-0.5-0.5-0.5-0.6-0.9s-0.4-0.5-0.8-0.6c0.1-0.1,0.2-0.1,0.3-0.1c-0.1-0.3,0.5-0.6,0.3-0.9s-0.8-0.1-0.9,0.1l0,0
		c0.1-0.1,0.1-0.1,0.1-0.2c-0.1,0-0.1,0-0.2-0.1h0.1c0-0.2,0.4-0.2,0.4-0.5c-0.2,0-0.4,0-0.6,0.1c-0.1,0,0-0.1-0.1,0
		c0-0.2-0.2,0-0.1,0.1h-0.1c0,0,0,0.1,0,0.1c0,0.1,0.1,0.1,0.1,0.2c-0.1,0-0.2,0-0.3,0c0,0.1,0.1,0.1,0.1,0.2h-0.1
		C342.6,244.9,342.7,244.9,342.8,244.9z"/>
	<path class="st6" d="M315.8,227.7c0-0.1-0.1-0.2-0.1-0.3c0.2,0.1,0.4,0.2,0.6,0.1c0.2-0.1,0.4-0.2,0.5-0.4h-0.5l0.9-0.2
		c0.3-0.1,0.5-0.3,0.8-0.5c0.3-0.2,1.3-0.4,1.3-0.8l-2.2,0.4l1.3-0.4l-0.8-0.1l1.7-0.1c0.4,0,0.9-0.5,1.3-0.7
		c-0.5-0.2-1-0.3-1.5-0.4c-0.2,0-0.4,0-0.7,0c-1.4,1.1-2.8,2.3-4.1,3.5C314.8,227.9,315.3,227.8,315.8,227.7z"/>
	<path class="st6" d="M342.5,245.1L342.5,245.1L342.5,245.1C342.4,245.1,342.5,245.1,342.5,245.1z"/>
	<path class="st6" d="M342.2,244.6L342.2,244.6c0.1,0,0.1-0.1,0.3-0.1l-0.1-0.1c0.2,0,0.1-0.2,0.1-0.2S342,244.4,342.2,244.6
		L342.2,244.6z"/>
	<path class="st6" d="M342,244.8c0,0.1-0.1,0.2,0.1,0.3c0-0.1,0-0.2,0.1-0.3C342.1,244.7,342.1,244.7,342,244.8
		C342,244.8,342,244.8,342,244.8z"/>
	<path class="st6" d="M342.5,244.7c0,0,0,0.1,0,0.1l-0.1-0.1c0,0,0,0.1,0,0.1c0.1,0.1,0.3,0.4,0.5,0.2c-0.1,0-0.2,0-0.2-0.2
		S342.5,244.7,342.5,244.7z"/>
	<path class="st6" d="M342.5,246c0.1,0,0.1-0.1,0.1-0.2c-0.1,0-0.1,0.1-0.1,0.1C342.5,245.9,342.5,246,342.5,246z"/>
	<path class="st6" d="M351.3,237.1c0-0.1,0-0.2,0-0.3c-0.1,0-0.2,0.1-0.1,0.2h-0.1c0,0.1,0,0.1-0.1,0.2
		C351.2,237.3,351.2,237.4,351.3,237.1c0.1,0,0.2-0.1,0.3,0c0-0.1,0-0.3-0.1-0.2S351.5,237.1,351.3,237.1z"/>
	<path class="st6" d="M352.2,236.5c-0.1-0.2-0.2-0.1-0.3-0.1s-0.2,0-0.2,0.2S352.1,236.5,352.2,236.5z"/>
	<path class="st6" d="M352.1,236.6l-0.3,0.3c-0.1,0-0.2,0.1-0.1,0.2L352.1,236.6z"/>
	<path class="st6" d="M352.5,236.1c-0.1,0.1-0.1,0.1-0.3,0.2h0.3C352.6,236.2,352.7,236.2,352.5,236.1z"/>
	<path class="st6" d="M351.4,236.7c0,0,0-0.1,0-0.1c-0.1,0.1-0.3,0.1-0.3,0.3L351.4,236.7z"/>
	<path class="st6" d="M343.7,243.9c0.1,0,0.1,0,0.2,0C343.9,243.9,343.8,243.9,343.7,243.9L343.7,243.9c0-0.1-0.1,0-0.1,0.1l0.1,0.1
		C343.7,244.1,343.7,244,343.7,243.9z"/>
	<path class="st6" d="M350.6,237.4c-0.1-0.1-0.1-0.1-0.2,0c0,0,0,0.1,0,0.1C350.5,237.5,350.6,237.5,350.6,237.4z"/>
	<path class="st6" d="M350.7,237.4c0.1-0.1,0.2-0.1,0.3-0.2C350.9,237.2,350.7,237.2,350.7,237.4z"/>
	<path class="st6" d="M351,236.8l-0.2,0.3h0.2C351.2,237,351.1,236.9,351,236.8z"/>
	<path class="st6" d="M318.2,265.3c0.1,0.2,0.5,0,0.6-0.1l-0.1-0.1C318.6,265.1,318.1,265,318.2,265.3z"/>
	<path class="st6" d="M352.9,236c-0.1-0.1-0.3-0.1-0.3,0.1l0.1,0.1C352.7,236.1,352.8,236.1,352.9,236z"/>
	<path class="st6" d="M336.3,235.4c0-0.2-0.2-0.6-0.2-0.8c0.1-0.5,0.3-1,0.6-1.4l0.7-0.7c0.1-0.1-0.1-0.6-0.1-0.7s0-0.6-0.2-0.7
		l-0.7-0.4l1-0.9c-0.3-0.2-0.5-0.3-0.7-0.7s0.3-0.7,0.4-1c0.2-0.2,0.5-0.4,0.8-0.6c0.3-0.2,0.5-0.4,0.8-0.7l-0.2-0.2
		c0.3,0,0.6-0.1,0.9-0.2l1-0.6c-0.4-0.2-0.8-0.3-1.2-0.4c-0.3-0.1-0.9-0.1-1.1,0.1s-0.2,0.4-0.4,0.3l-0.7-0.1
		c-0.3-0.1-0.8,0.3-1,0.4c0-0.1,0.5-0.9,0.2-0.9s-0.6,0-0.9-0.2l1.2-0.4c-0.8-0.4-1.6-0.7-2.4-0.9c-0.9-0.2-1.9-0.3-2.9-0.2l-1,0.1
		c-0.2,0-0.3,0-0.5,0c-0.2,0.1-0.2,0.5-0.4,0.4l-0.8-0.1c-0.3-0.1-0.7-0.2-1.1-0.1l-1.4,0.6c0.5,0.2,0.9,0.6,1.2,1
		c-0.8-0.3-1.6-0.5-2.4-0.7c-0.3,0-0.6,0-0.9,0.1l-1.7,0.2c-0.3,0-0.6,0-0.9,0.1l-1,0.5l-2.4,1.2c0.3,0.3,0.6,0.3,1,0.3l-0.3,0.7
		c-0.1,0.2-0.1,0.2-0.4,0.2c-0.3,0-0.7,0.1-1,0.2l-1.4,0.4c-0.1,0-0.1,0.3-0.1,0.4s0.2,0.3,0.2,0.4c0.1,0.3,0.3,0.5,0.5,0.7l0.8,0.5
		c0.1,0.1,0.5,0.4,0.7,0.4l0.9-0.1c0.5,0,1.1,0,1.6,0.1l0.8,0.1c0.1,0,0.4,0.5,0.5,0.6c0.3,0.5,0.6,1.1,0.8,1.6
		c0.1,0.3,0.2,0.3,0.1,0.7s-0.3,0.5-0.1,0.7s0.5,0.4,0.4,0.7s-0.2,0.5,0,0.8s0.3,0.3,0.6,0.2l0.8-0.2c0,0.2,0,0.4-0.1,0.6
		s-0.3,0.1-0.3,0.1l-0.6,0.2c0,0,0,0.3,0,0.3c-0.1,0.3-0.1,0.7-0.1,1c0.1,0.4,0.3,0.8,0.4,1.2c0.3,0.6,0.6,1.2,1,1.7
		c0.2,0.3,0.4,0.7,0.6,1c0.1,0.2,0.4,0.2,0.6,0.3l1,0.4c0.1,0,0.6,0,0.6,0c0.2-0.7,0.4-1.3,0.6-2s0.4-1,0.5-1.6
		c0.1-0.3,0.1-0.3,0.4-0.4l1-0.3c0.2,0,0.5-0.1,0.7-0.2c0.2-0.2,0.4-0.5,0.6-0.7c0.1-0.2,0.2-0.3,0.4-0.4l1-0.3
		c0.5-0.1,1-0.2,1.5-0.4l1.6-1C336.4,235.7,336.4,235.7,336.3,235.4z"/>
	<path class="st6" d="M323.6,250c0-0.2,0-0.2-0.1-0.4s-0.6,0-0.7,0.1s0-0.3-0.1-0.3s-0.2-0.1-0.2-0.1c0-0.3,0.1-0.3,0.3-0.4
		s0.1-0.2,0.2-0.4c-0.3-0.1-0.7,0.3-0.8,0.6c-0.2,0.4-0.4,0.8-0.7,1.1c-0.1,0.2-0.1,0.3,0,0.5c0.1,0.1,0.4,0.1,0.5,0.1
		c0.4-0.1,0.8,0,1.1,0.1c-0.1,0-0.2,0.1-0.2,0.3c0.3-0.1,0.4-0.3,0.8-0.3c0,0.3-0.1,0.3,0.1,0.4s0.2,0.1,0.3-0.1s0-0.6-0.1-0.8
		S323.6,250,323.6,250z"/>
	<path class="st6" d="M317.5,264.9c-0.2,0-0.2,0-0.3-0.2s-0.1,0-0.2-0.1s-0.3-0.1-0.4-0.1c-0.1,0-0.2,0.1-0.3,0.1
		c-0.3,0-0.4-0.1-0.7,0c0.3,0.1,0.3,0.2,0.5,0.5c-0.2,0.1-0.9-0.2-0.8,0.1c0.2,0.2,0.4,0,0.7,0.1c0.1,0,0.2,0,0.3,0s0,0.3,0.2,0.3
		s0.1-0.3,0.1-0.3s0.1,0,0.2,0c0.2,0,0.4-0.1,0.6-0.1s0.1,0.2,0.3,0S317.6,264.9,317.5,264.9z"/>
	<path class="st6" d="M364.9,279.1c-0.1-0.1-0.4-0.7-0.5-0.2s-0.1,0.4-0.4,0.7s-0.3,0.4-0.5,0.6c-0.2,0.1-0.5,0.2-0.8,0.3
		c-0.1,0-0.2,0.5-0.2,0.7c0.1,0.3,0.2,0.6,0.2,0.9c0,0.3-0.3,0.5-0.4,0.8c-0.1,0.3-0.1,0.6,0,0.8c0.1,0.3,0.1,0.6,0.2,0.9
		c0,0.1,0.5,0.3,0.6,0.2s0.6-0.2,0.6-0.2c0.1-0.2,0.1-0.4,0.2-0.6c0.2-0.8,0.5-1.6,0.7-2.4c0.2-0.4,0.2-0.9,0.2-1.4l0.2,0.2
		C365.1,280,365.1,279.5,364.9,279.1L364.9,279.1z"/>
	<path class="st6" d="M389.1,264.5c-0.4-0.2-0.5,0.1-0.8,0.3c0,0.2,0,0.3,0.2,0.4c0.1,0,0.1,0.1,0.2,0.1c0.1,0,0-0.1,0.1-0.1
		s0.3,0,0.3-0.2s0.1-0.3,0.2-0.3S389.2,264.4,389.1,264.5C389.1,264.4,389.1,264.4,389.1,264.5z"/>
	<path class="st6" d="M379.9,231.8L379.9,231.8c-0.3,0.2-0.3,0.2-0.3,0.6c0,0.2,0.1,0.4-0.1,0.4l-0.9,0.1l-1.6,0.2
		c0,0.2,0.1,0.9,0.2,0.9s0.5,0,0.6,0.1c0.1,0.2,0.1,0.3,0.2,0.5c-0.1,0-0.3,0.1-0.5,0c-0.1-0.1-0.3-0.2-0.4-0.3
		c-0.3-0.2-0.8-0.3-1.1-0.1c-0.2,0.1-0.9,0.3-0.5,0.5s0.7,0.3,1,0.4c-0.2,0-1.2,0-1.4-0.3s-0.2-0.3,0-0.7c0.1-0.1-0.2-0.5-0.3-0.5
		c0,0.1,0.2,0.5,0,0.6s-0.5,0.1-0.6,0.4s0.2,0.5,0.3,0.7s-0.1,0.5-0.2,0.7s0.1,0.5,0.1,0.6s0.6-0.1,0.7-0.1c0.2-0.1,0.4,0,0.6,0.1
		c0.2,0.1,0.2,0.4,0.2,0.6l-0.5-0.6c-0.1-0.1-0.4,0.1-0.6,0.1c-0.6,0.2,0.1,0.6-0.2,1c-0.3,0.4-0.6,0.7-1,0.9
		c-0.4,0.1-0.9,0-1.2-0.4c0.1,0,0.5,0.1,0.6,0.1c0.3-0.2,0.5-0.3,0.8-0.5s0.2-0.5,0.3-0.7s-0.1-0.3-0.4-0.5s0.2-1.3,0.1-1.5
		s-0.3-0.5-0.3-0.6s0.2-0.6,0.3-0.9c-0.3,0-1.4-0.3-1.5,0s-0.1,0.7-0.3,0.8l-0.7,0.6c0.1,0.1,0.5,0.2,0.4,0.4s-0.3,0.5-0.2,0.6
		l0.8,0.6c0.1,0.1,0,0.5,0,0.6c-0.2-0.2-0.4-0.4-0.7-0.5l-1-0.4c-0.5-0.2-1.1-0.3-1.7-0.1c0.2,0.3,0.4,0.3,0.1,0.6s-0.2,0.3-0.6,0.2
		l0.1-0.2c-0.2-0.1-0.5-0.1-0.7,0.1c-0.2,0.1-0.5,0.1-0.7,0.1c-0.2,0-0.3,0.4-0.5,0.3s-0.3-0.1-0.4-0.4l-1.1,0.5l-0.8,0.3
		c-0.1,0-0.3,0.1-0.4,0.2s0,0.4-0.2,0.4s-0.4,0.1-0.6,0s-0.4-0.3-0.2-0.5s0.5-0.1,0.6-0.1c-0.1-0.2-0.3-0.5-0.5-0.5l-0.8-0.1
		c0,0.1,0.3,0.3,0.3,0.4l-0.1,0.6c0-0.1,0.2,0.3,0.2,0.4s-0.1,0.4-0.1,0.5l-0.7-0.2c-0.1,0-0.3,0.2-0.5,0.2l-0.6,0.4
		c0.1,0.2,0.1,0.4,0.2,0.6c-0.3-0.1-0.6-0.2-0.9-0.3s-0.4-0.2-0.7,0.1c0.1,0.2,0.2,0.3,0.4,0.3s0.3,0.3,0.1,0.4s-0.7-0.2-1-0.4
		s-0.2-0.7-0.2-1.1s-0.6-0.7-0.8-0.9c0.6,0.3,1.2,0.5,1.9,0.6c0.3,0.1,0.6,0.1,0.9-0.1c0.2-0.1,0.2-0.2,0.3-0.3s0.2-0.3,0.1-0.6
		c-0.1-0.3-0.4-0.5-0.7-0.6c-0.3-0.1-0.7-0.3-1-0.5c-0.3-0.2-0.6-0.3-1-0.3c-0.2,0-0.9,0.1-0.9-0.3c0.1,0,0.3,0.2,0.4,0
		c-0.1,0-0.4-0.2-0.4-0.2s-0.4,0.1-0.6,0.1s-0.4,0.1-0.4,0s-0.3-0.1-0.4-0.3c0.2,0,0.4,0.1,0.6,0.1c0.1,0,0.5-0.2,0.3-0.3l-0.8-0.3
		c-0.2-0.1-0.1,0.4-0.4,0.2l0.2-0.4c-0.1,0-0.4-0.1-0.4,0s-0.2,0.3-0.3,0.4c0-0.1,0-0.2-0.1-0.4c-0.2,0.2-0.4,0.6-0.6,0.7
		c0.1-0.3,0.2-0.6,0.5-0.8c-0.2,0-0.5,0-0.7,0.1c-0.2,0.1-0.3,0.5-0.5,0.5c-0.6,0.2-1.1,0.4-1.7,0.6c-0.5,0.3-0.9,0.7-1.2,1.1
		c-0.4,0.4-0.8,0.8-1.1,1.3c-0.2,0.5-0.6,1-0.9,1.4c-0.2,0.2-0.4,0.4-0.6,0.6c-0.2,0.2-0.4,0.3-0.7,0.4c-0.2,0.1-0.4,0.2-0.6,0.4
		c-0.3,0.3-0.4,0.3-0.4,0.8s0.2,1.1,0.2,1.6s0.8,0.5,1,0.4s0.3-0.3,0.5-0.4c0.2-0.1,0.4-0.3,0.4-0.5c0,0.1,0.1,0.3,0.2,0.4
		s0,0.2,0,0.4c0,0.1,0.1,0.3,0.2,0.4c0,0.1,0,0.2,0.1,0.3s0.5,0.5,0.4,0.7s0,0.3,0,0.4s0,0.2,0.3,0.2s0.2,0,0.3-0.1s0-0.3,0.1-0.3
		c0.3-0.1,0.5-0.1,0.7-0.4c0.1-0.3,0.1-0.6,0.1-0.9c0-0.3,0.2-0.4,0.5-0.6s0.5-0.3,0.4-0.5s-0.5-0.3-0.7-0.5
		c-0.3-0.6,0.2-1.2,0.5-1.6c0.1-0.1,1.3-0.8,1.2-1s-0.1-0.5,0.1-0.7s0.4-0.3,0.8-0.3c0.3,0,0.6,0.2,0.6,0.5c0.1,0.3-0.1,0.1-0.2,0.2
		s-0.3,0.4-0.4,0.5s-0.5,0.4-0.7,0.6s-0.3,0.3-0.4,0.4c0,0.2,0.1,0.4,0.1,0.6c0,0.2,0,0.3,0,0.5c0,0.3-0.1,0.3,0.2,0.4
		c0.2,0.1,0.3,0.2,0.4,0.3c0,0.1,0.3,0,0.4,0l2-0.4c0,0.1,0,0.1-0.1,0.2c0.2,0.1,0.6,0.1,0.7,0.4c-0.1,0-0.3-0.1-0.4,0
		s-0.3,0-0.4,0.1s0.1,0.2-0.2,0.2l-0.7-0.1c-0.3,0-0.6,0.1-0.9,0.3c0,0,0,0.4,0.1,0.4c0.1,0.1,0.1,0.1,0.2,0.2c0,0,0.1-0.1,0.2-0.1
		s0,0.4,0,0.5s-0.1,0.4-0.2,0.4s-0.4-0.7-0.8-0.4c-0.2,0.1-0.1,0.3-0.2,0.4c-0.1,0.1-0.2,0.3-0.1,0.4c0,0.2,0.3,1-0.2,0.8
		c0.1-0.1,0.1-0.2,0.2-0.2c-0.1,0.1-0.2,0.2-0.3,0.2c0,0-0.1,0-0.1,0s0,0.2-0.1,0.2s-0.5,0.1-0.5-0.1c0,0,0.1,0.1,0.2,0.1
		c-0.3-0.2-0.8-0.1-1,0.2c-0.1,0.2-0.7,0.2-0.9,0.3h0.2c0,0.1,0,0.1,0,0.2c-0.1-0.1-0.3-0.1-0.3-0.3c-0.1-0.1-0.2-0.2-0.4-0.2
		c-0.2,0-0.5,0.4-0.8,0.3l0.1-0.2c-0.3,0.1-0.6-0.1-0.6-0.4s0.3-0.5,0.5-0.9c-0.3-0.1-0.3-0.6-0.1-0.8c-0.2,0.1-0.4,0.4-0.7,0.4
		s-0.4,0.3-0.4,0.6s0,0.2,0.1,0.4s0,0.2,0.1,0.4s0.2,0.2,0,0.3s0.1,0.3,0.2,0.3c-0.1,0-0.3,0-0.3,0.2c-0.1,0-0.2,0-0.3,0h-0.2
		c-0.1,0,0,0.1-0.1,0.1c-0.2,0.1-0.5-0.1-0.7,0.2c-0.1,0.1-0.2,0.1-0.3,0.2c0,0.2-0.1,0.3-0.2,0.5c0,0,0,0.1,0,0.2s-0.2,0-0.2,0.1
		s0.2,0.1,0.3,0.1c-0.2,0-0.3,0-0.5,0.1c-0.1,0.1-0.5,0.1-0.5,0.2s0.1,0.4-0.1,0.5s-0.4,0.1-0.5,0.3c0,0,0.1,0,0.1,0
		c-0.2,0.1-0.4,0.1-0.5,0.1c-0.1,0-0.1,0-0.1-0.1s-0.2-0.1-0.3-0.1c0.1,0.2,0.1,0.3,0.1,0.5c0,0.1-0.4,0.2-0.4,0.2s0-0.3-0.3-0.1
		c-0.2,0.1-0.3,0.1-0.5,0.1c0,0.1,0.1,0.2,0.2,0.2c0,0-0.1,0-0.1,0c0,0.1,0.1,0.1,0.2,0.1c0.2,0,0.2,0.1,0.3,0.1
		c0.1,0,0.2,0,0.3,0.1c0.1,0,0,0.1,0.2,0.1c0,0.1,0,0.4,0.1,0.4s0.2,0.2,0.2,0.5s0.1,1.1-0.4,1.2c-0.2,0-0.4,0-0.6-0.1
		c-0.2-0.1-0.4,0-0.6,0c-0.2-0.1-0.5-0.1-0.7,0c-0.2,0.1-0.3-0.2-0.6,0l0,0.1c-0.1,0-0.4,0-0.4,0.1s0,0.4,0.2,0.2
		c-0.1,0.2-0.1,0.5,0,0.7c0.1,0.2-0.1,0.6-0.1,0.9s-0.2,0.3,0,0.6c0,0,0.1-0.1,0.1,0s0,0.2,0,0.3c0,0.2,0,0.3-0.1,0.4
		c0.2-0.1,0.3,0,0.5-0.1s0.4,0.2,0.6,0.1c-0.2,0.1,0.1,0.5,0.3,0.5s0.3-0.3,0.5-0.3c0.3,0,0.5,0,0.8,0c0.1,0,0.2-0.2,0.2-0.3
		s0.3-0.1,0.4-0.1c-0.1-0.2,0.2-0.4,0.3-0.5s-0.2-0.3-0.1-0.4c0.2-0.4,0.4-0.8,0.8-1c0.1-0.1,0.5-0.2,0.6-0.3s0-0.5,0-0.6
		s0.3-0.4,0.4-0.3l0.8,0.2c0.3-0.2,0.7-0.4,0.9-0.6c0.1-0.1,0.3-0.1,0.4,0s0.3,0.2,0.4,0.5s0.5,0.5,0.7,0.8s0.3,0.4,0.5,0.3
		s0.4,0.2,0.4,0.3c0.1,0,0.2,0,0.2,0.1c0,0,0,0.1,0,0.1c0,0.1,0.2,0.1,0.2,0.1s0.3,0.6,0.2,0.7s0,0.2-0.1,0.2
		c-0.2,0.1-0.3,0.1-0.5,0.1c-0.2,0-0.5,0-0.7-0.1c-0.4,0.4,0.6,0.4,0.7,0.7s0.5,0.1,0.4-0.1c-0.1-0.2-0.1-0.4,0.1-0.5c0,0,0,0,0,0
		c0,0.3,0.4,0,0.4-0.2s0.5-0.2,0.2-0.4c-0.1-0.1-0.2-0.1-0.2-0.2c0-0.1,0.1-0.2,0.2-0.3c0.1-0.1,0.4,0.3,0.5,0.3
		c0.3-0.3-0.8-0.8-1-0.9c0.2-0.2,0-0.2-0.2-0.2s-0.3-0.1-0.5-0.3s-0.1-0.4-0.2-0.5c-0.1-0.1-0.3-0.3-0.5-0.4c-0.2-0.1,0-0.4,0-0.5
		c-0.1-0.3,0-0.3,0.2-0.4s0.2-0.1,0.2,0.1s0.2,0.4,0.3,0.1c0.2,0.1,0.3,0.3,0.4,0.6c0,0.1,0.3,0.4,0.4,0.4c0.4,0.1,0.8,0.3,1,0.6
		c0.2,0.2,0.3,0.2,0.3,0.5s-0.1,0.5,0.1,0.7s0.2,0.4,0.3,0.6s0.2,0.3,0.5,0.3c-0.3,0.3-0.2,0.3-0.1,0.8c0.1-0.1,0.2-0.1,0.3,0
		s0.2,0.1,0.4,0.2c-0.1-0.2-0.1-0.2,0-0.4s0.1-0.2-0.1-0.3c0.1-0.2,0.3-0.1,0.4,0.1c0-0.4-0.2-0.4-0.5-0.6c0.2-0.2,0.2-0.2,0-0.4
		s-0.3-0.3-0.1-0.5c0.1,0.1,0.3,0.2,0.4,0.1s-0.1-0.2,0-0.2s0.2-0.1,0.3-0.1c0.2,0,0.3,0,0.5,0.1c0.1,0,0.3,0,0.4,0.1
		c-0.1,0.1-0.3,0.1-0.2,0.3l0.6-0.6c0.1-0.1,0.5,0.1,0.6-0.1s-0.4-0.3-0.5-0.4s-0.2-0.5,0.1-0.7s0.2-0.4,0.3-0.7
		c0-0.1,0.2-0.1,0.3-0.2c0-0.1,0.1-0.3,0.1-0.4c0-0.2,0.4-0.4,0.5-0.6s0.5,0.1,0.7,0c-0.1,0.2-0.3,0.1-0.5,0.1
		c0.1,0.1,0.2,0.2,0.3,0.2c0.1,0,0.3,0,0.4,0c0.4,0.1-0.2,0.4-0.3,0.4c0.3,0.1,0.5,0.1,0.3,0.5c0.2,0.2,0.6-0.2,0.8-0.3
		s0.4,0.1,0.6-0.2c-0.2,0-0.5,0.1-0.6-0.1s-0.2-0.5,0-0.5c0,0,0,0.1,0,0.1c0.2-0.2,0.4-0.3,0.6-0.3v0.1c0.2-0.2,0.5-0.3,0.7-0.3
		c0.1,0,0.3-0.1,0.3,0.1s-0.4,0-0.3,0.2h-0.3c0.1,0.1,0.2,0.2,0.3,0.3c-0.2,0-0.5,0.1-0.4,0.4l-0.3-0.1l-0.1,0.1l0.3,0.2
		c0.1,0.1,0.2,0.1,0.3,0.2c0.3,0,0.5,0.3,0.7,0.5s0.4,0.2,0.6,0.4s0.2,0.5,0,0.6c-0.2,0.2-0.5,0.3-0.7,0.2c-0.3,0-0.4,0.1-0.7,0
		s-0.6-0.1-0.7-0.2c-0.2-0.2-0.1,0-0.3-0.1s-0.2-0.1-0.1-0.2c-0.2,0.1-0.5,0.1-0.7,0c-0.2,0-0.4,0.1-0.6,0.2
		c-0.2,0.2-0.3,0.2-0.6,0.2s-0.5-0.1-0.6,0.1l0.3,0.2c-0.3,0.1-0.6,0.2-0.9,0.2c-0.2,0-0.6,0.1-0.6,0.5h0.3
		c-0.3,0.4,0.2,1.2,0.5,1.4s0.5,0.4,0.7,0.3s0.2,0,0.3-0.2s0.2-0.1,0.3,0s0.4,0.3,0.6,0.3c0.1,0,0.3,0,0.4,0c0.1,0,0.2-0.3,0.3-0.3
		s0.2,0.2,0.3,0.1s0.2-0.2,0.3-0.1s-0.2,0.5-0.1,0.7s-0.3,1.3-0.5,1.6c-0.2,0.4-0.7,0.6-1.2,0.4c0,0,0,0-0.1,0
		c-0.3-0.2-0.4-0.1-0.7,0c-0.2,0.1-0.5,0.2-0.7,0.1l-0.9-0.3c-0.1,0-0.2,0.1-0.2,0.1s-0.1-0.2-0.2-0.2l-0.6-0.1
		c-0.1,0,0-0.2-0.1-0.2c-0.3-0.1-0.7-0.1-1,0.1c-0.1,0-0.2,0.3-0.2,0.4s0.1,0.3,0.1,0.4c-0.2,0.5-0.4,0.4-0.8,0.1s-0.5-0.1-0.8-0.2
		s-0.2-0.5-0.5-0.6l-1.2-0.3c-0.2-0.1-0.5-0.4-0.7-0.5c0.1-0.1,0.5-0.4,0.4-0.6c-0.2-0.4-0.2-0.4,0-0.8c-0.2-0.1-0.5-0.3-0.7-0.1
		c-0.3,0.1-0.6,0.2-0.8,0.1c-0.1,0-0.2,0-0.3,0c-0.1,0-0.2,0.2-0.4,0.2c-0.1,0-0.3-0.1-0.4-0.1c-0.2,0-0.3,0-0.5,0
		c-0.5,0.1-1,0.2-1.5,0.5c-0.2,0.1-0.5,0.3-0.7,0.4c-0.1,0-0.3-0.1-0.3-0.2s-0.4,0-0.5,0.1s-0.5-0.4-0.5-0.3
		c-0.3,0.1-0.4,0.5-0.5,0.8s-1,0.5-1.1,0.9s-0.1,0.8-0.2,1.1s-0.1,0.3-0.4,0.5c-0.4,0.2-0.8,0.5-1.1,0.9l-1.2,2.1
		c-0.1,0.1-0.2,0.3-0.3,0.5c0,0.3,0.1,0.6,0.2,0.9c0.1,0.3,0.1,0.7,0.2,1s-0.2,0.5-0.2,0.7s-0.2,0.5-0.2,0.6l0.4,0.7l1.2,2.1
		c0.2,0.4,0.5,0.6,0.9,0.9l1,0.7c0.1,0.1,0.3,0.3,0.5,0.2l1-0.4c0.2-0.1,0.5,0,0.7,0.1c0.3,0.1,0.4,0.1,0.6,0s0.6-0.3,0.9-0.5
		c0.5-0.1,1-0.2,1.5-0.2c0.2,0.3,0.4,0.5,0.6,0.8s0.6,0,0.8,0c0.4,0,0.3,0,0.6,0.3s0.2,0.3,0.1,0.6s-0.1,0.8-0.1,1.2
		c0,0.2-0.1,0.4,0,0.5l0.6,0.9c0.2,0.2,0.3,0.4,0.4,0.6l0.5,1.9c0.1,0.6,0.3,1,0,1.6c-0.3,0.6-0.4,1.3-0.5,1.9c0,0.1-0.1,0.4,0,0.5
		c0.1,0.3,0.3,0.6,0.5,0.9c0.3,0.4,0.5,0.9,0.6,1.4c0.1,0.4,0.1,0.8,0.2,1.2c0,0.1,0,0.6,0.1,0.7s0.4,0.3,0.5,0.5l0.4,1
		c0.1,0.2,0.2,0.4,0.2,0.7c0,0.5-0.1,0.5,0.3,0.8c0.1,0.1,0.4,0.4,0.5,0.4l0.8-0.2l1.8-0.4c0.2,0,0.4-0.4,0.5-0.5
		c0.2-0.2,0.5-0.4,0.7-0.6c0.4-0.5,0.7-1,1-1.5c0.1-0.3,0.1-0.6,0.1-0.9c0-0.4,0-0.5,0.3-0.6s0.7-0.2,0.8-0.4c0.1-0.3,0.1-0.7,0.1-1
		c0-0.2-0.2-0.6-0.3-0.8s0.1-0.4,0.3-0.6l0.6-0.7c0.2-0.2,0.5-0.3,0.8-0.4c0.4-0.2,0.7-0.7,0.7-1.2c0-0.6,0.1-1.4-0.3-1.9
		c-0.2-0.2-0.3-0.5-0.2-0.8c0.1-0.3,0-0.6-0.2-0.9c-0.1-0.2,0.7-1.4,0.9-1.6c0.7-1,1.5-1.9,2.4-2.7c0.3-0.4,0.5-0.8,0.7-1.2
		c0.3-0.5,0.6-1,0.8-1.5c0.1-0.3,0.2-0.6,0.2-0.9c-0.1-0.2-0.5,0-0.6,0l-2,0.5c-0.2,0-0.5-0.5-0.7-0.5c0.4-0.4-0.1-0.6-0.3-0.9
		l-0.4-0.5c-0.1-0.1-0.5-0.1-0.5-0.2c-0.1-0.4-0.3-0.8-0.4-1.2c-0.1-0.2-0.3-0.3-0.5-0.5c-0.1-0.1-0.1-0.4-0.1-0.5l-0.1-0.8
		c0-0.1-0.3-0.3-0.4-0.4s-0.2-0.6-0.3-0.9l-0.8-1.5c-0.1-0.2-0.5-0.7-0.3-1c0.2,0.4,0.4,0.7,0.7,1l0.3-0.8c0,0.2-0.1,0.5-0.1,0.7
		c0.2-0.1,0.3,0.2,0.4,0.4c0.2,0.4,0.4,0.7,0.6,1.1c0.1,0.2,0.3,0.2,0.4,0.4c0.2,0.3,0.3,0.5,0.4,0.8c0,0.2,0,0.8,0.2,0.8
		s0.3,0.2,0.5,0.5c0.3,0.5,0.6,1,0.7,1.5c0.1,0.4,0.1,0.8,0.2,1.2s0.1,0.3,0.5,0.3s0.3-0.2,0.5-0.3s0.6-0.2,0.9-0.2
		c0.1,0,0.2,0,0.3-0.1s0.1-0.2,0.2-0.2l1-0.4c0.2-0.1,0.2-0.4,0.4-0.5l0.5-0.2c0.1,0,0.3,0.1,0.4,0s0.1-0.4,0.2-0.5l0.6-0.3
		c0.2-0.1,0.3-0.1,0.3-0.3c0-0.2,0.1-0.5,0.2-0.6c0,0.1,0.1,0.1,0.1,0.2c0.1-0.1,0.5-0.5,0.6-0.7s0.1-0.3-0.1-0.4s-0.2-0.3-0.3-0.4
		s-0.2-0.1-0.4-0.1c-0.1-0.1-0.3-0.2-0.4-0.3c-0.2-0.2-0.2-0.6-0.2-0.9c-0.2,0.3-0.5,0.6-0.8,0.9c-0.4,0.1-0.8,0.2-1.2,0.1
		c0-0.4,0-0.7-0.2-1c0,0.2-0.1,0.4-0.1,0.7c-0.3-0.5-0.5-1-0.8-1.5c-0.1-0.1-0.5-0.6-0.4-0.7c0.3-0.4,0.3-0.4,0.8-0.3
		c0.3,0,0.3,0.4,0.4,0.6c0.1,0.3,0.3,0.5,0.6,0.6c0.2,0.1,0.3,0.4,0.5,0.4c0.3,0.1,0.6,0.1,0.9,0c0.4-0.1,0.3,0,0.5,0.4
		c0.1,0.2,0.4,0.2,0.6,0.2c0.5,0.2,1,0.2,1.5,0.2c0.2,0,1.6-0.3,1.7-0.1s0.2,0.6,0.4,0.7c0.2,0.2,0.5,0.3,0.8,0.5c0.1,0,0.2,0,0.3,0
		c0,0.2-0.4,0.2-0.6,0.3c0.2,0.2,0.5,0.7,0.7,0.7s0.2,0,0.4-0.1s0.3-0.4,0.4-0.6l0.1,1.9c0,0.2,0,0.5,0,0.7c0.1,0.3,0.2,0.6,0.4,0.9
		c0.5,1,0.9,2,1.4,3l0.5-0.4c0.2-0.1,0.1-0.3,0.2-0.5c0.2,0.2,0.3,0.3,0.3,0.6c0,0.3,0,0.6,0,0.9c0.1,0.7,0.9,0.2,0.7-0.3
		c-0.1-0.3-0.2-0.5-0.4-0.8c-0.2-0.2-0.3-0.5-0.4-0.8c0-0.3,0.1-0.5,0.2-0.8c0-0.3,0-0.6,0-0.8c0-0.3-0.1-0.5,0.1-0.6
		c0.2-0.1,0.4-0.2,0.6-0.3l1.4-1.4l0.5-0.5c0.1-0.1,0-0.3,0-0.4s0.2,0,0.3,0l1-0.1c0.2,0,0.4-0.3,0.6-0.4c0.1,0.4,0.3,0.8,0.6,1
		c0.3,0.3,0.5,0.7,0.6,1.1c0,0.2,0,0.4-0.1,0.6c0,0.3-0.1,0.3,0.2,0.3s0.2,0.1,0.4-0.1l0.4-0.5c0.2,0.6,0.4,1.3,0.5,2
		c0.1,0.4,0.1,0.7,0.1,1.1c0,0.2-0.2,0.9-0.1,1l0.8,0.8c0.2,0.3,0.3,0.7,0.3,1c0,0.3,0.2,0.5,0.4,0.7c0.3,0.2,0.6,0.4,0.9,0.5
		c-0.1-0.2-0.2-0.5-0.3-0.7c-0.1-0.3,0-0.6,0-0.9c-0.1-0.2-0.3-0.4-0.5-0.5c-0.2-0.1-0.6-0.3-0.6-0.5s-0.2-0.8-0.3-0.8
		s-0.2,0-0.2-0.2c0-0.1,0-0.2,0-0.4c0.1-0.3,0.2-0.5,0.3-0.8c0-0.5,0-0.5,0.4-0.5c0,0.1,0,0.2,0,0.3c0.4,0,0.8,0.2,1,0.6l0.5,0.6
		c0.1,0.1-0.1,0.4,0.1,0.6c0.6-0.4,1.1-0.9,1.6-1.4c0.2-0.2,0-0.8,0-1c0-0.4-0.2-0.5-0.4-0.9c-0.2-0.2-0.4-0.5-0.6-0.8l-0.4-0.6
		c0-0.1,0.1-0.4,0.1-0.5c0.1-0.3,0.6-0.5,0.8-0.7c0.3-0.1,0.6-0.1,0.8,0.1c-0.1,0-0.1,0.1-0.2,0.1s0.1,0.4,0.1,0.4
		c0.2,0.1,0.2-0.1,0.2-0.3s-0.1-0.2,0.1-0.2l0.4-0.1c0.1-1.4,0.2-2.7,0.2-4.1C389.5,249.5,386.2,239.7,379.9,231.8z M366,254.3
		c-0.1,0.1-0.1,0.3,0,0.4s0.2,0,0.2,0s0.1,0.2,0.1,0.3h-0.2c0.2,0.3,0.4,0.1,0.3,0.5c0,0.3,0,0.6,0,0.8c-0.3,0.1-0.6,0.1-0.9,0.1
		l-0.5-0.2c-0.1,0-0.1-0.2-0.3-0.2s-0.3,0-0.3-0.2c0-0.2,0-0.3,0-0.5c0.1-0.2,0.1-0.3,0.2-0.5c0.1-0.3,0.1-0.2,0.3-0.3
		c-0.2-0.1-0.4-0.3-0.5-0.5c-0.1-0.2-0.3-0.2-0.4-0.4c-0.1-0.2-0.2-0.5-0.2-0.8c0-0.2-0.2-0.4-0.4-0.4c0.1-0.1,0.3-0.2,0.3-0.3
		s0-0.3,0.3-0.4s0.5-0.1,0.5-0.2c0.1-0.4,0.1-0.2,0.4-0.3c0.1,0,0.3-0.2,0.5-0.2s0.4,0.2,0.5,0.1s0.3,0.2,0.3,0.3s0,0.4-0.1,0.5
		c0.3,0.1,0.4-0.1,0.5,0.2c-0.2,0-0.3,0.2-0.5,0.4c0-0.2,0.1-0.4,0.3-0.4c-0.3-0.1-0.5-0.1-0.8-0.1c-0.1,0-0.2,0-0.3,0.1
		c-0.1,0.2,0,0.2,0.1,0.3c-0.2,0.1-0.3-0.1-0.5,0s0.2,0.2,0.2,0.2s0,0.5,0.1,0.6s0.4,0.2,0.5,0.2c-0.2,0.3-0.1,0.6,0.1,0.8
		c0-0.2,0-0.7,0.4-0.5c0.1,0.1,0.1,0.2,0.1,0.3s0.3,0.2,0.2,0.4C366.5,254.4,366.3,254.4,366,254.3z"/>
	<path class="st6" d="M338.9,240.3c0.2,0.1,0.4-0.1,0.4-0.4c0.2,0.1,0.3-0.1,0.4-0.2c-0.1-0.1,0-0.3-0.1-0.4s-0.3-0.2-0.4-0.1
		c0.2-0.4-0.8-0.8-0.7-0.3c-0.3,0-0.4,0.1-0.7,0c0,0.1,0,0.2,0,0.3c-0.1-0.2-0.1-0.3-0.4-0.3s-0.2,0.2-0.2,0.3
		c-0.1-0.1-0.2-0.3-0.4-0.3c0.1,0.3,0,0.2-0.1,0.3s-0.1,0.2-0.1,0.4c-0.1-0.1-0.2-0.2-0.2-0.4c0.1,0,0.1,0,0.2-0.1c0,0,0,0,0-0.1
		c0-0.1-0.2-0.1-0.2-0.2c-0.2-0.2-0.2-0.2-0.5-0.2c0,0.1,0.1,0.1,0.3,0.1c0,0.4-0.4,0-0.5,0.1s0.1,0.2,0.1,0.3s-0.2,0-0.2,0v0.1
		c-0.1,0-0.1,0-0.2,0.1c0.2,0.1,0.3,0.1,0.6,0s0.4,0.1,0.5,0.1l-0.3,0.2c0.1,0.1,0.2,0.1,0.3,0c0,0,0,0.1,0,0.1
		c-0.3,0-0.6,0.1-0.9,0.1c0,0.2,0.6,0.1,0.7,0.1c-0.1,0.1,0,0.2,0.1,0.2s0,0.1,0,0.1h0.1c-0.1,0.2-0.5,0.2-0.4,0.4l0.7-0.1
		c0.1,0,0.1,0.2,0.2,0.2c0.1,0,0.2,0.1,0.3,0.1c0.2,0.1,0.4,0.1,0.6,0c0.1,0,0.1-0.1,0.2-0.1h0.3
		C338.4,240.5,338.7,240.2,338.9,240.3z"/>
	<path class="st6" d="M315,264.1c-0.1,0-0.2-0.2-0.2-0.2c-0.3,0-0.5-0.1-0.6-0.3v0.1c-0.5-0.3-1-0.6-1.5-0.7c-0.3,0-0.6,0-0.9,0.1
		c-0.3,0.1-0.3,0.3-0.5,0.5c0.4,0.2,0.9-0.7,1.3-0.3c-0.1,0-0.1,0-0.2,0c0.1,0.1,0.2,0.1,0.3,0.1c0.1,0,0.1,0.1,0.3,0.1
		s0.4,0.2,0.7,0.2s0.2,0.3,0.5,0.4c0.1,0,0.3,0,0.3,0.1s-0.2,0.2-0.2,0.2c0.3,0,0.6,0,0.9,0l0.5-0.1
		C315.3,264.2,315.2,264.1,315,264.1z"/>
	<path class="st6" d="M313.8,265.2c0.1,0.1,0.3,0.2,0.5,0.2c0.1,0,0.2-0.1,0.4-0.1c0-0.1-0.1-0.1-0.1-0.1
		C314.3,265.2,314,265,313.8,265.2z"/>
	<path class="st6" d="M311.6,241.4c-0.1,0.1-0.2,0.1-0.1,0.2s0,0.2,0.1,0.2c0.4,0,0.7-0.2,0.8-0.6h-0.2
		C311.9,241.2,311.8,241.3,311.6,241.4z"/>
	<path class="st6" d="M313.8,233.1c-0.1-0.1-0.3,0-0.4,0l-0.5-0.2c-0.1,0-0.2,0.2-0.2,0.3c0,0.1,0.1,0.2,0.2,0.2
		c0.2,0.1,0,0.1,0.1,0.3c0.1,0.1,0.2,0.1,0.3,0.2c0.1,0.1,0.6-0.1,0.7-0.1c0.2,0,0.4,0,0.6,0C314.4,233.4,314.2,233.2,313.8,233.1z"
		/>
	<path class="st6" d="M315.8,237.8c0-0.2-0.2-0.3-0.3-0.3c-0.1,0-0.1,0-0.2,0.1C315.1,237.8,315.7,237.8,315.8,237.8z"/>
	<path class="st6" d="M312.4,240.5c0.3-0.3-0.5-0.6-0.6-0.7s-0.3,0-0.4-0.1s-0.2-0.2-0.3,0c0-0.1-0.1-0.1-0.1-0.2
		c0.3,0,0.2-0.4,0-0.3s-0.2,0.3-0.3,0.6c0,0.1,0,0.2-0.1,0.4s0.1,0.2,0,0.3s-0.3,0.3-0.4,0.4c0.2,0,0.4-0.1,0.6-0.1
		c0,0,0.1,0.5,0.2,0.4s0.3-0.3,0.4-0.4s0.2-0.3,0.4-0.4c0,0.4,0.6,0.4,0.8,0.5l0.3-0.2C312.8,240.5,312.6,240.4,312.4,240.5z"/>
	<path class="st6" d="M315,238.1c0.1-0.2,0-0.4,0.1-0.6c-0.3-0.4-1.1,0.2-0.8,0.5C314.4,238.1,314.8,238.3,315,238.1z"/>
	<path class="st6" d="M313.3,241.6c-0.1,0-0.3,0.1-0.3,0.2s0.1,0.2,0.2,0.3C313.3,242.1,313.6,241.7,313.3,241.6z"/>
	<path class="st6" d="M320.4,249.8c-0.3-0.3-0.7-0.5-1.1-0.4C319.5,249.6,320.1,250.1,320.4,249.8z"/>
	<path class="st6" d="M319.5,251c-0.2,0.4,0.1,0.4,0.4,0.5s0.3,0,0.5-0.2l-0.8-0.1L319.5,251z"/>
	<path class="st6" d="M342.9,245.9c0,0.1,0,0.1,0.1,0.2C343,246,343,246,342.9,245.9z"/>
	<path class="st6" d="M386.7,274.5c0.2-0.2,0-0.2,0-0.3s0-0.4-0.1-0.4s-0.3-0.1-0.3-0.2s0.1-0.2,0.1-0.3s-0.3-0.2-0.3-0.3
		s-0.1-0.1-0.2-0.2s0-0.1-0.2-0.2s-0.2,0-0.3-0.1s-0.4-0.3-0.6-0.5c-0.2-0.2-0.4-0.3-0.6-0.5c-0.2-0.3-0.1-0.4-0.5-0.4
		c-0.1,0-0.6-0.2-0.7-0.1s0.3,0.6,0.4,0.7s0.5,0.2,0.5,0.5s0.4,0.3,0.5,0.6l0.1,0.5c0,0.1,0.1,0.1,0.2,0.2c0.2,0.3,0.3,0.6,0.4,0.9
		c0.1,0.2,0.3,0.4,0.5,0.6c0.3,0.3,0.6,0.7,1,1c0.2-0.5,0.4-0.9,0.5-1.4C387,274.4,386.8,274.4,386.7,274.5z"/>
	<path class="st6" d="M355.5,257.3c0-0.1-0.3-0.2-0.4-0.2c-0.2,0-0.4,0-0.6-0.2c0,0.1-0.1,0.1-0.1,0.2
		C354.7,257.3,355.1,257.3,355.5,257.3z"/>
	<path class="st6" d="M358.6,257.3c-0.1-0.2,0.1-0.3,0.2-0.4c-0.1,0-0.3,0.2-0.5,0.2s-0.4-0.1-0.5,0
		C357.7,257.6,358.5,257.4,358.6,257.3z"/>
	<path class="st6" d="M387.2,274.1c-0.1-0.2-0.2,0-0.2,0.1s0.1,0,0.2,0s0,0,0,0s0.1-0.2,0.1-0.3c0,0-0.1,0-0.1,0
		C387.1,274,387.1,274.1,387.2,274.1z"/>
	<path class="st6" d="M348.6,254c0.1-0.3,0.1-0.5,0.1-0.8c-0.1,0,0,0.1-0.1,0.2c-0.1,0.1-0.2,0.2-0.3,0.2
		C348.3,253.7,348.5,254,348.6,254z"/>
	<path class="st6" d="M353.8,244.6c0.1-0.2,0.4-0.3,0.6-0.4c-0.2-0.1-0.4-0.1-0.7,0C353.8,244.3,353.8,244.4,353.8,244.6z"/>
	<path class="st6" d="M349.2,246.1c0-0.1-0.2-0.1-0.3,0s0.2,0.3,0.3,0.3c0.1,0,0.2-0.1,0.1-0.2S349.3,246.1,349.2,246.1L349.2,246.1
		z"/>
	<path class="st6" d="M352.5,236.3l0.2-0.1l0.3-0.2C353,236,352.7,236.2,352.5,236.3z"/>
	<path class="st6" d="M346.4,255c-0.1-0.3-0.2-0.1-0.5,0l0.2,0.2L346.4,255z"/>
	<path class="st6" d="M312.3,230.5c0.2,0.2,0.3,0,0.4,0s0.1,0.2,0,0.4l0.7-0.2c0.1,0,0.1-0.2,0.2-0.2s0.1,0.1,0.2,0.1s0.2,0,0.2-0.1
		s0-0.3-0.1-0.3s-0.2-0.1-0.3-0.1s-0.1,0.1-0.2,0s0.3-0.4,0.4-0.5c0.2-0.2-0.1-0.3,0-0.4s0.4,0.1,0.5,0.1c0.2-0.1,0.4-0.2,0.5-0.4
		l-0.4-0.2l0.7-0.1c0-0.3-0.6-0.3-0.8-0.4h0.8c0.1-0.3-0.6-0.2-0.9-0.3c-0.9,0.9-1.7,1.7-2.5,2.6C312,230.7,312.3,230.7,312.3,230.5
		z"/>
	<path class="st6" d="M310.6,232.2c0.1,0.2,0.5,0.2,0.5,0c0.1,0.3,0.4,0.1,0.6,0.1c0-0.1,0-0.2,0-0.3c0.2,0,0.1,0.3,0.3,0.3
		c0.1,0.1,0.3,0.1,0.4,0.1c0.1,0,0.6,0,0.6-0.1s0.1-0.2,0.4-0.3c-0.1-0.1-0.2-0.1-0.4-0.1l0.3-0.2c-0.3-0.4-0.9-0.5-1.4-0.4
		c-0.2,0.1-0.4,0-0.6,0h-0.1l-0.9,1.1h0.2C310.5,232.3,310.6,232.2,310.6,232.2z"/>
	<path class="st6" d="M318.9,294.3l0.4-0.8c0.1-0.1-0.2-0.4-0.2-0.5c0-0.2,0-0.5,0-0.7c0.4,0.2,0.6,0.3,1,0c0.1-0.1,0-0.3,0.1-0.5
		s0-0.3,0-0.6c0.3,0.1,0.7,0.1,1,0c0.4-0.1,0.7-0.1,1-0.5c0.1-0.1,0.3-0.4,0.3-0.5c0-0.2-0.1-0.5-0.1-0.7c-0.1-0.4-0.8-0.4-0.6-0.8
		c0.2,0,1.4,0.6,1.5,0.5l1.1-1.5l1.2-1.6c0.1-0.2,0.1-0.4,0.1-0.6c0-0.1,0-0.9,0.1-0.9l1.5-1c0.2-0.1,0.6,0,0.8-0.1s0.3-0.3,0.4-0.5
		c0.3-0.4,0.8-0.9,0.8-1.4c0-0.8,0.1-1.5,0.2-2.3c0-0.3,0.2-0.5,0.4-0.7l1.1-1.5c0.3-0.4,0.3-0.4,0.2-0.9c-0.1-0.2-0.1-0.5-0.2-0.7
		c0,0-0.5-0.1-0.6-0.1c-0.4-0.4-0.8-0.7-1.3-1l-1.6-0.6l-1.6-0.6c-0.1,0-0.2-0.3-0.3-0.4l-0.8-1c-0.2-0.3-0.6-1-1-1.1
		s-1.1-0.1-1.5-0.4l-1.6-1.5c-0.3-0.2-0.6-0.3-1-0.4l-2-0.5c-0.2-0.1-0.7-0.3-1-0.2l-0.9,0.3c-0.1,0-0.5,0.1-0.6,0.2
		c-0.2,0.3-0.7,0.9-0.7,1.3c-0.2-0.3-0.4-0.5-0.7-0.6c-0.4-0.1-0.5,0-0.9,0.2c-0.5,0.2-1.3-0.8-1.2-1.4c0-0.1,0.1-0.2,0.1-0.4
		s0.1-0.4,0.1-0.7c0-0.3-0.1-0.6-0.4-0.7c-0.2,0-0.3-0.1-0.5-0.1c-0.1,0-0.2,0.1-0.4,0.1c-0.3,0-0.7,0-1-0.1
		c0.1-0.1,0.3-0.4,0.3-0.5s0.2-0.6,0-0.6c0-0.1,0.1-0.1,0.1-0.2c0,0.1,0,0.2,0.1,0.3c0-0.2,0.1-0.4,0.1-0.5l-0.1,0l0,0
		c0,0,0.1-0.1,0.1-0.1c-0.1,0-0.1,0-0.1-0.1c0.1,0,0.3-0.4,0.4-0.6c0.1-0.4-0.3-0.3-0.5-0.3c-0.2,0-0.4,0.1-0.7,0.1
		c-0.3,0.1-0.3,0.5-0.4,0.7c0,0.1-0.1,0.2-0.2,0.3c0,0,0,0.1,0,0.2c-0.1,0-0.1,0.1-0.2,0.1c-0.1,0-0.1-0.1-0.2-0.1
		c-0.1,0-0.3,0-0.4,0.1l-0.4,0.2c-0.1,0-0.2-0.1-0.2-0.2c-0.4-0.1-0.4-0.3-0.6-0.6c-0.3-0.5-0.5-1.1-0.5-1.7c0-0.3,0.1-0.5,0.2-0.8
		c0.1-0.1,0.1-0.2,0.1-0.4c0-0.1-0.2-0.3-0.2-0.4c0-0.5,0.8-1,1.1-1.2s0.5-0.3,0.7-0.2s0.3,0.1,0.4,0.1s0.3,0,0.5,0.2
		s0.2-0.1,0.3,0.1c0-0.1,0-0.1,0-0.2c0.1,0.1,0.3,0.1,0.3,0.3s0.2,0,0.1-0.1s-0.2-0.1-0.3-0.1c0.4-0.2-0.1-0.3-0.3-0.3
		c0.2-0.2,0.9,0.1,1-0.3c0.1,0.4,0.4,0.1,0.6,0.1c0.1,0.1,0.3,0.1,0.4,0.2c0.1,0.1,0.3,0,0.4-0.1s0.4,0.2,0.6,0.4s0,0.5,0.1,0.8
		l0.1-0.1c0,0.2,0,0.3,0.1,0.4c0.1,0.1,0.1,0.3,0.2,0.4c0,0,0.2,0.2,0.3,0.3s0.2,0,0.3-0.1s0.1-0.7,0-0.9c-0.1-0.4-0.2-0.7-0.4-1.1
		c-0.1-0.2-0.1-0.5-0.1-0.8c0.1-0.3,0.4-0.6,0.7-0.8c0.1-0.1,0.2-0.2,0.3-0.3c0.1-0.1,0.3-0.1,0.3-0.2s0.2-0.3,0.3-0.4
		s0.1,0.1,0.2,0l0.2-0.1c-0.1-0.1-0.2,0.1-0.3-0.1c0.1,0,0.1,0,0.2-0.1c0,0-0.1-0.1-0.1-0.1s0.4,0,0.4-0.1s-0.2-0.2-0.4-0.2
		c0.2,0,0.3,0,0.3-0.2s-0.1-0.2-0.2-0.3s0.1-0.3,0-0.4s-0.2-0.1-0.3-0.2c0.1,0,0.2,0.1,0.3,0.1c-0.1-0.4-0.2-0.5,0.1-0.7
		c0.1-0.1,0,0.2,0,0.2c0,0.1-0.1,0.3-0.1,0.4c0.2-0.1,0.1,0.1,0.2,0.2c-0.1,0.1-0.1,0.3-0.1,0.4l0,0c0.1-0.2,0.2-0.4,0.3-0.6
		c0.1-0.2-0.2-0.5-0.2-0.7c0.1,0.2,0.3,0.3,0.2,0.4c0.1-0.1,0.6-0.8,0.3-0.8c0.1-0.1,0.3-0.1,0.5-0.1c0.2,0,0.3-0.1,0.5-0.2
		c-0.1,0-0.1,0-0.2,0l0.1-0.1c-0.2,0-0.4,0.1-0.6,0.2c0.3-0.2,0.6-0.3,0.9-0.3c0.1,0,0.1-0.2,0.2-0.2s0.3,0.1,0.5,0
		c0,0-0.1-0.1-0.1-0.1c0,0,0,0.1,0,0.1c-0.5,0.1-0.1-0.6-0.1-0.8s0.1-0.2,0.2-0.3s0.3-0.1,0.4-0.3l0.1,0.1c0.1-0.2,0.8,0,0.6-0.4
		c0.1,0,0.2,0,0.3,0s0.1,0,0.2-0.1s0.4-0.4,0.6-0.3c-0.1,0.1-0.1,0.2-0.1,0.3c0.1-0.1,0.3,0,0.5,0c-0.1,0.1-0.2,0.3-0.3,0.2
		s0-0.2-0.1-0.1s-0.8,0.5-0.6,0.8c0.1,0,0.2,0.2,0.3,0.1s0.3-0.4,0.5-0.6s0.1,0.1,0.2,0c0.1-0.1,0.2-0.1,0.3-0.1l0.7-0.3
		c0,0-0.1-0.1-0.1-0.1c0.2,0,0.4,0,0.6-0.2c0.1-0.1-0.1-0.3-0.3-0.2c0.1-0.2,0.2-0.4,0-0.5c-0.1,0.2-0.5,0.5-0.3,0.7
		c-0.1,0-0.1,0-0.2,0.1c0,0,0-0.1,0-0.1c-0.3,0.2-0.5,0.1-0.8-0.1l0.1-0.1c-0.2-0.1-0.5-0.3-0.4-0.5c-0.1,0-0.1,0-0.2,0
		c0.1-0.1,0.2-0.2,0.2-0.4c-0.1,0-0.2,0-0.4,0c0,0-0.2-0.2-0.3-0.2c0.2-0.1,0.3,0.1,0.5,0s0.5-0.2,0.2-0.4l0.1,0.1
		c-0.2-0.6-1.2-0.1-1.5,0.1c-0.5,0.2-0.8,0.8-1.3,1c0.3-0.2,0.5-0.5,0.7-0.8c0.1-0.2,0.3-0.3,0.5-0.5c0.1-0.1,0.5-0.1,0.5-0.2
		c0.1-0.5,0.5-0.4,0.9-0.4c0.4,0,0.8,0,1.3,0c0.4,0.1,0.7,0,1-0.3c0.1-0.1,0.2-0.3,0.4-0.3c0.2-0.1,0.4,0,0.5-0.1
		c0.2-0.1,0.3-0.2,0.5-0.3c0.1-0.2-0.1-0.3,0-0.5s0.2-0.4,0-0.5s-0.4-0.2-0.5,0.1c-0.1-0.1,0.1-0.1,0-0.3s-0.3-0.2-0.4-0.1
		c0,0.1,0.1,0.1,0.2,0.1c-0.2,0-0.3,0.1-0.5,0.1c-0.1,0,0,0.1-0.1,0.1c-0.1,0-0.2,0.1-0.2,0.2c-0.1,0.1-0.1-0.2,0-0.3
		s0.5-0.1,0.6-0.2c-0.1,0-0.3,0.1-0.4,0.1c0.2-0.1,0.4-0.1,0.6-0.2c0.4-0.1,0-0.2-0.1-0.3c-0.2-0.1-0.4-0.2-0.7-0.2
		c-0.2,0,0-0.1-0.1-0.3s-0.2-0.2-0.3-0.3s-0.2-0.1-0.2-0.2s0.2-0.3,0.2-0.4s-0.3-0.6-0.5-0.8c-0.2-0.3-0.5-1.1-0.9-1.2l0.1-0.3
		c-0.2,0-0.4,0.3-0.4,0.5c0,0.2-0.1,0.5-0.2,0.7c0,0-0.1,0-0.2-0.1c-0.2,1-1.1-0.6-1.4,0.1c-0.1-0.1,0.1-0.3,0.2-0.5
		c-0.1,0-0.1,0-0.2,0c0.1-0.2,0.1-0.4,0-0.6c0-0.2,0-0.2,0.1-0.4c-0.1-0.1-0.3-0.2-0.5-0.2c-0.2,0-0.4-0.1-0.4-0.4s-0.4-0.3-0.5-0.4
		s-0.3-0.3-0.5-0.2s-0.8-0.2-1.2-0.1c-0.2,0-0.4,0.1-0.3,0.3c0.1,0.2,0.1,0.5,0,0.7c0,0.2,0,0.4,0.1,0.6c0.1,0.4,0.1,0.3-0.2,0.6
		s-0.2,0.2,0,0.4c0.1,0.2,0.3,0.3,0.5,0.5c0.2,0.4,0.2,0.8,0,1.2c-0.2,0.3-0.8,0.5-1.1,0.7c0.1,0.1,0.3,0.4,0.3,0.5l0.1,0.9
		c0,0.3-0.5,0.9-0.8,0.6s-0.8-0.7-0.7-1.2s0-0.7,0-1c0-0.1-0.5-0.1-0.5-0.1l-0.7-0.1c-0.2,0-0.4-0.3-0.6-0.4
		c-0.4-0.3-0.8-0.5-1.3-0.6c-0.2,0-0.4-0.2-0.5-0.1c-0.3,0.1-0.4,0.2-0.5-0.1c-0.1-0.2-0.1-0.7-0.3-0.8s-0.5-0.1-0.7-0.2
		c0.1-0.4,0.2-0.8,0.3-1.3c0.1-0.4,0.3-0.7,0.6-1c0-0.1,0.2-0.3,0.2-0.3c0.2,0,0.4,0,0.6-0.1c0.2-0.1,0-0.3-0.1-0.4
		c-0.2-0.1-0.4-0.1-0.5-0.1c0,0,0.1-0.1,0.1-0.1l-0.5-0.2l0.7,0.2c0.4,0.1,0.4,0.1,0.8-0.1c0.1-0.1,0.2,0,0.4,0s0.2-0.1,0.3-0.1
		s0.3-0.5,0.4-0.7c-0.3,0-0.6,0-0.8-0.1l-0.9-0.5c0.4,0,0.8,0,1.2,0.2c0.2,0.1,0.3,0.2,0.6,0.1c0.2-0.1,0.3-0.3,0.4-0.5l-0.3-0.2
		c0.1-0.2,0.3-0.1,0.5-0.1s0,0.2,0.1,0.2l0.3,0.1c0,0,0-0.1,0-0.1l0.3,0.2l-0.2-0.5c0.1,0.1,0.3,0.4,0.4,0.2
		c0.2-0.1,0.4-0.2,0.6-0.4c0.2-0.3,0.1-0.4-0.1-0.6c-0.2-0.2-0.3-0.4-0.3-0.6c0.1,0,0.4,0,0.5-0.1s-0.1-0.3,0.1-0.5
		c-0.2,0-0.4-0.1-0.5-0.3c-0.1-0.1-0.5-0.1-0.7-0.1s-0.4-0.1-0.4,0.1s0.1,0.4,0.2,0.6c-0.3,0.1-0.4,0.1-0.4,0.5
		c0,0.1-0.2,0.2-0.2,0.2s-0.1,0.2-0.1,0.3c0,0.6-1.2-0.5-0.7-0.8c0,0.1,0,0.1,0,0.1c0.2-0.1,0.1-0.3,0.1-0.5s-0.4-0.2-0.5-0.3
		s-0.2,0.2-0.2,0.3c0,0.2-0.1,0.4-0.2,0.5c-0.2-0.1-0.2-0.2-0.1-0.4s0-0.2-0.2-0.4l0.3-0.2c-0.2-0.1-0.3-0.2-0.5-0.1s-0.3,0-0.5-0.1
		l0.5-0.4c-0.1-0.1-0.2-0.2-0.4-0.4c-0.2,0.3-0.4,0.6-0.6,0.9c0.1,0,0.2,0,0.2,0.1c-0.1,0-0.2,0-0.3,0.1l-0.1,0.3v0.1l0.4-0.2
		c0,0.1,0.1,0.3,0,0.4s-0.2,0.3-0.4,0.3c-0.5,0.1-0.3,0.4-0.2,0.8c-0.1,0-0.3-0.1-0.4-0.2c-3.6,6.6-5.6,14-5.5,21.5c0,0.5,0,1,0,1.5
		l0.2,0.2c0,0.1,0.2,0.2,0.2,0.3s-0.1,0.2,0,0.3l0.8,0.7c0.2,0.1,0.3,0.3,0.4,0.5c0.1,0.2,0.5,0.6,0.4,0.8s-0.2,0.5,0,0.7l0.7,0.8
		c0.1,0.1,0.3,0.1,0.4,0.2l1.1,0.5c0.5,0.2,1,0.5,1.5,0.4c0.2-0.1,0.5-0.3,0.6-0.1l0.8,0.8c0.3,0.3,1,0.3,1.4,0.5s0.7,0.5,1.1,0.9
		c0.1,0.2,0.1,0.4,0.2,0.6c0.2,0.2,0.5,0.4,0.7,0.5l0.3,0.2c0,0,0.1-0.1,0.2,0s0.5,0.4,0.5,0.2c0.1,0.3,0.1,0.3,0.4,0.2
		c0-0.1-0.2-0.2-0.1-0.3c0.1-0.1,0.2-0.2,0.3-0.3c0.2-0.1,0.2-0.1,0.3,0s0.2,0.1,0.2,0.4s0.4,0.4,0.4,0.6s0,0.3,0,0.3s0,0.2,0,0.4
		c0.1,0.7-0.2,1-0.6,1.5l-0.5,0.7c-0.1,0.2-0.2,0.5-0.2,0.8c-0.1,0.4-0.4,1-0.2,1.4l0.9,1.8l1.1,2.1c0.1,0.3,0.3,0.6,0.6,0.8
		l0.9,0.6c0.1,0.1,0.5,0.3,0.6,0.4c0.1,0.3,0.1,0.5,0.1,0.8c0.1,0.3,0.1,0.6,0.1,0.9c0,0.4-0.1,0.7-0.2,1.1
		c-0.1,0.8-0.3,1.6-0.5,2.4l-0.8,4c-0.1,0.5-0.2,1.1-0.2,1.6c0.9,0.9,1.9,1.7,3,2.5h0.1C318.7,294.6,318.8,294.6,318.9,294.3z
		 M313.5,253.3c-0.2,0.2-0.5,0.3-0.8,0.5c-0.3,0.1-0.5,0.3-0.8,0.3l0.1-0.1l-0.3-0.1c0.1-0.2,0.2-0.4,0.3-0.5c0,0.1,0,0.1,0.1,0.1
		c-0.1,0-0.2,0.1-0.2,0.2c0.2,0.1,0.3,0,0.4-0.1c0.1-0.1,0.3-0.2,0.5-0.2c0.2,0,0.7-0.1,0.7-0.3
		C313.6,253.2,313.5,253.2,313.5,253.3L313.5,253.3z M313.4,252.8c0.2,0,0.5-0.2,0.7-0.1s0.5-0.2,0.7-0.3l-0.2,0.2
		c0.3,0.1-0.3,0.6-0.6,0.4S312.9,253.4,313.4,252.8L313.4,252.8z M308.8,250.7l0.5-0.2c0.1-0.1,0.1-0.3,0.3-0.3c0,0,0,0.1,0,0.1
		c0.1,0,0.1-0.2,0.2-0.3c0,0.1,0,0.1-0.1,0.2c0.1-0.1,0.3-0.2,0.1-0.3c0.1,0,0.3,0.1,0.4,0.1c0.1,0.1,0.2-0.1,0.4,0s0.2,0.5,0.6,0.4
		c-0.1,0.3,0.1,0.2,0.1,0.4s-0.1,0.1,0,0.2s0.1,0.1,0,0.2s0.5,0.2,0.6,0.3c0.3,0.1,0.6,0.1,0.8,0.1s0.3,0.5,0.5,0.7
		c-0.2-0.1-0.1,0.1-0.1,0.1s-0.3-0.1-0.4,0s0,0-0.1-0.1s0-0.1,0.1-0.1c-0.2,0-0.1-0.2-0.3-0.1c0.3,0.1,0.1,0.4,0,0.6s0,0.3,0,0.3
		c-0.1,0.1-0.2,0.2-0.3,0.3c0-0.1,0-0.6-0.2-0.6s-0.4,0.3-0.4,0.1s0.1-0.2,0.2-0.3s0.1-0.3,0-0.4h0.1c0-0.2-0.2-0.2-0.4-0.3
		s-0.5-0.2-0.3,0.1c-0.2,0-0.2,0.2-0.3,0.3c0-0.1,0-0.2,0-0.2c-0.1,0.2-0.4,0.3-0.3,0.7c0.1,0.3,0.1,0.7,0,1
		c-0.3,0.7-0.5-0.2-0.5-0.5c0-0.2,0.1-0.4,0.1-0.6c0-0.1,0.2-0.4,0.2-0.5c-0.1,0.1-0.2,0.4-0.4,0.4c0.1-0.3,0.2-0.5,0.4-0.7
		c0,0,0,0.1,0,0.1c0.1,0,0.1-0.1,0.2-0.1l-0.1,0.1l0,0c0.1-0.2,0.4-0.3,0.7-0.2c0,0,0,0,0.1,0c0.1-0.2,0.2-0.1,0.3-0.1
		c-0.1-0.1-0.1-0.2-0.2-0.3s-0.3,0-0.2-0.2c-0.2,0.1-0.5,0.1-0.7,0.2c-0.1-0.1-0.2,0-0.3-0.1c-0.1-0.1-0.3-0.1-0.4,0
		c0-0.2,0.2-0.3,0.3-0.3c-0.3-0.2-0.9,0.6-1.3,0.4c0,0,0-0.1,0-0.1c-0.2,0-0.3,0.2-0.5,0.1L308.8,250.7z M305.9,248.2
		c-0.1-0.2-0.5-0.6-0.1-0.6c-0.3-0.1-0.4,0-0.2-0.4c0.1-0.2,0.3-0.1,0.5,0c-0.2-0.1-0.2-0.2-0.1-0.4l0.1,0.1c-0.1,0-0.2,0.1-0.2,0.2
		c0.1,0,0.1,0,0.1-0.1h0c-0.2,0.1,0.2,1,0.3,1.2c0,0.2,0.1,0.3,0.2,0.4c0.1,0.1,0,0.3,0,0.4h-0.1c0,0.1-0.1,0.3-0.1,0.1
		c-0.1-0.2,0-0.4,0.1-0.5c-0.1,0-0.1,0-0.1,0.1c0-0.1,0.1-0.2,0.1-0.3s-0.1,0-0.2,0.1c0-0.1,0.1-0.3-0.1-0.3s0,0,0,0.1
		c0,0,0-0.1,0-0.1c-0.1,0-0.1,0-0.1,0.1L305.9,248.2z"/>
	<path class="st6" d="M309.1,234.4c0,0.2,0,0.4,0.1,0.5c0.4,0,0.7,0,1,0.3l-0.9-0.1c0.1,0.2,0.3,0.4,0.6,0.6c0.2,0.1,0.3,0,0.4,0
		c0.3,0,0.1,0.1,0.3,0.2c0.1,0.1,0.3,0.1,0.5,0.1c0.3,0,0.7,0,1,0.1l0.3,0.1c0.1,0,0.1-0.1,0.1-0.1s0.2,0.2,0.4,0.2l-0.4-0.3
		c0.4,0.2,0.8,0.2,1.3,0.1c-0.1-0.2-0.1-0.3-0.3-0.4c0.2-0.2,0.2,0.1,0.4,0.2s0.2-0.1,0.2,0l0.1,0.3c0.2-0.2,0.6,0.3,0.8,0.4
		c-0.3,0.1-0.4,0.1-0.4,0.4l0.5-0.2c0.2-0.1,0.2-0.1,0.3,0.1s0.5,0.2,0.6,0.5s0.2,0.4,0.3,0.6s-0.1,0.1-0.1,0.2l-0.7,0.8
		c0.1,0.1,0.4,0.2,0.3,0.4s-0.5,0.1-0.5,0.2c-0.3,0-0.6,0-0.9-0.1c0,0.2-0.2,0.2-0.3,0.4s0.1,0.4,0.3,0.4s0.5,0,0.6-0.1s0.4,0,0.5,0
		c0-0.1,0-0.1,0-0.2s0.2,0,0.2,0.2c0.3-0.2,0.3,0,0.5,0.3s0.3,0.2,0.5,0.3l-0.3,0.2c0.1,0.1,0.3,0.2,0.5,0.2l-0.1,0.1l0.6,0.2
		c0.1,0,0.1,0.2,0.2,0.2l1.2,0.3c0-0.2,0.1-0.3-0.1-0.4l-0.4-0.3c-0.1-0.1-0.3,0-0.4-0.1l-0.2-0.4l0.4,0.2c0-0.1,0-0.1-0.1-0.2
		l0.7,0.5c0.1,0.1,0.4,0.4,0.4,0.4l-0.1-0.2c0,0,0.1,0,0.1,0c0.1-0.2-0.2-0.3-0.1-0.5l0.2,0.3c0-0.2,0-0.4-0.1-0.5
		c-0.1-0.1-0.2-0.1-0.3-0.3s0-0.3-0.2-0.4s-0.3-0.2-0.3,0.1c-0.1-0.2-0.1-0.3-0.2-0.5s-0.1-0.1-0.3-0.1c0-0.1-0.1-0.2-0.1-0.3h0.3
		c0-0.2-0.2-0.2-0.1-0.4s0.2-0.1,0.3,0s0.2,0.3,0.4,0.4s0.3-0.1,0.4-0.1c0.1,0.2-0.2,0.3-0.3,0.3c0.2,0.3,0.5,0.5,0.8,0.6
		c0-0.2,0-0.5,0-0.7c0.3,0.2,0.4,0,0.7-0.1l-0.3-0.1c0.1-0.1,0.3,0,0.4,0c0-0.3,0.1-0.5-0.1-0.6s-0.5,0-0.7,0l0.2-0.3
		c-0.3,0-0.4,0-0.6-0.2c-0.1-0.2-0.3-0.3-0.4-0.3c-0.4-0.2-0.9-0.3-1.3-0.5h0.4c0-0.1,0-0.2,0-0.3l0.5,0.1c-0.1-0.3-0.1-0.3-0.3-0.2
		c-0.1,0-0.3,0-0.4-0.1c0.2-0.1,0.4-0.2,0.6-0.1c0-0.2-0.2-0.3-0.4-0.4c0,0.2-0.3,0.3-0.4,0.3c0-0.2-0.1-0.2-0.3-0.2
		c0.2-0.1,0.5-0.1,0.6-0.3c-0.2-0.1-1-0.6-1.1-0.4s-0.4,0.4-0.5,0.1c0-0.1,0.4-0.3,0.4-0.3c-0.1-0.4-0.6-0.3-0.8-0.2
		s-0.5-0.5-0.7-0.7c-0.2-0.2-0.5-0.3-0.8-0.3c-0.1,0-0.4,0-0.5,0.1s-0.3,0.3-0.3,0.3c-0.3-0.1-0.2-0.2-0.5,0.1s-0.3,0.1-0.2-0.1
		s0.2-0.3,0-0.5s-0.1-0.1-0.2-0.3s-0.1-0.4-0.2-0.4c-0.1,0-0.3,0-0.4,0c-0.3,0.1-0.6,0.2-0.9,0.3l0.1-0.4c-0.4-0.1-0.8,0-1.1,0.1
		c-0.1,0-0.2,0.1-0.3,0.2l-0.4,0.5l0,0C309.2,234,309.1,234.2,309.1,234.4z"/>
	<path class="st6" d="M353,243.2c0,0,0-0.1,0-0.1h0.1C353,242.8,352.7,243,353,243.2z"/>
	<path class="st6" d="M301.4,262.9c0-0.1-0.1-0.3-0.2-0.4v0.5C301.3,263,301.4,263,301.4,262.9z"/>
	<path class="st6" d="M312.4,251.8L312.4,251.8L312.4,251.8c0,0,0.1-0.1,0-0.2L312.4,251.8c0-0.2-0.1-0.2-0.2-0.2c0,0,0,0-0.1,0
		c-0.1,0.1-0.2-0.1-0.3,0h0.1C312,251.7,312.2,251.8,312.4,251.8z"/>
	<path class="st6" d="M308.8,251.1c0,0,0,0.1,0,0.1c0.4,0.2,1-0.6,1.3-0.4c-0.1,0.1-0.3,0.2-0.3,0.3c0.1-0.1,0.3-0.1,0.4,0
		c0.1,0.1,0.2,0.1,0.3,0.1c0.2,0,0.5-0.1,0.7-0.2c-0.1,0.2,0.1,0.1,0.2,0.2s0.1,0.2,0.2,0.3c-0.1,0-0.3-0.1-0.3,0.1
		c-0.2-0.2-0.5-0.1-0.7,0.1c0,0,0,0,0,0.1l0,0l0.1-0.1c-0.1,0-0.1,0.1-0.2,0.1c0,0,0-0.1,0-0.1c-0.2,0.2-0.3,0.4-0.4,0.7
		c0.2,0,0.2-0.3,0.4-0.4c0,0.1-0.1,0.4-0.2,0.5c-0.1,0.2-0.1,0.4-0.1,0.6c0,0.3,0.2,1.2,0.5,0.5c0.1-0.3,0.1-0.7,0-1
		c-0.1-0.4,0.2-0.5,0.3-0.7c0,0.1,0,0.2,0,0.2c0.1-0.1,0.1-0.3,0.3-0.3c-0.2-0.2,0.2-0.2,0.3-0.1s0.3,0.1,0.4,0.3h-0.1
		c0.1,0.1,0.1,0.3,0,0.4s-0.2,0.2-0.2,0.3s0.3-0.1,0.4-0.1s0.2,0.4,0.2,0.6c0.1-0.1,0.2-0.2,0.3-0.3c0-0.1,0-0.2,0-0.3
		s0.3-0.4,0-0.6c0.2-0.1,0.1,0.2,0.3,0.1c0,0.1,0,0.1-0.1,0.1s0,0,0.1,0.1s0.3,0,0.4,0s0-0.2,0.1-0.1c-0.2-0.2-0.2-0.6-0.5-0.7
		s-0.6-0.1-0.8-0.1c-0.1,0-0.6-0.2-0.6-0.3s0-0.1,0-0.2s0-0.1,0-0.2s-0.2-0.1-0.1-0.4c-0.4,0.1-0.4-0.1-0.6-0.4s-0.2,0-0.4,0
		c-0.1-0.1-0.3-0.1-0.4-0.1c0.1,0.1,0,0.2-0.1,0.3c0-0.1,0.1-0.1,0.1-0.2c-0.1,0.1-0.1,0.2-0.2,0.3c0,0,0-0.1,0-0.1
		c-0.2,0-0.1,0.2-0.3,0.3l-0.5,0.2l-0.5,0.5C308.5,251.2,308.6,251.1,308.8,251.1z M312.1,251.6c0.1-0.1,0.2,0,0.2,0c0,0,0,0,0,0.1
		v-0.1c0,0.1,0,0.1-0.1,0.2l0,0l0-0.1c-0.1,0.1-0.3,0-0.5-0.1h-0.1C312,251.5,312,251.7,312.1,251.6L312.1,251.6z M311.8,251.6
		L311.8,251.6c-0.1,0-0.1,0-0.2,0l0.1-0.1L311.8,251.6z M311.6,251.5C311.6,251.5,311.6,251.5,311.6,251.5L311.6,251.5
		C311.5,251.5,311.5,251.4,311.6,251.5L311.6,251.5z"/>
	<path class="st6" d="M311.6,251.4c-0.1-0.1-0.1,0-0.1,0H311.6C311.6,251.5,311.6,251.5,311.6,251.4z"/>
	<path class="st6" d="M311.8,251.6L311.8,251.6l-0.1-0.1l-0.1,0.1C311.6,251.6,311.7,251.6,311.8,251.6z"/>
	<path class="st6" d="M348.4,254.6c0,0.1-0.1,0.2-0.1,0.2s0.1,0.1,0.1,0.1c0,0.2-0.2,0.2,0,0.4s0.2,0.1,0.2-0.1s0.2,0,0.2-0.2
		s0-0.4,0.1-0.6c0-0.4-0.4-0.2-0.5-0.1h-0.1C348.2,254.5,348.4,254.4,348.4,254.6z"/>
	<path class="st6" d="M364.2,226.5l-0.6,0.4c0.3,0.1,0.6,0.1,0.9,0.1l-0.1-0.3l1.1-0.3c-0.2-0.1-0.3-0.3-0.6-0.2
		c-0.2,0.1-0.5,0.1-0.7,0.1c-0.5-0.1-0.9,0-1.4,0.2l0.5,0.1L364.2,226.5z"/>
	<path class="st6" d="M365.8,235c0.2,0.3,0.5,0.4,0.9,0.5c0.3,0,1,0.2,1.2,0c-0.4-0.3-0.8-0.6-0.8-1.1s0.4-0.9,0.7-1.2
		s0.3-0.4,0.5-0.6c0.2-0.2,0.4-0.3,0.6-0.4c0.3-0.3,0.6-0.5,1-0.6c0.5-0.1,1-0.3,1.4-0.4c0.2-0.1,1.2-0.2,1.2-0.7s-0.9-0.3-1.1-0.1
		c-0.4,0.3-0.8,0.4-1.3,0.5c-0.4,0-0.8,0.1-1.1,0.2c-0.4,0.1-0.7,0.2-1.1,0.4c-0.3,0.2-0.6,0.5-0.8,0.8l-0.5,0.6
		c-0.1,0.2-0.1,0.3,0,0.5s-0.4,0.3-0.5,0.4c-0.2,0.2,0,0.2-0.1,0.4s-0.4,0.1-0.4,0.3S365.6,234.8,365.8,235z"/>
	<path class="st6" d="M366.7,226.9c-0.5-0.2-0.5-0.1-0.8,0.2l0.5,0.1L366.7,226.9z"/>
	<path class="st6" d="M368.1,226.3c-0.3-0.1-0.5-0.2-0.8-0.2c-0.4,0-0.5,0-0.8,0.3l0.8,0.2C367.6,226.6,367.9,226.5,368.1,226.3z"/>
	<path class="st6" d="M368.3,225.8l-0.3-0.3l0.6-0.2c-0.4-0.1-0.5-0.1-0.8,0.1s-0.5,0.3-0.7,0.5l0.6,0.1L368.3,225.8z"/>
	<path class="st6" d="M351.3,237.4c0,0-0.1,0-0.1,0c0,0.1,0,0.1,0,0.2l0.4-0.4C351.4,237.2,351.3,237.3,351.3,237.4z"/>
	<path class="st6" d="M353.3,235.9c-0.1,0-0.1,0-0.2,0c0,0,0,0.1,0,0.1C353.3,236.1,353.3,236,353.3,235.9z"/>
	<path class="st6" d="M353.6,235.9c0.4,0,0.7-0.2,0.9-0.5c-0.2,0-0.2,0.2-0.3,0.2c-0.2,0-0.3,0-0.5,0
		C353.8,235.8,353.7,235.9,353.6,235.9z"/>
	<path class="st6" d="M354.1,235.6c0.1-0.1,0.2-0.1,0.2-0.3c-0.1,0.1-0.1,0.1-0.3,0.1c-0.1,0-0.2,0-0.3,0
		C353.8,235.7,354,235.7,354.1,235.6z"/>
	<path class="st6" d="M368.5,235.7l-0.2,0.1c0.1,0.2,0.6,0.6,0.8,0.4S368.6,235.8,368.5,235.7z"/>
	<path class="st6" d="M373.1,233.2c-0.2,0-0.2,0.1-0.2,0.4l0.7-0.1C373.5,233.3,373.3,233.1,373.1,233.2z"/>
	<path class="st6" d="M364.4,237c0.1,0.1,0.5-0.2,0.6-0.3c-0.1-0.1-0.3-0.2-0.5-0.3C364.2,236.6,364.1,236.7,364.4,237z"/>
	<path class="st6" d="M352.5,244.9c-0.1-0.1,0-0.2,0.1-0.4c-0.4-0.1-0.4,0.3-0.4,0.6C352.3,245.1,352.4,245,352.5,244.9z"/>
	<path class="st6" d="M349.6,246.3c0.2,0,0.1,0.1,0.2,0.3c0-0.2,0-0.4,0.2-0.4c0,0-0.1-0.1-0.1-0.1c0.5-0.1-0.3-0.6-0.1-0.1
		c-0.1,0-0.2-0.1-0.1-0.2h-0.1c0,0.1,0,0.2-0.1,0.2C349.4,246.1,349.4,246.3,349.6,246.3z"/>
	<path class="st6" d="M368.9,227.2c-0.1-0.2-0.3-0.1-0.4,0l0.2,0.1L368.9,227.2z"/>
	<path class="st6" d="M368.3,226.7c-0.1,0-1.1,0-1,0.3s0.8,0.1,1,0c0,0-0.1-0.1-0.1-0.1l0.4-0.1L368.3,226.7z"/>
	<path class="st6" d="M368.8,226.7c0.1,0,0.2,0,0.3,0.1s0.6-0.1,0.7-0.2s-0.2-0.5-0.4-0.4c-0.3,0.1-0.6,0.2-0.8,0.3
		C368.6,226.6,368.6,226.7,368.8,226.7z"/>
	<path class="st6" d="M370.1,226.5l0.8-0.2c0.2-0.1,0.2-0.1,0.2-0.4c-0.1,0-0.3,0-0.4,0s-0.1,0.2-0.1,0.3s-0.4-0.2-0.6,0.1
		C370,226.4,370.1,226.5,370.1,226.5z"/>
	<path class="st7" d="M357.1,291.7c-17.8-3.5-30.3-18.7-34.9-35.6c-3.5-13.2-2-27.6,6.7-37.7c-22.8,9-33.9,34.7-25,57.4
		c9,22.8,34.7,33.9,57.4,25c5.6-2.2,10.8-5.6,15.1-9.9C370.2,292.6,363.5,292.9,357.1,291.7z"/>
</g>
<g id="email">
	<path class="st5" d="M72.6,150.2l162.9-93.8c2.4-1.4,5.5-0.5,6.8,1.9c0.4,0.6,0.6,1.3,0.6,2l10.4,129.9c0.1,1.9-0.8,3.8-2.5,4.7
		L91.5,285.3c-2.4,1.3-5.5,0.5-6.8-1.9c-0.3-0.6-0.5-1.2-0.6-1.8L70.2,155C70,153,70.9,151.1,72.6,150.2z"/>
	<path class="st8" d="M141.1,186l-2.5-33.6l-0.4-4.8c0-1-0.9-1.9-1.9-1.8c-0.3,0-0.6,0.1-0.9,0.2l-14.1,8.5L98.7,168l-5.2,3.1
		c-0.6,0.3-0.9,0.9-0.9,1.6l3.4,31l0.5,4.4c0,1,0.9,1.9,2,1.8c0.3,0,0.6-0.1,0.9-0.2l13.8-7.4l22.1-12l5-2.8
		c2.1-1.1,0.2-4.4-1.9-3.2l-13.8,7.5l-22.1,12l-5,2.7l2.8,1.6l-3.4-31l-0.5-4.4l-0.9,1.6l14.1-8.5l22.6-13.6l5.2-3.1l-2.8-1.6
		l2.6,33.6l0.4,4.8C137.5,188.3,141.3,188.4,141.1,186z"/>
	<path class="st8" d="M94,174.6c3.5,0.5,6.9,1,10.4,1.4c5,0.7,10.1,1.4,15.2,1.6c1.4,0,2.9,0.1,4-1c1.1-1.2,2-2.5,2.8-4
		c2.6-4.6,4.9-9.3,7.1-14.1c1.6-3.3,3.1-6.7,4.6-10c0.7-1.6-0.8-3.6-2.6-2.6l-14.1,8.5L98.7,168l-5.2,3.1c-2.1,1.2-0.2,4.5,1.9,3.2
		l14.1-8.5l22.6-13.6l5.2-3.1l-2.6-2.6c-3.3,7.4-6.6,14.8-10.5,21.9c-0.9,1.7-1.8,3.3-2.9,4.9c-0.2,0.3-0.1,0.2-0.1,0.1l-0.2,0.3
		l-0.2,0.2c-0.2,0.3,0.3-0.2,0.1-0.1s0.5-0.2,0.2-0.1s0.4,0,0.1,0h-0.9c-4.7-0.1-9.4-0.6-14-1.3c-3.8-0.5-7.6-1-11.4-1.6
		c-1-0.2-2,0.3-2.3,1.3C92.4,173.2,92.9,174.2,94,174.6C94,174.5,94,174.6,94,174.6z"/>
	<g class="st9">
		<path class="st8" d="M94,174.6c3.5,0.5,6.9,1,10.4,1.4c5,0.7,10.1,1.4,15.2,1.6c1.4,0,2.9,0.1,4-1c1.1-1.2,2-2.5,2.8-4
			c2.6-4.6,4.9-9.3,7.1-14.1c1.6-3.3,3.1-6.7,4.6-10c0.7-1.6-0.8-3.6-2.6-2.6l-14.1,8.5L98.7,168l-5.2,3.1c-2.1,1.2-0.2,4.5,1.9,3.2
			l14.1-8.5l22.6-13.6l5.2-3.1l-2.6-2.6c-3.3,7.4-6.6,14.8-10.5,21.9c-0.9,1.7-1.8,3.3-2.9,4.9c-0.2,0.3-0.1,0.2-0.1,0.1l-0.2,0.3
			l-0.2,0.2c-0.2,0.3,0.3-0.2,0.1-0.1s0.5-0.2,0.2-0.1s0.4,0,0.1,0h-0.9c-4.7-0.1-9.4-0.6-14-1.3c-3.8-0.5-7.6-1-11.4-1.6
			c-1-0.2-2,0.3-2.3,1.3C92.4,173.2,92.9,174.2,94,174.6C94,174.5,94,174.6,94,174.6z"/>
	</g>
	<path class="st8" d="M102.7,228.4l14.5-7.9l23.2-12.6l5.3-2.9c2.1-1.1,0.2-4.4-1.9-3.2l-14.5,7.8l-23.2,12.6l-5.3,2.9
		C98.7,226.3,100.6,229.5,102.7,228.4L102.7,228.4z"/>
	<path class="st8" d="M104.9,240l14.5-7.8l23.2-12.6l5.3-2.9c2.1-1.1,0.2-4.4-1.9-3.2l-14.5,7.9l-23.2,12.6l-5.3,2.9
		C100.9,237.9,102.8,241.1,104.9,240L104.9,240z"/>
	<path class="st8" d="M104.9,250.4l14.5-7.8l23.2-12.6l5.4-2.9c2.1-1.1,0.2-4.4-1.9-3.2l-14.5,7.9l-23.3,12.6l-5.3,2.9
		C100.9,248.3,102.8,251.5,104.9,250.4L104.9,250.4z"/>
	<path class="st8" d="M149.1,148.5l14.5-7.9l23.2-12.6l5.3-2.9c2.1-1.2,0.2-4.4-1.9-3.2l-14.5,7.9l-23.2,12.6l-5.3,2.9
		C145.1,146.4,147,149.6,149.1,148.5z"/>
	<path class="st8" d="M151.3,160.1l14.5-7.9l23.2-12.6l5.3-2.9c2.1-1.1,0.2-4.4-1.9-3.2l-14.5,7.8L154.8,154l-5.3,2.9
		C147.3,158,149.2,161.2,151.3,160.1L151.3,160.1z"/>
	<path class="st8" d="M151.3,170.5l14.5-7.9l23.2-12.6l5.3-2.9c2.1-1.1,0.2-4.4-1.9-3.2l-14.5,7.8l-23.2,12.6l-5.3,2.9
		C147.4,168.4,149.2,171.7,151.3,170.5L151.3,170.5z"/>
	<path class="st8" d="M153.8,186.1l14.5-7.9l23.2-12.6l5.3-2.9c2.1-1.1,0.2-4.4-1.9-3.2l-14.5,7.8L157.2,180l-5.3,2.9
		C149.8,184,151.6,187.2,153.8,186.1L153.8,186.1z"/>
	<path class="st8" d="M156,197.7l14.5-7.8l23.2-12.6l5.3-2.9c2.1-1.1,0.2-4.4-1.9-3.2l-14.5,7.8l-23.2,12.6l-5.3,2.9
		C151.9,195.6,153.8,198.8,156,197.7L156,197.7z"/>
	<path class="st8" d="M158.6,210.9l14.5-7.8l23.2-12.6l5.3-2.9c2.1-1.1,0.2-4.4-1.9-3.2l-14.5,7.8l-23.2,12.6l-5.3,2.9
		C154.6,208.8,156.5,212,158.6,210.9z"/>
	<path class="st8" d="M158.6,222.6l14.5-7.9l23.2-12.6l5.3-2.9c2.1-1.1,0.2-4.4-1.9-3.2l-14.5,7.9l-23.2,12.6l-5.3,2.9
		C154.6,220.5,156.5,223.7,158.6,222.6z"/>
	<polygon class="st10" points="274.5,196.9 269.1,125.4 191.2,172.3 198.3,238.2 	"/>
	<path class="st5" d="M191.2,172.3c0,0,46,6.9,50.8,5.3s27.1-52.2,27.1-52.2L191.2,172.3z"/>
	<path class="st11" d="M191.2,172.3c0,0,46,6.9,50.8,5.3s27.1-52.2,27.1-52.2L191.2,172.3z"/>
	<polygon class="st10" points="304.7,222.5 299.3,151.1 221.4,198 228.5,263.9 	"/>
	<path class="st5" d="M221.4,198c0,0,46,6.9,50.8,5.3s27.1-52.2,27.1-52.2L221.4,198z"/>
	<path class="st11" d="M221.4,198c0,0,46,6.9,50.8,5.3s27.1-52.2,27.1-52.2L221.4,198z"/>
	<g class="st12">
		<path class="st6" d="M243.5,67l-0.5-6.7c-0.2-2.8-2.7-4.8-5.4-4.5c-0.7,0.1-1.4,0.3-2,0.6L72.6,150.2c-1.7,1-2.7,2.9-2.5,4.8
			l1.2,11C73.9,164,243.5,67,243.5,67z"/>
	</g>
	<g class="st13">
		<ellipse class="st14" cx="77.3" cy="155.3" rx="1.7" ry="2.8"/>
		<ellipse class="st14" cx="82.8" cy="152.1" rx="1.7" ry="2.8"/>
		<ellipse class="st14" cx="87.5" cy="149.7" rx="1.7" ry="2.8"/>
	</g>
</g>
<g id="plant">
	<path class="st5" d="M233.3,346.5c0,0-5.3,36.1,17.4,36.2C272.6,382.8,267,346,267,346S251.1,332.2,233.3,346.5z"/>
	<path class="st15" d="M233.3,346.5c0,0-5.3,36.1,17.4,36.2C272.6,382.8,267,346,267,346S251.1,332.2,233.3,346.5z"/>
	<ellipse class="st5" cx="250.1" cy="346.5" rx="16.8" ry="6.9"/>
	<ellipse class="st16" cx="250.1" cy="346.5" rx="16.8" ry="6.9"/>
	<path class="st17" d="M223.6,293.7c0,0-11.7-2.8-7.2-12.6C216.4,281.2,224.5,282.8,223.6,293.7z"/>
	<path class="st17" d="M230.8,303.5c0,0-1.6-8.3,4.9-11.7C235.7,291.9,240.9,300.6,230.8,303.5z"/>
	<path class="st17" d="M238.1,316.3c0,0-1.9-10,5.9-14C243.9,302.3,250.2,312.8,238.1,316.3z"/>
	<path class="st17" d="M243.8,330.2c0,0-1.9-10,5.8-14C249.6,316.2,255.9,326.7,243.8,330.2z"/>
	<path class="st17" d="M230.1,303.8c0,0-4.1-7.4-11.3-5.8C218.8,298,220.4,308,230.1,303.8z"/>
	<path class="st17" d="M237.5,316.6c0,0-5.3-8.7-13.8-6.4C223.7,310.2,226.1,322.2,237.5,316.6z"/>
	<path class="st17" d="M243.1,330.4c0,0-6.2-8-14.4-4.8C228.7,325.5,232.4,337.1,243.1,330.4z"/>
	<path class="st18" d="M247.5,353.5h0.2c0.5,0,1.1,0,1.6,0.1c0-0.1,0-0.1,0-0.2c-2.6-22.3-11.3-43.4-25.3-61c-0.7-0.9-2,0.4-1.3,1.3
		C236.4,311,244.9,331.6,247.5,353.5L247.5,353.5z"/>
	<path class="st17" d="M275.2,309.6c0,0,10-2.4,6.2-10.8C281.4,298.9,274.5,300.2,275.2,309.6z"/>
	<path class="st17" d="M269.1,318.1c0,0,1.4-7.1-4.2-10C264.9,308,260.4,315.5,269.1,318.1z"/>
	<path class="st17" d="M262.8,329c0,0,1.7-8.5-5-12C257.8,317,252.4,326,262.8,329z"/>
	<path class="st17" d="M258,341c0,0,1.7-8.6-5-12C253,329,247.6,337.9,258,341z"/>
	<path class="st17" d="M269.7,318.3c0,0,3.5-6.4,9.7-5C279.4,313.3,278,321.9,269.7,318.3z"/>
	<path class="st17" d="M263.4,329.3c0,0,4.5-7.4,11.8-5.5C275.1,323.8,273.1,334,263.4,329.3z"/>
	<path class="st17" d="M258.5,341.1c0,0,5.3-6.9,12.3-4.1C270.9,336.9,267.7,346.9,258.5,341.1z"/>
	<path class="st18" d="M274.9,308.6c-10.4,13.1-17.4,28.4-20.5,44.8c0.5-0.1,1.1-0.2,1.6-0.2c3.1-15.9,10-30.8,20-43.5
		C276.6,308.9,275.5,307.8,274.9,308.6z"/>
</g>
<g id="character_1">
	<path class="st19" d="M389.9,132.6c-0.5,0.5-1,1.1-1.6,1.6c0.6-1.8,1.3-3.5,2.1-5.2c0.8-1.7-1.7-3.1-2.5-1.4
		c-0.9,1.7-1.6,3.5-2.2,5.4l0.9-8c0.2-1.8-2.7-1.8-2.9,0c-0.3,2.7-1,5.3-1.3,8c-0.1-0.1-0.1-0.1-0.1-0.1h-0.1
		c0.1-2.1-0.1-4.1,0.1-6.1c0.2-1.8-2.7-1.8-2.9,0c-0.2,2-0.3,4.1-0.4,6.1c-0.2,1.2-0.5,2.4-0.7,3.6c-1-2.6-2.4-5.4-3.8-4.1
		c-1,1,0.1,3.3,0.5,4.3c1.4,3.5,2.6,6.1,2.2,10c-0.1,0.8,1,0.9,1.3,0.3c0,0,0,0.1,0,0.1c0.1,0.7,0.7,1.1,1.4,1
		c0.4,0.6,1.1,0.8,1.8,0.6c0.1,0.4,0.6,0.6,0.9,0.4c0.2-0.1,0.4-0.2,0.4-0.4c0.6-2,1.4-3.9,2.4-5.8c0.6-1.3,1.4-2.5,2-3.8
		c1.5-1.5,2.9-3,4.4-4.5c0.4-0.7,0.2-1.6-0.5-2C391,132.2,390.4,132.2,389.9,132.6z"/>
	<path class="st19" d="M382.4,132.9L382.4,132.9z"/>
	<path class="st20" d="M352.7,169.1c0,0,13-2.1,15.6-6.8s7-22.6,7-22.6l12.9,3.7c0,0-2.3,40.8-19.9,49"/>
	<path class="st18" d="M361.4,308.7l5.4-2.6c0,0,0.4-4.7-1.4-5.7S361.4,308.7,361.4,308.7z"/>
	<path class="st18" d="M374.6,295.2c0,0,0.8,11.6,1.5,12.8s11.1,6.6,12,8.7s-11.5-0.2-15.6-1.2s-7.9-3-8-4.6s1.5-9.4,0-9.2
		s-3.1,6.9-3.1,6.9l-3.6-2.1l7.9-27.3"/>
	<path class="st18" d="M386,297.1l5.4-2.6c0,0,0.4-4.7-1.4-5.7S386,297.1,386,297.1z"/>
	<path class="st18" d="M399.1,283.6c0,0,0.8,11.6,1.5,12.8s11.1,6.6,12,8.7s-11.5-0.1-15.6-1.2s-7.9-3.1-8-4.6s1.5-9.3,0-9.2
		s-3.1,6.9-3.1,6.9l-3.6-2.1l7.9-27.3"/>
	<path class="st8" d="M359,196.2c-1.9,1.8-6.3,27.2-3.4,39.4s32.5,17.3,32.5,17.3l-6.9,31c0,0,11.3,8.6,22.1,5.1
		c3.9-1.3,12.8-45.8,9.4-52s-43-27.7-43-27.7"/>
	<path class="st21" d="M359,196.2c-1.9,1.8-6.3,27.2-3.4,39.4s32.5,17.3,32.5,17.3l-6.9,31c0,0,11.3,8.6,22.1,5.1
		c3.9-1.3,12.8-45.8,9.4-52s-43-27.7-43-27.7"/>
	<path class="st8" d="M335.6,205.5c-1.9,1.8-7.4,16.1,0,33.6c4.9,11.6,31.2,19.7,31.2,19.7l-9,34.4c0,0,11.8,9.8,22.1,5.1
		s13.2-47,9.8-53.2S352,217,352,217"/>
	<path class="st20" d="M370.1,202c-0.9-10-1.2-20.1-1.3-30.1c-7.8-5.9-23.8-0.5-23.8-0.5s-19.6,8.1-14.1,35.8
		c3.9,19.5,23.2,21.7,23.2,21.7s12.7-8,11.2-10.7l-17.2-9l19.5-9.9L370.1,202z"/>
	<path class="st20" d="M368.3,192.4c0,0,0.5,17.6-0.6,19.5s-19.6,9.8-19.6,9.8l-11.5-14.5L368.3,192.4z"/>
	<path class="st22" d="M358.8,162.3c0,0,3.3,7.1,2,9.7s-8.2,0.8-8.2,0.8"/>
	<path class="st19" d="M359.4,158.6c0,0,0.2,14.5-5.8,16.1s-9.1-5.8-9.1-5.8s-1.2-9.8,0.7-11.8S356.2,154.5,359.4,158.6z"/>
	<path class="st22" d="M361.7,157c0,0-4,5.7-6.4,7.1s-5.1,0.6-5.9,2.6s2.1,13.6-0.6,15.8s-8-4.1-10.4-1s-1.1,8.8-4.8,10
		s-8-4.4-4.5-9s3.9-6.8,1.8-8.2c-3-2.2,0.1-10.4,3.6-12s4.5-9.5,10.8-11.5S360.3,152.5,361.7,157z"/>
	<path class="st18" d="M366.9,186.8c0,8.1-0.2,16.2-0.5,24.4c0,0.9,1.4,0.9,1.4,0c0.3-8.1,0.5-16.2,0.5-24.4c0-0.4-0.3-0.7-0.7-0.7
		S366.9,186.4,366.9,186.8z"/>
	<path class="st18" d="M365.1,217.8c-9.4-4.3-16.2-12.7-18.4-22.8c-0.2-0.9-1.6-0.5-1.4,0.4c2.3,10.4,9.4,19.2,19.1,23.6
		C365.2,219.4,365.9,218.1,365.1,217.8z"/>
	<path class="st5" d="M412.7,166.4c0,0-41.5-2.6-44.1-1.4s-3.7,5.6-2.7,11.7s20.8,30.8,20.8,30.8"/>
	<path class="st18" d="M424.9,179.7c-0.1-0.4-4.4-19.7-23.5-11.5c-17.3,7.4-17.8,29.5-16.7,34.9c1,4.4,5.4,10.4,14.1,12.5"/>
	
		<ellipse transform="matrix(0.3975 -0.9176 0.9176 0.3975 68.756 489.0052)" class="st10" cx="406.7" cy="192.1" rx="24.8" ry="17.7"/>
	<path class="st8" d="M388.2,193.3l18.8,4.9l4.1-8.7l-17-10.6C394,178.9,389.2,186.3,388.2,193.3z"/>
	
		<ellipse transform="matrix(0.4531 -0.8915 0.8915 0.4531 50.8592 470.2945)" class="st18" cx="408.7" cy="193.7" rx="4.8" ry="3.9"/>
	<path class="st5" d="M373.7,233.7v-66.2c0-1.5-1.2-2.8-2.8-2.8l0,0h-2.7c-1.5,0-2.8,1.2-2.8,2.8l0,0v64.9c0,1.9,1.1,3.6,2.8,4.5
		h0.1c1.8,1,4,0.3,4.9-1.5C373.5,234.8,373.7,234.2,373.7,233.7z"/>
	<path class="st19" d="M446.9,167.9l-8.4,8.4c-2.9,2.9,1.6,7.5,4.5,4.6l8.4-8.4C454.3,169.5,449.8,165,446.9,167.9z"/>
	<path class="st19" d="M464.1,191.1H448c-4.1,0-4.1,6.4,0,6.4h16C468.2,197.6,468.2,191.1,464.1,191.1z"/>
	<path class="st19" d="M449.2,215l-7.6-7.2c-3-2.8-7.5,1.7-4.5,4.5l7.6,7.2C447.7,222.4,452.2,217.8,449.2,215z"/>
	<path class="st19" d="M372.6,214.9c-0.2-0.8-1-1.4-1.9-1.2c-0.3,0.1-0.5,0.2-0.7,0.3c-1.6,1.7-3.6,3.1-5.8,4.1
		c-0.2,0.1-0.4,0.3-0.6,0.5h-0.1c-1.1,3-5.8,6.3-7.5,8.9c0.3,0,4-0.4,4.3-0.4c1.9,1.4,3.8,2.7,5.9,3.8c1,0.5,2.1,0.5,3.1,0
		c0.4,0.1,0.9,0.1,1.3,0.2c1.3,0.1,2.5-0.7,3.1-1.9c0.4,0.1,0.9-0.1,1.2-0.3c0.6,0,1.2-0.4,1.5-0.9c0.8-1.6,0.7-3.4-0.8-4.3
		c0.4-1.5-0.3-3.1-1.7-3.8c-1-0.5-2.1-0.9-3.2-1.1C372.1,217.9,372.8,216.4,372.6,214.9z"/>
</g>
</svg>
