<svg id="_0110_report_analysis_1" xmlns="http://www.w3.org/2000/svg" xmlns:xlink="http://www.w3.org/1999/xlink" viewBox="0 0 500 500" data-imageid="report-analysis-1-90" imageName="Report Analysis 1" class="illustrations_image" style="width: 164px;"><defs><style>.cls-1_report-analysis-1-90{fill:url(#linear-gradient);}.cls-1_report-analysis-1-90,.cls-2_report-analysis-1-90,.cls-3_report-analysis-1-90,.cls-4_report-analysis-1-90,.cls-5_report-analysis-1-90,.cls-6_report-analysis-1-90,.cls-7_report-analysis-1-90,.cls-8_report-analysis-1-90,.cls-9_report-analysis-1-90,.cls-10_report-analysis-1-90,.cls-11_report-analysis-1-90,.cls-12_report-analysis-1-90,.cls-13_report-analysis-1-90,.cls-14_report-analysis-1-90,.cls-15_report-analysis-1-90,.cls-16_report-analysis-1-90,.cls-17_report-analysis-1-90,.cls-18_report-analysis-1-90,.cls-19_report-analysis-1-90,.cls-20_report-analysis-1-90,.cls-21_report-analysis-1-90,.cls-22_report-analysis-1-90,.cls-23_report-analysis-1-90,.cls-24_report-analysis-1-90,.cls-25_report-analysis-1-90,.cls-26_report-analysis-1-90,.cls-27_report-analysis-1-90,.cls-28_report-analysis-1-90{stroke-width:0px;}.cls-2_report-analysis-1-90{isolation:isolate;opacity:.18;}.cls-2_report-analysis-1-90,.cls-28_report-analysis-1-90{fill:#68e1fd;}.cls-3_report-analysis-1-90{fill:url(#linear-gradient-11-report-analysis-1-90);}.cls-4_report-analysis-1-90{fill:url(#linear-gradient-12-report-analysis-1-90);}.cls-5_report-analysis-1-90{fill:url(#linear-gradient-13-report-analysis-1-90);}.cls-6_report-analysis-1-90{fill:url(#linear-gradient-10-report-analysis-1-90);}.cls-7_report-analysis-1-90{fill:url(#linear-gradient-17-report-analysis-1-90);}.cls-8_report-analysis-1-90{fill:url(#linear-gradient-16-report-analysis-1-90);}.cls-9_report-analysis-1-90{fill:url(#linear-gradient-19-report-analysis-1-90);}.cls-10_report-analysis-1-90{fill:url(#linear-gradient-15-report-analysis-1-90);}.cls-11_report-analysis-1-90{fill:url(#linear-gradient-23-report-analysis-1-90);}.cls-12_report-analysis-1-90{fill:url(#linear-gradient-21-report-analysis-1-90);}.cls-13_report-analysis-1-90{fill:url(#linear-gradient-18-report-analysis-1-90);}.cls-14_report-analysis-1-90{fill:url(#linear-gradient-14-report-analysis-1-90);}.cls-15_report-analysis-1-90{fill:url(#linear-gradient-22-report-analysis-1-90);}.cls-16_report-analysis-1-90{fill:url(#linear-gradient-20-report-analysis-1-90);}.cls-17_report-analysis-1-90{fill:url(#linear-gradient-4-report-analysis-1-90);}.cls-18_report-analysis-1-90{fill:url(#linear-gradient-2-report-analysis-1-90);}.cls-19_report-analysis-1-90{fill:url(#linear-gradient-3-report-analysis-1-90);}.cls-20_report-analysis-1-90{fill:url(#linear-gradient-8-report-analysis-1-90);}.cls-21_report-analysis-1-90{fill:url(#linear-gradient-9-report-analysis-1-90);}.cls-22_report-analysis-1-90{fill:url(#linear-gradient-7-report-analysis-1-90);}.cls-23_report-analysis-1-90{fill:url(#linear-gradient-5-report-analysis-1-90);}.cls-24_report-analysis-1-90{fill:url(#linear-gradient-6-report-analysis-1-90);}.cls-25_report-analysis-1-90{fill:#3e3e54;}.cls-26_report-analysis-1-90{fill:#fff;}.cls-27_report-analysis-1-90{fill:#ffb4a3;}</style><linearGradient id="linear-gradient-report-analysis-1-90" x1="789.08" y1="1667.75" x2="760.34" y2="1659.77" gradientTransform="translate(-518.31 1782.05) scale(1 -1)" gradientUnits="userSpaceOnUse"><stop offset="0" stop-color="#000" stop-opacity="0"/><stop offset=".99" stop-color="#000"/></linearGradient><linearGradient id="linear-gradient-2-report-analysis-1-90" x1="797.51" y1="1693.77" x2="796.57" y2="1713.42" xlink:href="#linear-gradient-report-analysis-1-90"/><linearGradient id="linear-gradient-3-report-analysis-1-90" x1="579.93" y1="1477.84" x2="742.75" y2="1477.84" xlink:href="#linear-gradient-report-analysis-1-90"/><linearGradient id="linear-gradient-4-report-analysis-1-90" x1="718.81" y1="1458.37" x2="973.94" y2="1455.14" gradientTransform="translate(-518.31 1782.05) scale(1 -1)" gradientUnits="userSpaceOnUse"><stop offset=".02" stop-color="#fff" stop-opacity="0"/><stop offset=".32" stop-color="#fff" stop-opacity=".39"/><stop offset=".68" stop-color="#fff" stop-opacity=".68"/><stop offset="1" stop-color="#fff"/></linearGradient><linearGradient id="linear-gradient-5-report-analysis-1-90" x1="777.39" y1="1391.06" x2="725" y2="1277.39" xlink:href="#linear-gradient-report-analysis-1-90"/><linearGradient id="linear-gradient-6-report-analysis-1-90" x1="863.06" y1="1307.39" x2="701.59" y2="1434.95" xlink:href="#linear-gradient-report-analysis-1-90"/><linearGradient id="linear-gradient-7-report-analysis-1-90" x1="856.64" y1="1312.94" x2="711.34" y2="1427.71" xlink:href="#linear-gradient-report-analysis-1-90"/><linearGradient id="linear-gradient-8-report-analysis-1-90" x1="870.84" y1="1423.7" x2="828.86" y2="1296.94" xlink:href="#linear-gradient-report-analysis-1-90"/><linearGradient id="linear-gradient-9-report-analysis-1-90" x1="666.23" y1="1518.28" x2="739.29" y2="1518.28" xlink:href="#linear-gradient-report-analysis-1-90"/><linearGradient id="linear-gradient-10-report-analysis-1-90" x1="773.42" y1="1566.04" x2="758.34" y2="1408.32" gradientTransform="translate(-471 1784.53) scale(1 -1)" xlink:href="#linear-gradient-4-report-analysis-1-90"/><linearGradient id="linear-gradient-11-report-analysis-1-90" x1="774.89" y1="1565.89" x2="759.81" y2="1408.19" gradientTransform="translate(-471 1784.53) scale(1 -1)" xlink:href="#linear-gradient-4-report-analysis-1-90"/><linearGradient id="linear-gradient-12-report-analysis-1-90" x1="776.36" y1="1565.76" x2="761.28" y2="1408.04" gradientTransform="translate(-471 1784.53) scale(1 -1)" xlink:href="#linear-gradient-4-report-analysis-1-90"/><linearGradient id="linear-gradient-13-report-analysis-1-90" x1="777.83" y1="1565.61" x2="762.75" y2="1407.91" gradientTransform="translate(-471 1784.53) scale(1 -1)" xlink:href="#linear-gradient-4-report-analysis-1-90"/><linearGradient id="linear-gradient-14-report-analysis-1-90" x1="779.29" y1="1565.47" x2="764.22" y2="1407.76" gradientTransform="translate(-471 1784.53) scale(1 -1)" xlink:href="#linear-gradient-4-report-analysis-1-90"/><linearGradient id="linear-gradient-15-report-analysis-1-90" x1="780.76" y1="1565.33" x2="765.69" y2="1407.62" gradientTransform="translate(-471 1784.53) scale(1 -1)" xlink:href="#linear-gradient-4-report-analysis-1-90"/><linearGradient id="linear-gradient-16-report-analysis-1-90" x1="782.22" y1="1565.19" x2="767.16" y2="1407.48" gradientTransform="translate(-471 1784.53) scale(1 -1)" xlink:href="#linear-gradient-4-report-analysis-1-90"/><linearGradient id="linear-gradient-17-report-analysis-1-90" x1="738.51" y1="1447.95" x2="736.73" y2="1418.7" gradientTransform="translate(-471 1784.53) scale(1 -1)" xlink:href="#linear-gradient-4-report-analysis-1-90"/><linearGradient id="linear-gradient-18-report-analysis-1-90" x1="753.81" y1="1447.01" x2="752.01" y2="1417.76" gradientTransform="translate(-471 1784.53) scale(1 -1)" xlink:href="#linear-gradient-4-report-analysis-1-90"/><linearGradient id="linear-gradient-19-report-analysis-1-90" x1="782.79" y1="1445.22" x2="781.01" y2="1415.99" gradientTransform="translate(-471 1784.53) scale(1 -1)" xlink:href="#linear-gradient-4-report-analysis-1-90"/><linearGradient id="linear-gradient-20-report-analysis-1-90" x1="768.8" y1="1446.09" x2="767" y2="1416.84" gradientTransform="translate(-471 1784.53) scale(1 -1)" xlink:href="#linear-gradient-4-report-analysis-1-90"/><linearGradient id="linear-gradient-21-report-analysis-1-90" x1="804.15" y1="1437.37" x2="804.5" y2="1397.18" gradientTransform="translate(-471 1784.53) scale(1 -1)" xlink:href="#linear-gradient-4-report-analysis-1-90"/><linearGradient id="linear-gradient-22-report-analysis-1-90" x1="816.98" y1="1432.74" x2="817.16" y2="1363.66" gradientTransform="translate(-471 1784.53) scale(1 -1)" xlink:href="#linear-gradient-4-report-analysis-1-90"/><linearGradient id="linear-gradient-23-report-analysis-1-90" x1="810" y1="1442.33" x2="811.61" y2="1420.62" gradientTransform="translate(-471 1784.53) scale(1 -1)" xlink:href="#linear-gradient-4-report-analysis-1-90"/></defs><path id="background_report-analysis-1-90" class="cls-2_report-analysis-1-90 targetColor" d="M167.15,437.09c46.9,24.16,98.87,36.83,151.63,36.95,19.66,0,39.61-1.77,58.06-8.56,47.59-17.57,78.99-71.04,71.18-121.17-2.76-17.78-9.87-35.02-9.42-53.01.48-18.93,9.23-36.49,14.8-54.57,6.23-20.32,8.49-41.64,6.66-62.82-2.75-31.67-15.9-63.81-41.5-82.7-10.28-7.61-22.12-12.78-33.85-17.89l-53.91-23.58c-31.79-13.87-69.81-27.44-99.38-9.32-26.79,16.42-34.91,52.58-59.48,72.14-30.5,24.33-81.71,19.8-101.63,53.33-16.61,27.98.17,65.1-10.53,95.82-3.57,10.23-10,19.15-15.81,28.3-18.76,29.68-38.57,94.3,8.45,110.26,13.95,4.73,30.57,1.15,45.05,4.4,25.17,5.65,47.07,20.74,69.67,32.4Z" style="fill: rgb(104, 225, 253);"/><g id="character_report-analysis-1-90"><path class="cls-28_report-analysis-1-90 targetColor" d="M266.77,82.89c-5,1.22-8.25,6.31-9.21,11.37-.95,5.06-.11,10.26.33,15.4.46,5.51.44,11.01.48,16.59,0,2.45.06,5.07,1.3,7.23,1.57,2.71,4.68,4.13,7.73,4.89,5.03,1.22,10.26,1,15.42.78,2.02-.09,4.19-.23,5.71-1.55,1.09-1.09,1.83-2.47,2.12-3.99.88-3.87,1.34-7.83,1.36-11.8l.88-19.36c.32-6.9.07-16.06-7.34-19.44-2.12-.97-4.44-.65-6.69-.56-3.88.15-8.22-.55-12.08.44Z" style="fill: rgb(104, 225, 253);"/><path class="cls-1_report-analysis-1-90" d="M266.16,128.85c-1.53,1.22,0,5.43,2.45,6.11,1.49.4-7.34.57-8.27-.67-1.04-1.48-1.69-3.19-1.88-4.99-.22-5.47.38-11.01.16-16.53-.23-2.41-.05-4.85.53-7.2,1.09-3.58,3.93-6.35,5.45-9.78,1.68,1.99,1.46,4.89,1.3,7.51-.23,3.91-.09,7.83.43,11.71.1,1.19.39,2.35.87,3.45,1.53,3.14,6.11,3.93,7.04,7.34,1.17,4.38-5.55,3.83-8.07,3.06Z"/><path class="cls-27_report-analysis-1-90" d="M274.19,84.67l.93,2.34c.39.98.94,2.08,1.97,2.3.53.06,1.07-.03,1.57-.24,1.19-.36,2.19-1.16,2.81-2.24.3-.78.42-1.61.34-2.45-.1-2.96-.4-13.93-4.74-13.38-3.48.48-3.86,11.2-2.87,13.67Z"/><path class="cls-18_report-analysis-1-90" d="M278.01,84.72c.72.78,1.83,1.48,2.79,1.01s1.12-1.52,1.22-2.45.16-1.86.17-2.79c.12-.94-.44-1.83-1.33-2.14-1.06-.67-5.45-3.51-5.54-.56.03,2.56.98,5.02,2.69,6.92Z"/><path class="cls-27_report-analysis-1-90" d="M290.65,64.14c-.58,3.4-1.4,6.75-2.45,10.04-.4,1.44-1,2.82-1.77,4.1-.79,1.28-2,2.25-3.42,2.73-1.92.44-3.94-.01-5.49-1.22-1.44-1.02-2.57-2.42-3.28-4.04-.52-1.28-.84-2.63-.94-4.01-.42-3.62.22-7.28,1.83-10.54.53-1.08,1.27-2.04,2.19-2.82,1.83-1.35,4.14-1.86,6.36-1.41,2.2.45,4.3,1.28,6.21,2.45,1.71.98,1.04,3.13.76,4.73Z"/><path class="cls-25_report-analysis-1-90" d="M290.34,55.05c.62.51,1.18,1.1,1.66,1.75l2.57,3.18c.4.4.67.91.78,1.47.02.49-.11.97-.38,1.38-.87,1.42-2.37,2.33-4.02,2.45-1.87-.05-3.68-.61-5.26-1.61-.49.69-1.35,1.02-2.18.82-.82-.13-1.58-.51-2.45-.62-1.47-.15-2.9.51-3.74,1.72-.23.34-.64.78-.95.51-.12-.11-.19-.26-.2-.43-.13-.68-.49-1.53-1.22-1.49-.46.07-.82.44-.87.9-.03.45.04.9.2,1.32l.6,1.94c.02.08.02.16,0,.23,0,.21-.35.2-.57.22-.49,0-.79.55-.94,1.01-.09.49-.29.95-.59,1.35-.05.06-.12.09-.2.11-.08,0-.16-.04-.22-.1-.72-.75-1.1-1.76-1.05-2.8-.12-1.49-.21-3-.27-4.5-.13-1.18,0-2.38.35-3.51.39-.88.91-1.7,1.53-2.45.55-.83,1.21-1.58,1.96-2.23,1.17-.8,2.52-1.29,3.94-1.43,2.06-.37,4.15-.54,6.25-.5,1.85-.12,3.69.33,5.27,1.3Z"/><path class="cls-28_report-analysis-1-90 targetColor" d="M298.96,96.26c1.58,4.89,1.53,10.19,1.44,15.36.01,1.91-.12,3.81-.42,5.7-.24,1.59-.86,3.1-1.8,4.41-.95,1.32-2.42,2.17-4.04,2.34-.66.05-1.32-.09-1.9-.4-1.48-.87-1.7-2.87-1.76-4.59l-.71-20.13c-.11-3.07-5.72-11.64-5.18-14.67.59-3.29,7.96,2.52,9.72,4.26,2.14,2.17,3.73,4.82,4.63,7.73Z" style="fill: rgb(104, 225, 253);"/><path class="cls-25_report-analysis-1-90" d="M298.3,102.73c0-.45,0-1.01-.4-1.22-.26-.1-.55-.07-.77.1-.51.47-.78,1.14-.75,1.83-.13,1.46-.28,2.91-.42,4.37-.07.86-.57,2.37.73,2.15,1.9-.32,1.5-5.81,1.6-7.23Z"/><path class="cls-27_report-analysis-1-90" d="M294.91,107.67c-1.29.15-2.45.88-3.13,1.99-.04.08-.08.16-.1.24,0,.11.03.23.1.32.41.5,1.02.8,1.66.82,1.39.23,2.81.32,4.22.29.29.02.58-.05.83-.2.22-.2.37-.46.43-.75.27-.88.79-2.59-.35-2.84-.59,0-1.19.06-1.77.15-.63-.05-1.26-.06-1.88-.04Z"/><path class="cls-28_report-analysis-1-90 targetColor" d="M249.69,100.82c-2.08,2.69-4.27,5.81-3.74,9.16.44,1.97,1.48,3.76,2.97,5.12,4.66,4.78,11.13,7.21,17.39,9.51.26.14.56.18.86.13.25-.08.46-.23.62-.44,2.03-2.38.56-6.11-1.65-8.38-2.21-2.26-5.14-3.84-6.57-6.63-.16-.25-.24-.55-.22-.84.1-.34.31-.63.59-.84,3.48-3.17,6.68-7.02,7.57-11.64.57-3.01-1.14-12.85-5.94-10.11-2.31,1.31-4.16,4.96-5.76,7.04l-6.11,7.91Z" style="fill: rgb(104, 225, 253);"/><path class="cls-25_report-analysis-1-90" d="M259.31,138.98l6.41,71.35-8.36,4.59,15.9-.81,1.88-59.92,6.48-.28,5.14,60.76,16.47,1.08-8.65-6.2.45-74.59-33.74-.09c-1.98.02-2.16,2.1-1.98,4.11Z"/><path class="cls-26_report-analysis-1-90" d="M280.27,111.18c.49-1.46,2.01-2.32,3.52-1.98,6.15,0,12.29.25,18.44.75.8-.03,1.58.24,2.18.77.52.91.55,2.02.06,2.95-2.64,7.31-5.78,14.43-9.4,21.3-.12.28-.28.53-.49.75-.53.41-1.2.61-1.87.55-7.23.27-14.46.09-21.67-.54-.42,0-.92-.12-1.09-.51-.4-.92,1.59-3.67,1.98-4.7.81-2.13,1.57-4.28,2.45-6.4,1.72-4.39,3.72-8.72,5.89-12.94Z"/><path class="cls-27_report-analysis-1-90" d="M272.16,118.24c.98-.21,2.26-.21,2.65.71.23.55.06,1.32.56,1.65.19.11.42.15.64.13.78,0,1.55-.18,2.32-.15.79-.03,1.54.34,1.99.99.34.8.25,1.72-.22,2.45-.36.72-.83,1.39-1.38,1.98-.43.48-.95.86-1.53,1.14-.54.22-1.11.35-1.69.37-2.44.2-4.88-.32-7.02-1.5-1.25-.58-2.24-1.6-2.78-2.86-1.35-3.85,4.01-4.41,6.44-4.9Z"/></g><g id="report_report-analysis-1-90"><path class="cls-28_report-analysis-1-90 targetColor" d="M61.62,367.9s32.78-9.51,29.25-40.52c-3.53-31.01,4.35-88.04,22.79-86.82,18.44,1.22,110.77,0,110.77,0v70.59h-60.61s4.23,23.6-6.7,40.17c-10.93,16.57-16.56,14.1-16.56,14.1l-78.94,2.48Z" style="fill: rgb(104, 225, 253);"/><path class="cls-19_report-analysis-1-90" d="M61.62,367.9s32.78-9.51,29.25-40.52c-3.53-31.01,4.35-88.04,22.79-86.82,18.44,1.22,110.77,0,110.77,0v70.59h-60.61s4.23,23.6-6.7,40.17c-10.93,16.57-16.56,14.1-16.56,14.1l-78.94,2.48Z"/><path class="cls-28_report-analysis-1-90 targetColor" d="M200.47,215.31h146.55s16.2,3.88,17.96,25.37v192.05l-108.89,1.76c-1.04.08-2.09.1-3.13.06-17.98-.73-32.16-15.55-32.1-33.54v-165.97s-2.07-17.27-20.4-19.74Z" style="fill: rgb(104, 225, 253);"/><path class="cls-17_report-analysis-1-90" d="M200.47,215.31h146.55s16.2,3.88,17.96,25.37v192.05l-108.89,1.76c-1.27.1-2.55.1-3.82,0-17.69-1.05-31.48-15.74-31.41-33.47v-165.98s-2.07-17.27-20.4-19.74Z"/><path class="cls-23_report-analysis-1-90" d="M221.94,408.58c.77,4.44,6.64,20.02,21.35,23.87,6.77,1.77,14.67,3.5,21.15.84,1.94-.73,3.71-1.86,5.18-3.31,3.51-3.94,3.59-9.87.18-13.9-1.44-1.44-3.09-2.64-4.89-3.58-5.21-3.04-11.57-8.03-17.84-8.18s-19.2,2.21-25.14,4.27Z"/><path class="cls-24_report-analysis-1-90" d="M262.85,387.4s-16.78-1.66-16.95,21.09c-.17,22.76,15.06,18.34,15.06,18.34l3.23-.18s20.27-13.99,9.33-29.42c0-.04-4.49-9.05-10.68-9.83Z"/><path class="cls-22_report-analysis-1-90" d="M264.64,390.63s-15.09-1.53-15.25,18.98c-.16,20.51,13.56,16.48,13.56,16.48l2.9-.16s18.24-12.59,8.4-26.49c0-.06-4.05-8.16-9.61-8.82Z"/><path class="cls-28_report-analysis-1-90 targetColor" d="M262.85,387.4h142.87s10.45,3.75,9.4,21.03c-1.05,17.28-19.38,26.07-19.38,26.07h-139.59s14.1-8.28,14.28-24.46c.18-16.18-7.58-22.65-7.58-22.65Z" style="fill: rgb(104, 225, 253);"/><path class="cls-20_report-analysis-1-90" d="M262.85,387.4h142.87s10.45,3.75,9.4,21.03c-1.05,17.28-19.38,26.07-19.38,26.07h-139.59s14.1-8.28,14.28-24.46c.18-16.18-7.58-22.65-7.58-22.65Z"/><path class="cls-28_report-analysis-1-90 targetColor" d="M113.67,240.57s10.1.94,9.16,16.68c-.94,15.74-2.35,54.74,16.45,54.74s31.49-3.06,32.18-13.87c.7-10.81,1.22-58.25,1.22-58.25l-59.01.7Z" style="fill: rgb(104, 225, 253);"/><path class="cls-28_report-analysis-1-90 targetColor" d="M200.47,215.31s-25.68-.82-27.84,24.55-1.22,58.25-1.22,58.25c0,0-3.75,13.45-23.49,14.1h73.16l-.11-77.17s-2.64-17.74-20.49-19.74Z" style="fill: rgb(104, 225, 253);"/><path class="cls-21_report-analysis-1-90" d="M200.47,215.31s-25.68-.82-27.84,24.55-1.22,58.25-1.22,58.25c0,0-3.75,13.45-23.49,14.1h73.16l-.11-77.17s-2.64-17.74-20.49-19.74Z"/><path class="cls-6_report-analysis-1-90" d="M254.39,238.22h91.62c1.94,0,3.52,1.58,3.52,3.52h0c0,1.94-1.58,3.52-3.52,3.52h-91.62c-1.94,0-3.52-1.58-3.52-3.52h0c0-1.94,1.58-3.52,3.52-3.52Z"/><path class="cls-3_report-analysis-1-90" d="M254.39,253.72h91.62c1.94,0,3.52,1.58,3.52,3.52h0c0,1.94-1.58,3.52-3.52,3.52h-91.62c-1.94,0-3.52-1.58-3.52-3.52h0c0-1.94,1.58-3.52,3.52-3.52Z"/><path class="cls-4_report-analysis-1-90" d="M254.39,269.23h91.62c1.94,0,3.52,1.58,3.52,3.52h0c0,1.94-1.58,3.52-3.52,3.52h-91.62c-1.94,0-3.52-1.58-3.52-3.52h0c0-1.94,1.58-3.52,3.52-3.52Z"/><path class="cls-5_report-analysis-1-90" d="M254.39,284.73h91.62c1.94,0,3.52,1.58,3.52,3.52h0c0,1.94-1.58,3.52-3.52,3.52h-91.62c-1.94,0-3.52-1.58-3.52-3.52h0c0-1.94,1.58-3.52,3.52-3.52Z"/><path class="cls-14_report-analysis-1-90" d="M254.39,300.24h91.62c1.94,0,3.52,1.58,3.52,3.52h0c0,1.94-1.58,3.52-3.52,3.52h-91.62c-1.94,0-3.52-1.58-3.52-3.52h0c0-1.94,1.58-3.52,3.52-3.52Z"/><path class="cls-10_report-analysis-1-90" d="M254.39,315.74h91.62c1.94,0,3.52,1.58,3.52,3.52h0c0,1.94-1.58,3.52-3.52,3.52h-91.62c-1.94,0-3.52-1.58-3.52-3.52h0c0-1.94,1.58-3.52,3.52-3.52Z"/><path class="cls-8_report-analysis-1-90" d="M254.39,331.25h91.62c1.94,0,3.52,1.58,3.52,3.52h0c0,1.94-1.58,3.52-3.52,3.52h-91.62c-1.94,0-3.52-1.58-3.52-3.52h0c0-1.94,1.58-3.52,3.52-3.52Z"/><rect class="cls-7_report-analysis-1-90" x="260.5" y="346.99" width="10.81" height="31.95"/><rect class="cls-13_report-analysis-1-90" x="275.54" y="356.74" width="10.81" height="22.19"/><rect class="cls-9_report-analysis-1-90" x="304.9" y="348.38" width="10.81" height="30.56"/><rect class="cls-16_report-analysis-1-90" x="290.34" y="364.84" width="10.81" height="14.1"/><rect class="cls-12_report-analysis-1-90" x="326.98" y="354.66" width="12.68" height="24.5"/><rect class="cls-15_report-analysis-1-90" x="339.68" y="354.73" width="12.68" height="24.46"/><rect class="cls-11_report-analysis-1-90" x="326.98" y="347.93" width="25.37" height="6.58"/></g></svg>