<svg version="1.1" id="Layer_1" xmlns="http://www.w3.org/2000/svg" xmlns:xlink="http://www.w3.org/1999/xlink" x="0px" y="0px" viewBox="0 0 500 500" style="width: 188px;" xml:space="preserve" data-imageid="share-87" imageName="Share" class="illustrations_image">
<style type="text/css">
	.st0_share-87{fill:#225870;}
	.st1_share-87{fill:#68E1FD;}
	.st2_share-87{fill:#F2F2F2;}
	.st3_share-87{opacity:0.28;fill:#225870;enable-background:new    ;}
	.st4_share-87{fill:#FFB66E;}
	.st5_share-87{fill:#D9E021;}
	.st6_share-87{fill:#ABFFAB;}
	.st7_share-87{opacity:0.46;fill:url(#SVGID_1_);enable-background:new    ;}
	.st8_share-87{opacity:0.46;fill:url(#SVGID_00000145036155369493053680000014663693053656149647_);enable-background:new    ;}
	.st9_share-87{opacity:0.46;fill:url(#SVGID_00000168828390242704454130000006711557128775795073_);enable-background:new    ;}
	.st10_share-87{fill:#FFD2A6;}
	.st11_share-87{fill:#557CFF;}
	.st12_share-87{fill:#F7931E;}
</style>
<path id="field" class="st0_share-87" d="M257,423.2l220.8-130.5c7-4,13.1-10.4,6.2-14.7L262.4,150.4c-3.3-2.1-8.4-3.4-11.8-1.4L18.9,283.4&#10;&#9;c-7,4.1-8.3,15.5-1.3,19.6l210.2,120C236.9,428.2,247.9,428.3,257,423.2z"/>
<g id="screen2">
	<polygon class="st1_share-87 targetColor" points="448.1,179.6 448.1,297 272.3,196.1 272.3,78.4 &#9;"/>
	<path class="st2_share-87" d="M305.5,122.5c2.3,3.3,3.6,7.2,3.8,11.2c0.1,2.5-0.3,4.2-1.3,5.3c-0.9,1-2.4,1.3-3.7,0.6&#10;&#9;&#9;c-0.8-0.3-1.4-0.8-2-1.3c-0.5-0.5-0.9-1-1.3-1.6l-0.4-0.7c-0.1,0.2-0.2,0.4-0.4,0.5c-0.3,0.3-0.8,0.5-1.2,0.5&#10;&#9;&#9;c-0.7,0.1-1.5,0.1-2.2-0.2c-1.6-0.7-3-1.9-3.9-3.5c-1.1-1.7-1.7-3.6-1.7-5.6c-0.2-1.6,0.3-3.2,1.4-4.4c1-0.9,2.4-1.1,3.6-0.6&#10;&#9;&#9;c0.6,0.2,1.1,0.6,1.6,1c0.4,0.3,0.8,0.7,1,1.2l0.3,0.5V124l2.9,1.2l0.3,8.3c0,0.6,0.2,1.2,0.5,1.7c0.3,0.5,0.7,0.9,1.2,1.1&#10;&#9;&#9;c1.4,0.6,2.1-0.7,2-3.7c-0.2-3-1.1-5.9-2.9-8.4c-1.5-2.5-3.8-4.5-6.5-5.6c-2.4-1-4.5-0.7-6.2,0.8c-1.6,1.5-2.4,3.8-2.3,6.9&#10;&#9;&#9;c0.1,3.2,1.1,6.3,2.9,8.9c1.5,2.5,3.7,4.5,6.4,5.7c0.9,0.4,1.9,0.6,2.9,0.6c0.7,0,1.3-0.1,1.9-0.4l0.6-0.3l1.8,3.3&#10;&#9;&#9;c-0.1,0.1-0.2,0.1-0.3,0.2c-0.3,0.2-0.6,0.3-0.9,0.4c-0.5,0.2-0.9,0.3-1.4,0.4c-0.7,0.1-1.3,0.1-2,0c-0.9-0.1-1.7-0.3-2.5-0.6&#10;&#9;&#9;c-2.3-1-4.4-2.5-6-4.4c-1.9-2.1-3.5-4.5-4.6-7.2c-1.1-2.5-1.8-5.2-1.9-8c-0.2-2.3,0.3-4.6,1.4-6.7c0.9-1.7,2.4-3,4.2-3.7&#10;&#9;&#9;c1.9-0.6,4-0.5,5.8,0.3C300.4,116.5,303.4,119.1,305.5,122.5z M299,133c0.5-0.6,0.7-1.4,0.6-2.2c0-1-0.3-1.9-0.8-2.7&#10;&#9;&#9;c-0.4-0.7-1-1.3-1.8-1.6c-0.6-0.3-1.3-0.2-1.8,0.2c-0.5,0.6-0.8,1.4-0.7,2.1c0,1,0.3,1.9,0.9,2.8c0.4,0.8,1.1,1.3,1.9,1.7&#10;&#9;&#9;C297.9,133.6,298.5,133.4,299,133"/>
	<path class="st2_share-87" d="M429.7,263l-50.9-29.9v-47.6l0.4-0.3c5.4-3.7,10.7-7.7,15.7-12l0.5-0.5l34.2,20.6V263z M380.8,232l46.9,27.5&#10;&#9;&#9;v-65l-32-19.2c-5.5,4.6-10.2,8.2-14.9,11.4L380.8,232z"/>
	<path class="st2_share-87" d="M395,195.2l-15.7-8.3l0.9-1.8l13,6.9c0.6-7.4,1.3-17.3,1.3-18h1l0.8-0.8c0.4,0.4,0.4,0.4-1.1,20.4L395,195.2z"/>
	<path class="st2_share-87" d="M385.3,199.8l32.2,18.5l4.5,2.6c0.6,0.3,1.3,0.1,1.6-0.4s0.1-1.3-0.4-1.6l0,0L391,200.5l-4.5-2.6&#10;&#9;&#9;c-0.5-0.3-1.2-0.1-1.5,0.4S384.8,199.5,385.3,199.8L385.3,199.8L385.3,199.8z"/>
	<path class="st2_share-87" d="M385.3,209.3l32.2,18.5l4.5,2.6c0.5,0.3,1.2,0.1,1.5-0.4s0.1-1.2-0.4-1.5L391,210l-4.5-2.6&#10;&#9;&#9;c-0.5-0.3-1.2-0.1-1.5,0.4S384.8,209,385.3,209.3L385.3,209.3L385.3,209.3z"/>
	<path class="st2_share-87" d="M385.3,218l32.2,18.5l4.5,2.6c0.5,0.3,1.2,0.1,1.5-0.4s0.1-1.2-0.4-1.5L391,218.7l-4.5-2.6&#10;&#9;&#9;c-0.5-0.3-1.2-0.1-1.5,0.4S384.8,217.7,385.3,218L385.3,218z"/>
	<path class="st2_share-87" d="M348.5,218.8l-35.6-20.9v-33l0.4-0.3c3.7-2.5,7.3-5.3,10.8-8.2l0.5-0.5l23.9,14.3L348.5,218.8z M314.9,196.7&#10;&#9;&#9;l31.6,18.6v-43.9l-21.7-13c-3.6,3-6.8,5.4-10,7.6L314.9,196.7z"/>
	<path class="st2_share-87" d="M324.7,172.2l-11.2-5.9l0.9-1.8l8.5,4.5c0.4-5,0.9-11.4,0.9-11.9h1l0.8-0.8c0.4,0.4,0.4,0.4-0.7,14.3&#10;&#9;&#9;L324.7,172.2z"/>
	<path class="st2_share-87" d="M317.6,175.1l22.1,12.7l3.1,1.8c0.5,0.3,1.2,0.1,1.5-0.4s0.1-1.2-0.4-1.5L321.8,175l-3.1-1.8&#10;&#9;&#9;c-0.6-0.3-1.2,0-1.5,0.5C317,174.2,317.1,174.8,317.6,175.1z"/>
	<path class="st2_share-87" d="M317.6,181.7l22.1,12.7l3.1,1.8c0.6,0.3,1.3,0.1,1.6-0.4s0.1-1.3-0.4-1.6l-22.1-12.7l-3.1-1.8&#10;&#9;&#9;c-0.5-0.3-1.2-0.1-1.5,0.5C316.9,180.6,317.1,181.3,317.6,181.7L317.6,181.7z"/>
	<path class="st2_share-87" d="M317.6,187.6l22.1,12.7l3.1,1.8c0.6,0.3,1.3,0.1,1.6-0.4s0.1-1.3-0.4-1.6l0,0l-22.1-12.7l-3.1-1.8&#10;&#9;&#9;c-0.5-0.3-1.2-0.1-1.5,0.5C316.9,186.6,317.1,187.3,317.6,187.6L317.6,187.6z"/>
	<path class="st2_share-87" d="M341.8,161.5c-0.3,0-0.6-0.1-0.8-0.4c-0.4-0.4-0.3-1,0.1-1.4c0,0,0.3-0.2,0.8-0.7c0.5-0.3,1.1-0.2,1.4,0.3&#10;&#9;&#9;c0.3,0.4,0.2,1-0.2,1.3c-0.5,0.4-0.7,0.6-0.7,0.6C342.3,161.4,342.1,161.5,341.8,161.5z"/>
	<path class="st2_share-87" d="M382.8,170.9c-0.4,0-0.7-0.2-0.9-0.5c-0.3-0.5-0.7-1.1-1-1.7c-0.3-0.5-0.2-1.1,0.3-1.4&#10;&#9;&#9;c0.5-0.3,1.1-0.2,1.4,0.3c0.4,0.6,0.8,1.2,1.1,1.8c0.3,0.5,0.1,1.1-0.4,1.4c0,0,0,0,0,0C383.2,170.9,383,170.9,382.8,170.9z&#10;&#9;&#9; M379.4,165.9c-0.3,0-0.6-0.1-0.8-0.4c-0.4-0.5-0.8-1-1.2-1.5c-0.3-0.4-0.3-1,0.1-1.4c0.4-0.4,1.1-0.3,1.4,0.1c0,0,0,0,0,0&#10;&#9;&#9;c0.5,0.5,0.9,1.1,1.3,1.6c0.3,0.4,0.3,1.1-0.2,1.4C379.9,165.9,379.6,165.9,379.4,165.9L379.4,165.9z M375.4,161.4&#10;&#9;&#9;c-0.3,0-0.5-0.1-0.7-0.3c-0.5-0.4-1-0.9-1.5-1.3c-0.4-0.4-0.5-1-0.1-1.4c0,0,0,0,0,0c0.4-0.4,1-0.5,1.4-0.1c0.5,0.4,1,0.9,1.5,1.4&#10;&#9;&#9;c0.4,0.4,0.4,1,0,1.4C376,161.3,375.7,161.4,375.4,161.4L375.4,161.4z M346,158.6c-0.4,0-0.7-0.2-0.9-0.5c-0.3-0.5-0.1-1.1,0.3-1.4&#10;&#9;&#9;c0.6-0.3,1.2-0.7,1.8-1c0.5-0.2,1.1,0,1.3,0.5c0.2,0.5,0.1,1.1-0.4,1.3c-0.6,0.3-1.2,0.6-1.7,1C346.3,158.6,346.1,158.6,346,158.6&#10;&#9;&#9;L346,158.6z M370.7,157.6c-0.2,0-0.4-0.1-0.5-0.2c-0.5-0.4-1.1-0.7-1.7-1c-0.5-0.3-0.7-0.9-0.4-1.4c0.3-0.5,0.9-0.7,1.4-0.4&#10;&#9;&#9;c0.6,0.3,1.2,0.7,1.8,1.1c0.5,0.3,0.6,0.9,0.3,1.4C371.3,157.4,371,157.6,370.7,157.6L370.7,157.6z M351.4,155.9c-0.6,0-1-0.5-1-1&#10;&#9;&#9;c0-0.4,0.2-0.7,0.6-0.9c0.7-0.2,1.3-0.5,2-0.7c0.5-0.2,1.1,0.1,1.3,0.6s-0.1,1.1-0.6,1.3c0,0-0.1,0-0.1,0c-0.6,0.2-1.2,0.4-1.8,0.6&#10;&#9;&#9;C351.6,155.9,351.5,155.9,351.4,155.9L351.4,155.9z M365.2,155c-0.1,0-0.2,0-0.3,0c-0.6-0.2-1.2-0.3-1.9-0.4&#10;&#9;&#9;c-0.6-0.1-0.9-0.6-0.8-1.2s0.6-0.9,1.2-0.8c0.7,0.1,1.4,0.3,2.1,0.5c0.6,0.1,0.9,0.6,0.9,1.1C366.3,154.8,365.8,155.2,365.2,155&#10;&#9;&#9;L365.2,155L365.2,155z M357.2,154.4c-0.5,0-0.9-0.4-1-0.9c-0.1-0.5,0.3-1,0.9-1.1c0.7-0.1,1.4-0.1,2.1-0.2c0.6,0,1,0.4,1,1&#10;&#9;&#9;s-0.4,1-1,1c-0.6,0-1.3,0.1-1.9,0.1L357.2,154.4z"/>
	<path class="st2_share-87" d="M385.1,175.4c-0.4,0-0.8-0.2-0.9-0.6c0,0-0.1-0.3-0.4-0.9c-0.2-0.5,0-1.1,0.5-1.3c0,0,0,0,0,0&#10;&#9;&#9;c0.5-0.2,1.1,0,1.3,0.5c0.3,0.6,0.4,1,0.4,1c0.2,0.5,0,1.1-0.5,1.3C385.4,175.4,385.2,175.5,385.1,175.4L385.1,175.4z"/>
</g>
<g id="screen1">
	<polygon class="st1_share-87 targetColor" points="57.4,174.2 57.4,291.6 233.2,190.7 233.2,73 &#9;"/>
	<polygon class="st3_share-87" points="57.4,174.2 57.4,291.6 233.2,190.7 233.2,73 &#9;"/>
	<path class="st4_share-87" d="M94.6,168c3.9-2.1,7.1,0,7,4.6s-3.3,10.1-7.2,12.2s-7.1,0-7-4.6S90.7,170.1,94.6,168z"/>
	<path class="st4_share-87" d="M94.7,184.7c13.2-7,12.9,12.6,12.9,13.6l-26.2,15.5C81.4,212.8,81.5,191.8,94.7,184.7z"/>
	<path class="st4_share-87" d="M148,137.9c3.9-2.1,7.1,0,7,4.6s-3.3,10.1-7.2,12.2s-7.1,0-7-4.6S144,140,148,137.9z"/>
	<path class="st4_share-87" d="M148,154.7c13.2-7,12.9,12.6,12.9,13.6l-26.5,15C134.4,182.2,134.8,161.7,148,154.7z"/>
	<path class="st5_share-87" d="M197.2,125.8c13.2-7,12.9,12.6,12.9,13.6l-25.5,14.4C184.6,152.8,184.1,132.8,197.2,125.8z"/>
	<path class="st5_share-87" d="M197.2,109c3.9-2.1,7.1,0,7,4.6s-3.3,10.2-7.2,12.2s-7.1,0-7-4.7S193.3,111.1,197.2,109z"/>
	<g>
		<path class="st6_share-87" d="M126.9,213.2c13.2-7,12.9,12.6,12.9,13.6l-25.9,14.7C113.9,240.5,113.7,220.2,126.9,213.2z"/>
		<path class="st6_share-87" d="M126.8,196.4c3.9-2.1,7.1,0,7,4.6s-3.3,10.1-7.2,12.2s-7.1,0-7-4.6S122.9,198.5,126.8,196.4z"/>
	</g>
	<path class="st2_share-87" d="M178.1,184.3c13.2-7.1,12.9,12.6,12.9,13.6L164.4,213C164.4,211.9,164.9,191.4,178.1,184.3z"/>
	<path class="st2_share-87" d="M178,167.5c3.9-2.1,7.1,0,7,4.6s-3.3,10.1-7.2,12.2s-7.1,0-7-4.6S174.1,169.6,178,167.5z"/>
	<path class="st0_share-87" d="M215,171.1c-0.1,0.1-0.1,0.3-0.1,0.4c0.2,1.3-0.1,2.6-0.8,3.7c-0.1,0.1-0.1,0.2-0.1,0.3c0.1,1.5-0.6,3.4-1.4,4&#10;&#9;&#9;l-2.4,1.6l-2.4,1.6c-0.4,0.3-0.9,0.3-1.3,0.1l-0.1-0.1v0.5c0,0.6-0.2,1.2-0.7,1.6l-3.1,2.1c-0.4,0.2-0.6-0.1-0.6-0.8l0.3-11.4&#10;&#9;&#9;c0-0.6,0.2-1.2,0.6-1.6l1-0.7l2.1-1.4c0.3-0.2,0.5-0.1,0.6,0.3v0.1l0,0c0-0.1,0.1-0.3,0.1-0.4l1.7-6.8c0.1-0.5,0.1-1,0.1-1.5&#10;&#9;&#9;c0-1.1,0-2.1-0.1-3.2l0.1-0.3c0.2-0.5,0.5-0.9,0.9-1.3c0.2-0.2,0.5-0.2,0.8-0.1c0.6,0.6,1,1.4,1,2.3c0.1,1,0.1,2.1,0,3.2&#10;&#9;&#9;c-0.1,0.6-0.1,1.3-0.2,1.9l0.2-0.1l2.8-1.9c0.3-0.3,0.7-0.2,1,0c0,0,0,0,0,0c0.5,0.9,0.5,2,0.2,3c0,0.1-0.1,0.3-0.1,0.4&#10;&#9;&#9;c0.1,0.3,0.2,0.5,0.3,0.8C215.7,168.8,215.5,170,215,171.1z M214.7,170.3c0.2-0.4,0.3-0.9,0.3-1.4c0.1-0.4-0.1-0.8-0.3-1.1&#10;&#9;&#9;c-0.1-0.1-0.3-0.1-0.4-0.2c0.1-0.3,0.2-0.5,0.4-0.8c0.2-0.5,0.3-0.9,0.3-1.4c0.1-0.4-0.1-0.8-0.4-1.1c-0.2-0.1-0.4,0-0.6,0.1&#10;&#9;&#9;l-3.4,2.3l-0.2,0.1v-0.2c0,0,0-0.1,0-0.1c0.1-1.1,0.2-2.2,0.3-3.2c0-0.4,0.1-0.8,0.1-1.1c0.1-1-0.1-2-0.6-2.9&#10;&#9;&#9;c-0.1-0.2-0.3-0.3-0.6-0.2c0,0,0,0,0,0c0,0-0.1,0-0.1,0.1c0,0-0.1,0-0.1,0.1c-0.1,0.1-0.2,0.2-0.2,0.3c-0.1,0.1-0.1,0.2-0.1,0.3&#10;&#9;&#9;c0,0.9,0,1.9,0.1,2.8c0,0.1,0,0.3,0,0.4c0,0.7-0.1,1.3-0.3,1.9c-0.5,1.9-1,3.9-1.5,5.8c-0.2,0.7-0.4,1.4-0.7,2.1&#10;&#9;&#9;c-0.1,0.2-0.1,0.3-0.1,0.5l-0.1,4l-0.1,4c0,0.2,0,0.4,0.1,0.4c0.1,0,0.1,0,0.2,0.1c0.1,0.1,0.2,0.1,0.2,0.2c0.2,0.1,0.4,0.1,0.6,0&#10;&#9;&#9;c0.1,0,0.2-0.1,0.3-0.2l1.6-1.1l3.1-2.1c0.1-0.1,0.2-0.1,0.2-0.2c0.4-0.6,0.6-1.2,0.7-1.9c0-0.2,0-0.5-0.1-0.7&#10;&#9;&#9;c0-0.2-0.1-0.3-0.1-0.5c0.1-0.2,0.3-0.3,0.4-0.4c0.4-0.6,0.7-1.3,0.7-2c0-0.3,0-0.6-0.1-0.9c-0.1-0.1-0.1-0.3-0.2-0.4&#10;&#9;&#9;c0.1-0.1,0.2-0.2,0.3-0.4C214.5,170.8,214.6,170.6,214.7,170.3"/>
	<path class="st2_share-87" d="M209.6,159.2c0,0,0.1,0,0.1-0.1c0.2-0.1,0.5,0,0.6,0.2c0,0,0,0,0,0c0.5,0.9,0.7,1.9,0.6,2.9&#10;&#9;&#9;c0,0.4,0,0.7-0.1,1.1c-0.1,1.1-0.2,2.2-0.3,3.2c0,0,0,0.1,0,0.1v0.2l0.2-0.1l3.4-2.3c0.2-0.1,0.4-0.2,0.6-0.1&#10;&#9;&#9;c0.3,0.3,0.4,0.7,0.4,1.1c0,0.5-0.1,1-0.3,1.4c-0.1,0.2-0.2,0.5-0.4,0.8c0.1,0.1,0.3,0.1,0.4,0.2c0.3,0.3,0.4,0.7,0.3,1.1&#10;&#9;&#9;c0,0.5-0.1,1-0.3,1.4c-0.1,0.2-0.2,0.4-0.4,0.6c-0.1,0.1-0.2,0.2-0.3,0.4c0.1,0.2,0.1,0.3,0.2,0.4c0.1,0.3,0.2,0.6,0.1,0.9&#10;&#9;&#9;c0,0.7-0.3,1.4-0.7,2c-0.1,0.1-0.3,0.3-0.4,0.4c0,0.2,0.1,0.3,0.1,0.5c0.1,0.2,0.1,0.5,0.1,0.7c0,0.7-0.3,1.4-0.7,1.9&#10;&#9;&#9;c-0.1,0.1-0.1,0.1-0.2,0.2l-3.1,2.1l-1.6,1.1c-0.1,0.1-0.2,0.1-0.3,0.2c-0.2,0.1-0.4,0.1-0.6,0c-0.1,0-0.2-0.1-0.2-0.2&#10;&#9;&#9;c0,0-0.1-0.1-0.2-0.1c-0.1,0-0.1-0.1-0.1-0.4l0.1-4l0.1-4c0-0.2,0-0.4,0.1-0.5c0.3-0.7,0.6-1.3,0.7-2.1c0.5-1.9,1-3.9,1.5-5.8&#10;&#9;&#9;c0.2-0.6,0.3-1.3,0.3-1.9c0-0.1,0-0.3,0-0.4c0-0.9,0-1.8-0.1-2.7c0-0.1,0-0.2,0.1-0.3c0.1-0.1,0.1-0.2,0.2-0.3&#10;&#9;&#9;C209.6,159.2,209.6,159.2,209.6,159.2z"/>
</g>
<g id="share_link">
	
		<linearGradient id="SVGID_1_-share-87" gradientUnits="userSpaceOnUse" x1="1960.587" y1="260.3036" x2="1906.4171" y2="200.8836" gradientTransform="matrix(1 0 0 -1 -1717.5699 502)">
		<stop offset="0" style="stop-color:#7F3500"/>
		<stop offset="1" style="stop-color:#225870;stop-opacity:0"/>
	</linearGradient>
	<path class="st7_share-87" d="M209.5,247.1l-43.8,33c0,0,18.1,26.8,33.9,33.4l60.5-44.1"/>
	
		<linearGradient id="SVGID_00000041974445494737891390000010298750205076807338_-share-87" gradientUnits="userSpaceOnUse" x1="2042.3049" y1="212.5556" x2="1988.1249" y2="153.1356" gradientTransform="matrix(1 0 0 -1 -1717.5699 502)">
		<stop offset="0" style="stop-color:#7F3500"/>
		<stop offset="1" style="stop-color:#225870;stop-opacity:0"/>
	</linearGradient>
	<path style="opacity:0.46;fill:url(#SVGID_00000041974445494737891390000010298750205076807338_);enable-background:new    ;" d="&#10;&#9;&#9;M291.2,294.8l-43.8,33c0,0,18.1,26.7,33.9,33.4l60.5-44.1"/>
	
		<linearGradient id="SVGID_00000020388359364494603500000002678400541975074953_-share-87" gradientUnits="userSpaceOnUse" x1="220.8434" y1="179.9541" x2="158.0434" y2="143.4741" gradientTransform="matrix(1 0 0 -1 0 502)">
		<stop offset="0" style="stop-color:#7F3500"/>
		<stop offset="1" style="stop-color:#225870;stop-opacity:0"/>
	</linearGradient>
	<path style="opacity:0.46;fill:url(#SVGID_00000020388359364494603500000002678400541975074953_);enable-background:new    ;" d="&#10;&#9;&#9;M184.6,312.8l-43.8,33c0,0,18.1,26.8,33.9,33.4l60.4-44.1"/>
	<polygon class="st10_share-87" points="239.6,328 293,316.9 297.5,307.1 232,320.7 &#9;"/>
	<polyline class="st10_share-87" points="222,300.5 229.7,275.6 219.4,273.9 210,302.1 228.4,307.9 &#9;"/>
	<ellipse class="st0_share-87" cx="208.6" cy="325.7" rx="31.2" ry="17.8"/>
	<polyline class="st0_share-87" points="177.4,325.7 177.4,315.6 239.9,315.6 239.9,325.7 &#9;"/>
	<ellipse class="st11_share-87" cx="208.6" cy="315.6" rx="31.2" ry="17.8"/>
	<ellipse class="st12_share-87" cx="233.4" cy="260" rx="31.2" ry="17.8"/>
	<polyline class="st12_share-87" points="202.2,260 202.2,250 264.7,250 264.7,260 &#9;"/>
	<ellipse class="st4_share-87" cx="233.4" cy="250" rx="31.2" ry="17.8"/>
	<ellipse class="st0_share-87" cx="316.4" cy="308.1" rx="31.2" ry="17.8"/>
	<polyline class="st0_share-87" points="285.2,308.1 285.2,298 347.6,298 347.6,308.1 &#9;"/>
	<ellipse class="st11_share-87" cx="316.4" cy="298" rx="31.2" ry="17.8"/>
	<ellipse class="st12_share-87" cx="208.6" cy="325.7" rx="31.2" ry="17.8"/>
	<polyline class="st12_share-87" points="177.4,325.7 177.4,315.6 239.9,315.6 239.9,325.7 &#9;"/>
	<ellipse class="st4_share-87" cx="208.6" cy="315.6" rx="31.2" ry="17.8"/>
	<ellipse class="st12_share-87" cx="316.4" cy="308.1" rx="31.2" ry="17.8"/>
	<polyline class="st12_share-87" points="285.2,308.1 285.2,298 347.6,298 347.6,308.1 &#9;"/>
	<ellipse class="st4_share-87" cx="316.4" cy="298" rx="31.2" ry="17.8"/>
</g>
</svg>